{
.appVersion = "1268";
copyright = "Copyright 2014 The Heebo Project Authors.";
customParameters = (
{
name = hheaAscender;
value = 2146;
},
{
name = hheaDescender;
value = -862;
},
{
name = hheaLineGap;
value = 0;
},
{
name = license;
value = "This Font Software is licensed under the SIL Open Font License, Version 1.1. This license is copied below, and is also available with a FAQ at: http://scripts.sil.org/OFL";
},
{
name = licenseURL;
value = "http://scripts.sil.org/OFL";
},
{
name = fsType;
value = (
);
},
{
name = typoAscender;
value = 2146;
},
{
name = typoDescender;
value = -862;
},
{
name = typoLineGap;
value = 0;
},
{
name = underlinePosition;
value = -150;
},
{
name = underlineThickness;
value = 100;
},
{
name = winAscent;
value = 2146;
},
{
name = winDescent;
value = 862;
},
{
name = "Disable Last Change";
value = 1;
}
);
date = "2016-03-30 11:22:10 +0000";
designer = "Oded Ezer";
designerURL = HebrewTypography.com;
disablesAutomaticAlignment = 1;
disablesNiceNames = 1;
familyName = Heebo;
fontMaster = (
{
alignmentZones = (
"{2146, 16}",
"{1456, 21}",
"{1157, 31}",
"{0, -21}",
"{-555, -31}"
);
ascender = 2146;
capHeight = 1456;
custom = Thin;
customParameters = (
{
name = "UFO Filename";
value = "Heebo-Thin.ufo";
},
{
name = hheaAscender;
value = 2146;
},
{
name = hheaDescender;
value = -862;
},
{
name = hheaLineGap;
value = 0;
},
{
name = license;
value = "This Font Software is licensed under the SIL Open Font License, Version 1.1. This license is copied below, and is also available with a FAQ at: http://scripts.sil.org/OFL";
},
{
name = licenseURL;
value = "http://scripts.sil.org/OFL";
},
{
name = fsType;
value = (
);
},
{
name = typoAscender;
value = 2146;
},
{
name = typoDescender;
value = -862;
},
{
name = typoLineGap;
value = 0;
},
{
name = underlinePosition;
value = -150;
},
{
name = underlineThickness;
value = 100;
},
{
name = winAscent;
value = 2146;
},
{
name = winDescent;
value = 862;
}
);
descender = -555;
guideLines = (
{

glyphs = (
{
glyphname = A;
layers = (
{
anchors = (
{
name = bottom;
position = "{638, 0}";
},
{
name = bottom_dd;
position = "{1223, -407}";
},
{
name = ogonek;
position = "{1189, 0}";
},
{
name = right;
position = "{1189, 0}";
},
{
name = tonos;
position = "{281, 1454}";
},
{
name = top;
position = "{612, 1612}";
},
{
name = top0315;
position = "{1223, 1612}";
},
{
name = top_dd;
position = "{1223, 1600}";
}
);
guideLines = (
{
position = "{0, 901}";
},
{
position = "{0, 555}";
}
);
layerId = "445B0B85-2678-4800-8A4D-B1A9856CF63B";
paths = (
{
closed = 1;
nodes = (
"618 1410 LINE",
"630 1456 LINE",
"578 1456 LINE",
"33 0 LINE",
"92 0 LINE"
);
},
{
closed = 1;
nodes = (
"1130 0 LINE",
"1189 0 LINE",
"644 1456 LINE",
"593 1456 LINE",
"604 1410 LINE"
);
},
{
closed = 1;
nodes = (
"976 489 LINE",
"247 489 LINE",
"247 435 LINE",
"976 435 LINE"
);
}
);
width = 1223;
},
{
anchors = (
{
name = bottom;
position = "{691, 0}";
},
{
name = bottom_dd;
position = "{1349, -407}";
},
{
name = ogonek;
position = "{1281, 0}";
},
{
name = right;
position = "{1319, 0}";
},
{
name = tonos;
position = "{370, 1454}";
},
{
name = top;
position = "{679, 1600}";
},
{
name = top0315;
position = "{1349, 1600}";
},
{
name = top_dd;
position = "{1349, 1600}";
}
);
guideLines = (
{
position = "{0, 901}";
},
{
position = "{0, 555}";
}
);
layerId = "3A1161A8-2FC1-4350-92D1-D5E808DF9456";
paths = (
{
closed = 1;
nodes = (
"718 1320 LINE",
"720 1456 LINE",
"585 1456 LINE",
"28 0 LINE",
"241 0 LINE"
);
},
{
closed = 1;
nodes = (
"1110 0 LINE",
"1323 0 LINE",
"765 1456 LINE",
"630 1456 LINE",
"632 1320 LINE"
);
},
{
closed = 1;
nodes = (
"1099 543 LINE",
"271 543 LINE",
"271 376 LINE",
"1099 376 LINE"
);
}
);
width = 1349;
},
{
anchors = (
{
name = bottom;
position = "{707, 11}";
},
{
name = bottom_dd;
position = "{1409, -407}";
},
{
name = ogonek;
position = "{1300, 0}";
},
{
name = right;
position = "{1417, 0}";
},
{
name = tonos;
position = "{322, 1454}";
},
{
name = top;
position = "{706, 1599}";
},
{
name = top0315;
position = "{1409, 1599}";
},
{
name = top_dd;
position = "{1409, 1600}";
}
);
layerId = "20EE6398-45C7-446F-8F4E-C33CF1AD7937";
paths = (
{
closed = 1;
nodes = (
"737 1105 LINE",
"781 1456 LINE",
"527 1456 LINE",
"-7 0 LINE",
"396 0 LINE"
);
},
{
closed = 1;
nodes = (
"1013 0 LINE",
"1416 0 LINE",
"879 1456 LINE",
"622 1456 LINE",
"671 1105 LINE"
);
},
{
closed = 1;
nodes = (
"1009 547 LINE",
"262 547 LINE",
"262 244 LINE",
"1009 244 LINE"
);
}
);
width = 1408.675;
},
{
anchors = (
{
name = bottom;
position = "{686, 0}";
},
{
name = bottom_dd;
position = "{1338, -407}";
},
{
name = ogonek;
position = "{1273, 0}";
},
{
name = right;
position = "{1307, 0}";
},
{
name = tonos;
position = "{361.99, 1454}";
},
{
name = top;
position = "{673, 1601}";
},
{
name = top0315;
position = "{1338, 1601}";
},
{
name = top_dd;
position = "{1338, 1600}";
}
);
layerId = "275CACE8-FD52-4067-B7BC-43A450B7EDC9";
paths = (
{
closed = 1;
nodes = (
"709 1328 LINE",
"712 1456 LINE",
"584 1456 LINE",
"28 0 LINE",
"228 0 LINE"
);
},
{
closed = 1;
nodes = (
"1112 0 LINE",
"1311 0 LINE",
"754 1456 LINE",
"627 1456 LINE",
"629 1328 LINE"
);
},
{
closed = 1;
nodes = (
"1088 538 LINE",
"269 538 LINE",
"269 381 LINE",
"1088 381 LINE"
);
}
);
width = 1337.66;
}
);
unicode = 0041;
userData = {
com.typemytype.robofont.guides = (
{
angle = 0;
isGlobal = 0;
magnetic = 5;
x = 0;
y = 901;
},
{
angle = 0;
isGlobal = 0;
magnetic = 5;
x = 0;
y = 555;
}
);
};
},
{
glyphname = AE;
layers = (
{
anchors = (
{
name = top;
position = "{971, 1612}";
},
{
name = top0315;
position = "{1816, 1612}";
},
{
name = top_dd;
position = "{1816, 1600}";
}
);
layerId = "445B0B85-2678-4800-8A4D-B1A9856CF63B";
paths = (
{
closed = 1;
nodes = (
"963 1408 LINE",
"980 1456 LINE",
"931 1456 LINE",
"50 0 LINE",
"115 0 LINE"
);
},
{
closed = 1;
nodes = (
"1003 478 LINE",
"354 478 LINE",
"354 425 LINE",
"1003 425 LINE"
);
},
{
closed = 1;
nodes = (
"1768 54 LINE",
"1035 54 LINE",
"1035 0 LINE",
"1768 0 LINE"
);
},
{
closed = 1;
nodes = (
"1009 1456 LINE",
"955 1456 LINE",
"1016 0 LINE",
"1070 0 LINE"
);
},
{
closed = 1;
nodes = (
"1625 786 LINE",
"995 786 LINE",
"995 732 LINE",
"1625 732 LINE"
);
},
{
closed = 1;
nodes = (
"1707 1456 LINE",
"974 1456 LINE",
"974 1402 LINE",
"1707 1402 LINE"
);
}
);
width = 1816;
},
{
anchors = (
{
name = top;
position = "{935, 1612}";
},
{
name = top0315;
position = "{1925, 1612}";
},
{
name = top_dd;
position = "{1925, 1600}";
}
);
layerId = "3A1161A8-2FC1-4350-92D1-D5E808DF9456";
paths = (
{
closed = 1;
nodes = (
"971 1298 LINE",
"986 1456 LINE",
"859 1456 LINE",
"-22 0 LINE",
"223 0 LINE"
);
},
{
closed = 1;
nodes = (
"1127 532 LINE",
"374 532 LINE",
"374 347 LINE",
"1127 347 LINE"
);
},
{
closed = 1;
nodes = (
"1892 160 LINE",
"1159 160 LINE",
"1159 0 LINE",
"1892 0 LINE"
);
},
{
closed = 1;
nodes = (
"1133 1456 LINE",
"933 1456 LINE",
"994 0 LINE",
"1194 0 LINE"
);
},
{
closed = 1;
nodes = (
"1749 838 LINE",
"1119 838 LINE",
"1119 678 LINE",
"1749 678 LINE"
);
},
{
closed = 1;
nodes = (
"1830 1456 LINE",
"1098 1456 LINE",
"1098 1296 LINE",
"1830 1296 LINE"
);
}
);
width = 1925;
},
{
anchors = (
{
name = top;
position = "{931, 1612}";
},
{
name = top0315;
position = "{1934, 1612}";
},
{
name = top_dd;
position = "{1934, 1600}";
}
);
layerId = "20EE6398-45C7-446F-8F4E-C33CF1AD7937";
paths = (
{
closed = 1;
nodes = (
"1011 1290 LINE",
"962 1456 LINE",
"736 1456 LINE",
"14 0 LINE",
"431 0 LINE"
);
},
{
closed = 1;
nodes = (
"1092 618 LINE",
"333 618 LINE",
"333 319 LINE",
"1092 319 LINE"
);
},
{
closed = 1;
nodes = (
"1857 295 LINE",
"1125 295 LINE",
"1125 0 LINE",
"1857 0 LINE"
);
},
{
closed = 1;
nodes = (
"1249 1456 LINE",
"888 1456 LINE",
"949 0 LINE",
"1310 0 LINE"
);
},
{
closed = 1;
nodes = (
"1715 888 LINE",
"1084 888 LINE",
"1084 593 LINE",
"1715 593 LINE"
);
},
{
closed = 1;
nodes = (
"1796 1456 LINE",
"1064 1456 LINE",
"1064 1161 LINE",
"1796 1161 LINE"
);
}
);
width = 1934.4;
},
{
anchors = (
{
name = top;
position = "{938, 1612}";
},
{
name = top0315;
position = "{1915, 1612}";
},
{
name = top_dd;
position = "{1915, 1600}";
}
);
layerId = "275CACE8-FD52-4067-B7BC-43A450B7EDC9";
paths = (
{
closed = 1;
nodes = (
"970 1308 LINE",
"985 1456 LINE",
"865 1456 LINE",
"-16 0 LINE",
"213 0 LINE"
);
},
{
closed = 1;
nodes = (
"1116 527 LINE",
"372 527 LINE",
"372 354 LINE",
"1116 354 LINE"
);
},
{
closed = 1;
nodes = (
"1881 150 LINE",
"1148 150 LINE",
"1148 0 LINE",
"1881 0 LINE"
);
},
{
closed = 1;
nodes = (
"1122 1456 LINE",
"935 1456 LINE",
"996 0 LINE",
"1183 0 LINE"
);
},
{
closed = 1;
nodes = (
"1738 833 LINE",
"1108 833 LINE",
"1108 683 LINE",
"1738 683 LINE"
);
},
{
closed = 1;
nodes = (
"1819 1456 LINE",
"1087 1456 LINE",
"1087 1306 LINE",
"1819 1306 LINE"
);
}
);
width = 1915.19;
}
);
unicode = 00C6;
},
{
glyphname = B;
layers = (
{
anchors = (
{
name = bottom;
position = "{560, 10}";
},
{
name = bottom_dd;
position = "{1235, -407}";
},
{
name = top;
position = "{560, 1612}";
},
{
name = top0315;
position = "{1235, 1612}";
},
{
name = top_dd;
position = "{1235, 1600}";
}
);
guideLines = (
{
position = "{0, 901}";
},
{
position = "{0, 555}";
}
);
layerId = "445B0B85-2678-4800-8A4D-B1A9856CF63B";
paths = (
{
closed = 1;
nodes = (
"685 719 LINE",
"770 749 LINE",
"957 768 OFFCURVE",
"1059 903 OFFCURVE",
"1059 1083 CURVE",
"1059 1340 OFFCURVE",
"877 1456 OFFCURVE",
"583 1456 CURVE",
"200 1456 LINE",
"200 0 LINE",
"254 0 LINE",
"254 1402 LINE",
"583 1402 LINE",
"860 1402 OFFCURVE",
"1004 1296 OFFCURVE",
"1004 1087 CURVE",
"1004 874 OFFCURVE",
"867 773 OFFCURVE",
"603 773 CURVE",
"231 773 LINE",
"233 719 LINE"
);
},
{
closed = 1;
nodes = (
"675 0 LINE",
"940 0 OFFCURVE",
"1125 142 OFFCURVE",
"1125 401 CURVE SMOOTH",
"1125 579 OFFCURVE",
"984 732 OFFCURVE",
"800 754 CURVE",
"796 773 LINE",
"451 773 LINE",
"449 719 LINE",
"685 719 LINE SMOOTH",
"943 719 OFFCURVE",
"1071 566 OFFCURVE",
"1071 399 CURVE SMOOTH",
"1071 182 OFFCURVE",
"920 54 OFFCURVE",
"675 54 CURVE SMOOTH",
"248 54 LINE",
"231 0 LINE"
);
}
);
width = 1235;
},
{
anchors = (
{
name = bottom;
position = "{619, 10}";
},
{
name = bottom_dd;
position = "{1280, -407}";
},
{
name = top;
position = "{611, 1612}";
},
{
name = top0315;
position = "{1280, 1612}";
},
{
name = top_dd;
position = "{1280, 1600}";
}
);
layerId = "3A1161A8-2FC1-4350-92D1-D5E808DF9456";
paths = (
{
closed = 1;
nodes = (
"688 678 LINE",
"755 726 LINE",
"976 752 OFFCURVE",
"1128 887 OFFCURVE",
"1128 1067 CURVE",
"1128 1339 OFFCURVE",
"951 1456 OFFCURVE",
"653 1456 CURVE",
"166 1456 LINE",
"166 0 LINE",
"374 0 LINE",
"374 1289 LINE",
"653 1289 LINE",
"834 1289 OFFCURVE",
"920 1224 OFFCURVE",
"920 1068 CURVE",
"920 927 OFFCURVE",
"812 841 OFFCURVE",
"657 841 CURVE",
"327 841 LINE",
"329 678 LINE"
);
},
{
closed = 1;
nodes = (
"679 0 LINE",
"973 0 OFFCURVE",
"1164 148 OFFCURVE",
"1164 422 CURVE SMOOTH",
"1164 610 OFFCURVE",
"1048 764 OFFCURVE",
"835 782 CURVE",
"790 841 LINE",
"411 841 LINE",
"409 678 LINE",
"688 678 LINE SMOOTH",
"877 678 OFFCURVE",
"956 581 OFFCURVE",
"956 420 CURVE SMOOTH",
"956 265 OFFCURVE",
"855 166 OFFCURVE",
"679 166 CURVE SMOOTH",
"364 166 LINE",
"244 0 LINE"
);
}
);
width = 1280;
},
{
anchors = (
{
name = bottom;
position = "{594, 10}";
},
{
name = bottom_dd;
position = "{1329, -407}";
},
{
name = top;
position = "{596, 1612}";
},
{
name = top0315;
position = "{1329, 1612}";
},
{
name = top_dd;
position = "{1329, 1600}";
}
);
layerId = "20EE6398-45C7-446F-8F4E-C33CF1AD7937";
paths = (
{
closed = 1;
nodes = (
"707 603 LINE",
"805 705 LINE",
"1120 703 OFFCURVE",
"1220 871 OFFCURVE",
"1220 1050 CURVE",
"1220 1323 OFFCURVE",
"1002 1456 OFFCURVE",
"637 1456 CURVE",
"103 1456 LINE",
"103 0 LINE",
"479 0 LINE",
"479 1153 LINE",
"637 1153 LINE",
"784 1153 OFFCURVE",
"845 1110 OFFCURVE",
"845 998 CURVE",
"845 903 OFFCURVE",
"790 856 OFFCURVE",
"634 856 CURVE",
"335 856 LINE",
"337 603 LINE"
);
},
{
closed = 1;
nodes = (
"693 0 LINE",
"1060 0 OFFCURVE",
"1248 145 OFFCURVE",
"1248 435 CURVE SMOOTH",
"1248 598 OFFCURVE",
"1152 773 OFFCURVE",
"851 753 CURVE",
"763 856 LINE",
"409 856 LINE",
"407 603 LINE",
"707 603 LINE SMOOTH",
"829 603 OFFCURVE",
"874 542 OFFCURVE",
"874 441 CURVE SMOOTH",
"874 368 OFFCURVE",
"827 302 OFFCURVE",
"693 302 CURVE SMOOTH",
"374 302 LINE",
"246 0 LINE"
);
}
);
width = 1328.7;
},
{
anchors = (
{
name = bottom;
position = "{614, 10}";
},
{
name = bottom_dd;
position = "{1276, -407}";
},
{
name = top;
position = "{606, 1612}";
},
{
name = top0315;
position = "{1276, 1612}";
},
{
name = top_dd;
position = "{1276, 1600}";
}
);
layerId = "275CACE8-FD52-4067-B7BC-43A450B7EDC9";
paths = (
{
closed = 1;
nodes = (
"688 682 LINE",
"756 728 LINE",
"974 753 OFFCURVE",
"1122 888 OFFCURVE",
"1122 1068 CURVE",
"1122 1339 OFFCURVE",
"944 1456 OFFCURVE",
"647 1456 CURVE",
"169 1456 LINE",
"169 0 LINE",
"363 0 LINE",
"363 1299 LINE",
"647 1299 LINE",
"836 1299 OFFCURVE",
"928 1230 OFFCURVE",
"928 1070 CURVE",
"928 922 OFFCURVE",
"817 835 OFFCURVE",
"652 835 CURVE",
"318 835 LINE",
"320 682 LINE"
);
},
{
closed = 1;
nodes = (
"679 0 LINE",
"970 0 OFFCURVE",
"1160 147 OFFCURVE",
"1160 420 CURVE SMOOTH",
"1160 607 OFFCURVE",
"1042 761 OFFCURVE",
"832 779 CURVE",
"791 835 LINE",
"415 835 LINE",
"413 682 LINE",
"688 682 LINE SMOOTH",
"883 682 OFFCURVE",
"966 580 OFFCURVE",
"966 418 CURVE SMOOTH",
"966 258 OFFCURVE",
"861 156 OFFCURVE",
"679 156 CURVE SMOOTH",
"354 156 LINE",
"243 0 LINE"
);
}
);
width = 1275.95;
}
);
unicode = 0042;
userData = {
com.typemytype.robofont.guides = (
{
angle = 0;
isGlobal = 0;
magnetic = 5;
x = 0;
y = 901;
},
{
angle = 0;
isGlobal = 0;
magnetic = 5;
x = 0;
y = 555;
}
);
};
},
{
glyphname = C;
layers = (
{
anchors = (
{
name = bottom;
position = "{678, -10}";
},
{
name = bottom_dd;
position = "{1327, -407}";
},
{
name = top;
position = "{678, 1633}";
},
{
name = top0315;
position = "{1327, 1633}";
},
{
name = top_dd;
position = "{1327, 1600}";
}
);
guideLines = (
{
position = "{0, 901}";
},
{
position = "{0, 555}";
},
{
angle = 90;
position = "{920, 0}";
}
);
layerId = "445B0B85-2678-4800-8A4D-B1A9856CF63B";
paths = (
{
closed = 1;
nodes = (
"1136 446 LINE",
"1106 161 OFFCURVE",
"941 34 OFFCURVE",
"671 34 CURVE SMOOTH",
"388 34 OFFCURVE",
"198 266 OFFCURVE",
"198 619 CURVE SMOOTH",
"198 839 LINE SMOOTH",
"198 1190 OFFCURVE",
"388 1422 OFFCURVE",
"671 1422 CURVE SMOOTH",
"947 1422 OFFCURVE",
"1106 1279 OFFCURVE",
"1136 1012 CURVE",
"1190 1012 LINE",
"1160 1323 OFFCURVE",
"963 1476 OFFCURVE",
"671 1476 CURVE SMOOTH",
"351 1476 OFFCURVE",
"144 1217 OFFCURVE",
"144 837 CURVE",
"144 619 LINE",
"144 239 OFFCURVE",
"351 -20 OFFCURVE",
"671 -20 CURVE SMOOTH",
"963 -20 OFFCURVE",
"1160 131 OFFCURVE",
"1190 446 CURVE"
);
}
);
width = 1327;
},
{
anchors = (
{
name = bottom;
position = "{680, -10}";
},
{
name = bottom_dd;
position = "{1334, -407}";
},
{
name = top;
position = "{680, 1633}";
},
{
name = top0315;
position = "{1334, 1633}";
},
{
name = top_dd;
position = "{1334, 1600}";
}
);
guideLines = (
{
position = "{0, 901}";
},
{
position = "{0, 555}";
}
);
layerId = "3A1161A8-2FC1-4350-92D1-D5E808DF9456";
paths = (
{
closed = 1;
nodes = (
"1038 464 LINE",
"1005 266 OFFCURVE",
"933 146 OFFCURVE",
"690 146 CURVE SMOOTH",
"434 146 OFFCURVE",
"325 378 OFFCURVE",
"325 658 CURVE SMOOTH",
"325 799 LINE SMOOTH",
"325 1104 OFFCURVE",
"454 1309 OFFCURVE",
"709 1309 CURVE SMOOTH",
"928 1309 OFFCURVE",
"1009 1184 OFFCURVE",
"1038 987 CURVE",
"1246 987 LINE",
"1216 1272 OFFCURVE",
"1043 1476 OFFCURVE",
"709 1476 CURVE SMOOTH",
"344 1476 OFFCURVE",
"117 1207 OFFCURVE",
"117 797 CURVE",
"117 658 LINE",
"117 248 OFFCURVE",
"345 -20 OFFCURVE",
"690 -20 CURVE SMOOTH",
"1046 -20 OFFCURVE",
"1215 192 OFFCURVE",
"1246 464 CURVE"
);
}
);
width = 1334;
},
{
anchors = (
{
name = bottom;
position = "{689, 2}";
},
{
name = bottom_dd;
position = "{1346, -407}";
},
{
name = top;
position = "{694, 1593}";
},
{
name = top0315;
position = "{1346, 1593}";
},
{
name = top_dd;
position = "{1346, 1600}";
}
);
layerId = "20EE6398-45C7-446F-8F4E-C33CF1AD7937";
paths = (
{
closed = 1;
nodes = (
"923 501 LINE",
"920 351 OFFCURVE",
"838 288 OFFCURVE",
"688 288 CURVE SMOOTH",
"505 288 OFFCURVE",
"445 388 OFFCURVE",
"445 698 CURVE SMOOTH",
"445 759 LINE SMOOTH",
"445 1067 OFFCURVE",
"519 1169 OFFCURVE",
"682 1169 CURVE SMOOTH",
"862 1169 OFFCURVE",
"922 1095 OFFCURVE",
"925 943 CURVE",
"1299 943 LINE",
"1273 1247 OFFCURVE",
"1070 1477 OFFCURVE",
"682 1477 CURVE SMOOTH",
"309 1477 OFFCURVE",
"64 1204 OFFCURVE",
"64 757 CURVE",
"64 698 LINE",
"64 251 OFFCURVE",
"293 -20 OFFCURVE",
"688 -20 CURVE SMOOTH",
"1052 -20 OFFCURVE",
"1284 192 OFFCURVE",
"1297 501 CURVE"
);
}
);
width = 1345.55;
},
{
anchors = (
{
name = bottom;
position = "{680, -10}";
},
{
name = bottom_dd;
position = "{1333, -407}";
},
{
name = top;
position = "{680, 1633}";
},
{
name = top0315;
position = "{1333, 1633}";
},
{
name = top_dd;
position = "{1333, 1600}";
}
);
layerId = "275CACE8-FD52-4067-B7BC-43A450B7EDC9";
paths = (
{
closed = 1;
nodes = (
"1047 462 LINE",
"1014 257 OFFCURVE",
"934 136 OFFCURVE",
"688 136 CURVE SMOOTH",
"430 136 OFFCURVE",
"314 368 OFFCURVE",
"314 654 CURVE SMOOTH",
"314 803 LINE SMOOTH",
"314 1112 OFFCURVE",
"448 1319 OFFCURVE",
"706 1319 CURVE SMOOTH",
"930 1319 OFFCURVE",
"1018 1193 OFFCURVE",
"1047 989 CURVE",
"1241 989 LINE",
"1211 1277 OFFCURVE",
"1036 1476 OFFCURVE",
"706 1476 CURVE SMOOTH",
"345 1476 OFFCURVE",
"119 1208 OFFCURVE",
"119 801 CURVE",
"119 654 LINE",
"119 247 OFFCURVE",
"346 -20 OFFCURVE",
"688 -20 CURVE SMOOTH",
"1039 -20 OFFCURVE",
"1210 187 OFFCURVE",
"1241 462 CURVE"
);
}
);
width = 1333.37;
}
);
unicode = 0043;
userData = {
com.typemytype.robofont.guides = (
{
angle = 0;
isGlobal = 0;
magnetic = 5;
x = 0;
y = 901;
},
{
angle = 0;
isGlobal = 0;
magnetic = 5;
x = 0;
y = 555;
},
{
angle = 90;
isGlobal = 0;
magnetic = 5;
x = 920;
y = 0;
}
);
};
},
{
glyphname = D;
layers = (
{
anchors = (
{
name = bottom;
position = "{590, 10}";
},
{
name = bottom_dd;
position = "{1340, -407}";
},
{
name = cross;
position = "{359, 738}";
},
{
name = top;
position = "{590, 1612}";
},
{
name = top0315;
position = "{1340, 1612}";
},
{
name = top_dd;
position = "{1340, 1600}";
}
);
guideLines = (
{
position = "{0, 901}";
},
{
position = "{0, 555}";
}
);
layerId = "445B0B85-2678-4800-8A4D-B1A9856CF63B";
paths = (
{
closed = 1;
nodes = (
"603 0 LINE",
"947 0 OFFCURVE",
"1204 260 OFFCURVE",
"1204 639 CURVE",
"1204 817 LINE",
"1204 1196 OFFCURVE",
"947 1456 OFFCURVE",
"603 1456 CURVE",
"242 1456 LINE",
"242 1402 LINE",
"603 1402 LINE",
"916 1402 OFFCURVE",
"1150 1159 OFFCURVE",
"1150 820 CURVE",
"1150 639 LINE SMOOTH",
"1150 297 OFFCURVE",
"916 54 OFFCURVE",
"603 54 CURVE",
"250 54 LINE",
"248 0 LINE"
);
},
{
closed = 1;
nodes = (
"254 1456 LINE",
"200 1456 LINE",
"200 0 LINE",
"254 0 LINE"
);
}
);
width = 1340;
},
{
anchors = (
{
name = bottom;
position = "{615, 10}";
},
{
name = bottom_dd;
position = "{1344, -407}";
},
{
name = cross;
position = "{318, 738}";
},
{
name = top;
position = "{611, 1612}";
},
{
name = top0315;
position = "{1344, 1612}";
},
{
name = top_dd;
position = "{1344, 1600}";
}
);
guideLines = (
{
position = "{0, 901}";
},
{
position = "{0, 555}";
}
);
layerId = "3A1161A8-2FC1-4350-92D1-D5E808DF9456";
paths = (
{
closed = 1;
nodes = (
"559 0 LINE",
"969 0 OFFCURVE",
"1225 263 OFFCURVE",
"1225 688 CURVE",
"1225 767 LINE",
"1225 1192 OFFCURVE",
"965 1456 OFFCURVE",
"578 1456 CURVE",
"254 1456 LINE",
"254 1289 LINE",
"578 1289 LINE",
"863 1289 OFFCURVE",
"1019 1102 OFFCURVE",
"1019 769 CURVE",
"1019 688 LINE SMOOTH",
"1019 371 OFFCURVE",
"869 166 OFFCURVE",
"559 166 CURVE",
"262 166 LINE",
"260 0 LINE"
);
},
{
closed = 1;
nodes = (
"374 1456 LINE",
"166 1456 LINE",
"166 0 LINE",
"374 0 LINE"
);
}
);
width = 1344;
},
{
anchors = (
{
name = bottom;
position = "{471, 10}";
},
{
name = bottom_dd;
position = "{1323, -407}";
},
{
name = cross;
position = "{326, 723}";
},
{
name = top;
position = "{472, 1597}";
},
{
name = top0315;
position = "{1323, 1597}";
},
{
name = top_dd;
position = "{1323, 1600}";
}
);
layerId = "20EE6398-45C7-446F-8F4E-C33CF1AD7937";
paths = (
{
closed = 1;
nodes = (
"583 0 LINE",
"976 0 OFFCURVE",
"1258 290 OFFCURVE",
"1258 703 CURVE",
"1258 752 LINE",
"1258 1165 OFFCURVE",
"976 1456 OFFCURVE",
"577 1456 CURVE",
"256 1456 LINE",
"256 1153 LINE",
"577 1153 LINE",
"775 1153 OFFCURVE",
"876 1021 OFFCURVE",
"876 754 CURVE",
"876 703 LINE SMOOTH",
"876 432 OFFCURVE",
"772 302 OFFCURVE",
"583 302 CURVE",
"264 302 LINE",
"262 0 LINE"
);
},
{
closed = 1;
nodes = (
"479 1456 LINE",
"103 1456 LINE",
"103 0 LINE",
"479 0 LINE"
);
}
);
width = 1323.475;
},
{
anchors = (
{
name = bottom;
position = "{613, 10}";
},
{
name = bottom_dd;
position = "{1344, -407}";
},
{
name = cross;
position = "{322, 738}";
},
{
name = top;
position = "{609, 1612}";
},
{
name = top0315;
position = "{1344, 1612}";
},
{
name = top_dd;
position = "{1344, 1600}";
}
);
layerId = "275CACE8-FD52-4067-B7BC-43A450B7EDC9";
paths = (
{
closed = 1;
nodes = (
"563 0 LINE",
"967 0 OFFCURVE",
"1223 263 OFFCURVE",
"1223 684 CURVE",
"1223 772 LINE",
"1223 1192 OFFCURVE",
"963 1456 OFFCURVE",
"580 1456 CURVE",
"253 1456 LINE",
"253 1299 LINE",
"580 1299 LINE",
"868 1299 OFFCURVE",
"1031 1107 OFFCURVE",
"1031 774 CURVE",
"1031 684 LINE SMOOTH",
"1031 364 OFFCURVE",
"873 156 OFFCURVE",
"563 156 CURVE",
"261 156 LINE",
"259 0 LINE"
);
},
{
closed = 1;
nodes = (
"363 1456 LINE",
"169 1456 LINE",
"169 0 LINE",
"363 0 LINE"
);
}
);
width = 1343.64;
}
);
unicode = 0044;
userData = {
com.typemytype.robofont.guides = (
{
angle = 0;
isGlobal = 0;
magnetic = 5;
x = 0;
y = 901;
},
{
angle = 0;
isGlobal = 0;
magnetic = 5;
x = 0;
y = 555;
}
);
};
},
{
glyphname = E;
layers = (
{
anchors = (
{
name = bottom;
position = "{619, 10}";
},
{
name = bottom_dd;
position = "{1166, -407}";
},
{
name = ogonek;
position = "{1027, 0}";
},
{
name = tonos;
position = "{-70, 1457}";
},
{
name = top;
position = "{619, 1612}";
},
{
name = top0315;
position = "{1166, 1612}";
},
{
name = top_dd;
position = "{1166, 1600}";
}
);
layerId = "445B0B85-2678-4800-8A4D-B1A9856CF63B";
paths = (
{
closed = 1;
nodes = (
"1086 54 LINE",
"219 54 LINE",
"219 0 LINE",
"1086 0 LINE"
);
},
{
closed = 1;
nodes = (
"254 1456 LINE",
"200 1456 LINE",
"200 0 LINE",
"254 0 LINE"
);
},
{
closed = 1;
nodes = (
"984 776 LINE",
"219 776 LINE",
"219 722 LINE",
"984 722 LINE"
);
},
{
closed = 1;
nodes = (
"1086 1456 LINE",
"219 1456 LINE",
"219 1402 LINE",
"1086 1402 LINE"
);
}
);
width = 1166;
},
{
anchors = (
{
name = bottom;
position = "{619, 10}";
},
{
name = bottom_dd;
position = "{1164, -407}";
},
{
name = ogonek;
position = "{1021, 0}";
},
{
name = tonos;
position = "{-39, 1455}";
},
{
name = top;
position = "{619, 1612}";
},
{
name = top0315;
position = "{1164, 1612}";
},
{
name = top_dd;
position = "{1164, 1600}";
}
);
layerId = "3A1161A8-2FC1-4350-92D1-D5E808DF9456";
paths = (
{
closed = 1;
nodes = (
"1095 166 LINE",
"335 166 LINE",
"335 0 LINE",
"1095 0 LINE"
);
},
{
closed = 1;
nodes = (
"374 1456 LINE",
"166 1456 LINE",
"166 0 LINE",
"374 0 LINE"
);
},
{
closed = 1;
nodes = (
"993 835 LINE",
"335 835 LINE",
"335 669 LINE",
"993 669 LINE"
);
},
{
closed = 1;
nodes = (
"1084 1456 LINE",
"335 1456 LINE",
"335 1289 LINE",
"1084 1289 LINE"
);
}
);
width = 1164;
},
{
anchors = (
{
name = bottom;
position = "{651, 10}";
},
{
name = bottom_dd;
position = "{1144, -407}";
},
{
name = ogonek;
position = "{909, 0}";
},
{
name = tonos;
position = "{-111, 1457}";
},
{
name = top;
position = "{646, 1597}";
},
{
name = top0315;
position = "{1144, 1597}";
},
{
name = top_dd;
position = "{1144, 1600}";
}
);
layerId = "20EE6398-45C7-446F-8F4E-C33CF1AD7937";
paths = (
{
closed = 1;
nodes = (
"1115 302 LINE",
"346 302 LINE",
"346 0 LINE",
"1115 0 LINE"
);
},
{
closed = 1;
nodes = (
"479 1456 LINE",
"103 1456 LINE",
"103 0 LINE",
"479 0 LINE"
);
},
{
closed = 1;
nodes = (
"1016 892 LINE",
"346 892 LINE",
"346 601 LINE",
"1016 601 LINE"
);
},
{
closed = 1;
nodes = (
"1118 1456 LINE",
"346 1456 LINE",
"346 1153 LINE",
"1118 1153 LINE"
);
}
);
width = 1144.25;
},
{
anchors = (
{
name = bottom;
position = "{619, 10}";
},
{
name = bottom_dd;
position = "{1164, -407}";
},
{
name = ogonek;
position = "{1022, 0}";
},
{
name = tonos;
position = "{-42, 1455}";
},
{
name = top;
position = "{619, 1612}";
},
{
name = top0315;
position = "{1164, 1612}";
},
{
name = top_dd;
position = "{1164, 1600}";
}
);
layerId = "275CACE8-FD52-4067-B7BC-43A450B7EDC9";
paths = (
{
closed = 1;
nodes = (
"1094 156 LINE",
"325 156 LINE",
"325 0 LINE",
"1094 0 LINE"
);
},
{
closed = 1;
nodes = (
"363 1456 LINE",
"169 1456 LINE",
"169 0 LINE",
"363 0 LINE"
);
},
{
closed = 1;
nodes = (
"992 830 LINE",
"325 830 LINE",
"325 674 LINE",
"992 674 LINE"
);
},
{
closed = 1;
nodes = (
"1084 1456 LINE",
"325 1456 LINE",
"325 1299 LINE",
"1084 1299 LINE"
);
}
);
width = 1164.18;
}
);
unicode = 0045;
},
{
glyphname = F;
layers = (
{
anchors = (
{
name = bottom;
position = "{531, 10}";
},
{
name = bottom_dd;
position = "{1172, -407}";
},
{
name = cross;
position = "{331, 337}";
},
{
name = top;
position = "{619, 1612}";
},
{
name = top0315;
position = "{1172, 1612}";
},
{
name = top_dd;
position = "{1172, 1600}";
}
);
layerId = "445B0B85-2678-4800-8A4D-B1A9856CF63B";
paths = (
{
closed = 1;
nodes = (
"254 1456 LINE",
"200 1456 LINE",
"200 0 LINE",
"254 0 LINE"
);
},
{
closed = 1;
nodes = (
"1000 772 LINE",
"215 772 LINE",
"215 716 LINE",
"1000 716 LINE"
);
},
{
closed = 1;
nodes = (
"1102 1456 LINE",
"215 1456 LINE",
"215 1402 LINE",
"1102 1402 LINE"
);
}
);
width = 1172;
},
{
anchors = (
{
name = bottom;
position = "{531, 10}";
},
{
name = bottom_dd;
position = "{1128, -407}";
},
{
name = cross;
position = "{333, 337}";
},
{
name = top;
position = "{619, 1612}";
},
{
name = top0315;
position = "{1128, 1612}";
},
{
name = top_dd;
position = "{1128, 1600}";
}
);
layerId = "3A1161A8-2FC1-4350-92D1-D5E808DF9456";
paths = (
{
closed = 1;
nodes = (
"374 1456 LINE",
"166 1456 LINE",
"166 0 LINE",
"374 0 LINE"
);
},
{
closed = 1;
nodes = (
"969 803 LINE",
"332 803 LINE",
"332 637 LINE",
"969 637 LINE"
);
},
{
closed = 1;
nodes = (
"1068 1456 LINE",
"332 1456 LINE",
"332 1289 LINE",
"1068 1289 LINE"
);
}
);
width = 1128;
},
{
anchors = (
{
name = bottom;
position = "{531, 10}";
},
{
name = bottom_dd;
position = "{1116, -407}";
},
{
name = cross;
position = "{329, 281}";
},
{
name = top;
position = "{646, 1612}";
},
{
name = top0315;
position = "{1116, 1612}";
},
{
name = top_dd;
position = "{1116, 1600}";
}
);
layerId = "20EE6398-45C7-446F-8F4E-C33CF1AD7937";
paths = (
{
closed = 1;
nodes = (
"479 1456 LINE",
"103 1456 LINE",
"103 0 LINE",
"479 0 LINE"
);
},
{
closed = 1;
nodes = (
"1030 863 LINE",
"374 863 LINE",
"374 561 LINE",
"1030 561 LINE"
);
},
{
closed = 1;
nodes = (
"1084 1456 LINE",
"374 1456 LINE",
"374 1153 LINE",
"1084 1153 LINE"
);
}
);
width = 1116.125;
},
{
anchors = (
{
name = bottom;
position = "{531, 10}";
},
{
name = bottom_dd;
position = "{1132, -407}";
},
{
name = cross;
position = "{333, 337}";
},
{
name = top;
position = "{619, 1612}";
},
{
name = top0315;
position = "{1132, 1612}";
},
{
name = top_dd;
position = "{1132, 1600}";
}
);
layerId = "275CACE8-FD52-4067-B7BC-43A450B7EDC9";
paths = (
{
closed = 1;
nodes = (
"363 1456 LINE",
"169 1456 LINE",
"169 0 LINE",
"363 0 LINE"
);
},
{
closed = 1;
nodes = (
"972 800 LINE",
"321 800 LINE",
"321 644 LINE",
"972 644 LINE"
);
},
{
closed = 1;
nodes = (
"1071 1456 LINE",
"321 1456 LINE",
"321 1299 LINE",
"1071 1299 LINE"
);
}
);
width = 1131.96;
}
);
unicode = 0046;
},
{
glyphname = G;
layers = (
{
anchors = (
{
name = bottom;
position = "{729, 0}";
},
{
name = bottom_dd;
position = "{1406, -407}";
},
{
name = top;
position = "{703, 1633}";
},
{
name = top0315;
position = "{1406, 1633}";
},
{
name = top_dd;
position = "{1406, 1600}";
}
);
guideLines = (
{
position = "{0, 901}";
},
{
position = "{0, 555}";
}
);
layerId = "445B0B85-2678-4800-8A4D-B1A9856CF63B";
paths = (
{
closed = 1;
nodes = (
"1226 660 LINE",
"727 660 LINE",
"727 605 LINE",
"1172 605 LINE",
"1172 181 LINE",
"1127 122 OFFCURVE",
"967 34 OFFCURVE",
"729 34 CURVE SMOOTH",
"421 34 OFFCURVE",
"222 277 OFFCURVE",
"222 620 CURVE SMOOTH",
"222 860 LINE SMOOTH",
"222 1188 OFFCURVE",
"415 1422 OFFCURVE",
"712 1422 CURVE SMOOTH",
"1015 1422 OFFCURVE",
"1140 1252 OFFCURVE",
"1170 1062 CURVE",
"1224 1062 LINE",
"1197 1295 OFFCURVE",
"1027 1476 OFFCURVE",
"712 1476 CURVE SMOOTH",
"391 1476 OFFCURVE",
"168 1225 OFFCURVE",
"168 858 CURVE SMOOTH",
"168 620 LINE SMOOTH",
"168 240 OFFCURVE",
"397 -20 OFFCURVE",
"729 -20 CURVE SMOOTH",
"1013 -20 OFFCURVE",
"1179 90 OFFCURVE",
"1226 156 CURVE"
);
}
);
width = 1406;
},
{
anchors = (
{
name = bottom;
position = "{730, -10}";
},
{
name = bottom_dd;
position = "{1394, -407}";
},
{
name = top;
position = "{668, 1633}";
},
{
name = top0315;
position = "{1394, 1633}";
},
{
name = top_dd;
position = "{1394, 1600}";
}
);
guideLines = (
{
position = "{0, 901}";
},
{
position = "{0, 555}";
}
);
layerId = "3A1161A8-2FC1-4350-92D1-D5E808DF9456";
paths = (
{
closed = 1;
nodes = (
"1247 731 LINE",
"715 731 LINE",
"715 566 LINE",
"1040 566 LINE",
"1040 248 LINE",
"1002 206 OFFCURVE",
"934 146 OFFCURVE",
"731 146 CURVE SMOOTH",
"489 146 OFFCURVE",
"326 341 OFFCURVE",
"326 676 CURVE SMOOTH",
"326 781 LINE SMOOTH",
"326 1108 OFFCURVE",
"440 1309 OFFCURVE",
"708 1309 CURVE SMOOTH",
"922 1309 OFFCURVE",
"1012 1181 OFFCURVE",
"1039 1027 CURVE",
"1247 1027 LINE",
"1209 1287 OFFCURVE",
"1042 1476 OFFCURVE",
"707 1476 CURVE SMOOTH",
"325 1476 OFFCURVE",
"117 1219 OFFCURVE",
"117 779 CURVE SMOOTH",
"117 676 LINE SMOOTH",
"117 236 OFFCURVE",
"373 -20 OFFCURVE",
"730 -20 CURVE SMOOTH",
"1061 -20 OFFCURVE",
"1191 114 OFFCURVE",
"1247 195 CURVE"
);
}
);
width = 1394;
},
{
anchors = (
{
name = bottom;
position = "{725, 2}";
},
{
name = bottom_dd;
position = "{1396, -407}";
},
{
name = top;
position = "{711, 1593}";
},
{
name = top0315;
position = "{1396, 1593}";
},
{
name = top_dd;
position = "{1396, 1600}";
}
);
layerId = "20EE6398-45C7-446F-8F4E-C33CF1AD7937";
paths = (
{
closed = 1;
nodes = (
"1309 794 LINE",
"706 794 LINE",
"706 528 LINE",
"933 528 LINE",
"933 330 LINE",
"906 308 OFFCURVE",
"851 282 OFFCURVE",
"750 282 CURVE SMOOTH",
"543 282 OFFCURVE",
"456 413 OFFCURVE",
"456 694 CURVE SMOOTH",
"456 762 LINE SMOOTH",
"456 1047 OFFCURVE",
"558 1176 OFFCURVE",
"716 1176 CURVE SMOOTH",
"867 1176 OFFCURVE",
"928 1107 OFFCURVE",
"947 968 CURVE",
"1308 968 LINE",
"1279 1268 OFFCURVE",
"1112 1477 OFFCURVE",
"703 1477 CURVE SMOOTH",
"338 1477 OFFCURVE",
"75 1221 OFFCURVE",
"75 760 CURVE SMOOTH",
"75 694 LINE SMOOTH",
"75 233 OFFCURVE",
"331 -20 OFFCURVE",
"723 -20 CURVE SMOOTH",
"1039 -20 OFFCURVE",
"1231 96 OFFCURVE",
"1309 180 CURVE"
);
}
);
width = 1395.55;
},
{
anchors = (
{
name = bottom;
position = "{730, -9}";
},
{
name = bottom_dd;
position = "{1395, -407}";
},
{
name = top;
position = "{671, 1633}";
},
{
name = top0315;
position = "{1395, 1633}";
},
{
name = top_dd;
position = "{1395, 1600}";
}
);
layerId = "275CACE8-FD52-4067-B7BC-43A450B7EDC9";
paths = (
{
closed = 1;
nodes = (
"1245 725 LINE",
"716 725 LINE",
"716 570 LINE",
"1052 570 LINE",
"1052 242 LINE",
"1013 198 OFFCURVE",
"937 136 OFFCURVE",
"731 136 CURVE SMOOTH",
"483 136 OFFCURVE",
"317 335 OFFCURVE",
"317 671 CURVE SMOOTH",
"317 788 LINE SMOOTH",
"317 1115 OFFCURVE",
"438 1319 OFFCURVE",
"708 1319 CURVE SMOOTH",
"930 1319 OFFCURVE",
"1024 1187 OFFCURVE",
"1051 1030 CURVE",
"1245 1030 LINE",
"1208 1288 OFFCURVE",
"1041 1476 OFFCURVE",
"707 1476 CURVE SMOOTH",
"331 1476 OFFCURVE",
"122 1220 OFFCURVE",
"122 786 CURVE SMOOTH",
"122 671 LINE SMOOTH",
"122 236 OFFCURVE",
"375 -20 OFFCURVE",
"730 -20 CURVE SMOOTH",
"1057 -20 OFFCURVE",
"1190 112 OFFCURVE",
"1245 191 CURVE"
);
}
);
width = 1395.08;
}
);
unicode = 0047;
userData = {
com.typemytype.robofont.guides = (
{
angle = 0;
isGlobal = 0;
magnetic = 5;
x = 0;
y = 901;
},
{
angle = 0;
isGlobal = 0;
magnetic = 5;
x = 0;
y = 555;
}
);
};
},
{
glyphname = H;
layers = (
{
anchors = (
{
name = bottom;
position = "{716, 10}";
},
{
name = bottom_dd;
position = "{1438, -407}";
},
{
name = right;
position = "{1238, 0}";
},
{
name = tonos;
position = "{-58, 1457}";
},
{
name = top;
position = "{716, 1612}";
},
{
name = top0315;
position = "{1438, 1612}";
},
{
name = top_dd;
position = "{1438, 1600}";
}
);
layerId = "445B0B85-2678-4800-8A4D-B1A9856CF63B";
paths = (
{
closed = 1;
nodes = (
"1207 776 LINE",
"227 776 LINE",
"227 722 LINE",
"1207 722 LINE"
);
},
{
closed = 1;
nodes = (
"254 1456 LINE",
"200 1456 LINE",
"200 0 LINE",
"254 0 LINE"
);
},
{
closed = 1;
nodes = (
"1238 1456 LINE",
"1184 1456 LINE",
"1184 0 LINE",
"1238 0 LINE"
);
}
);
width = 1438;
},
{
anchors = (
{
name = bottom;
position = "{714, 10}";
},
{
name = bottom_dd;
position = "{1463, -407}";
},
{
name = right;
position = "{1293, 0}";
},
{
name = tonos;
position = "{-25, 1457}";
},
{
name = top;
position = "{712, 1612}";
},
{
name = top0315;
position = "{1463, 1612}";
},
{
name = top_dd;
position = "{1463, 1600}";
}
);
layerId = "3A1161A8-2FC1-4350-92D1-D5E808DF9456";
paths = (
{
closed = 1;
nodes = (
"1110 835 LINE",
"344 835 LINE",
"344 669 LINE",
"1110 669 LINE"
);
},
{
closed = 1;
nodes = (
"374 1456 LINE",
"166 1456 LINE",
"166 0 LINE",
"374 0 LINE"
);
},
{
closed = 1;
nodes = (
"1294 1456 LINE",
"1086 1456 LINE",
"1086 0 LINE",
"1294 0 LINE"
);
}
);
width = 1463;
},
{
anchors = (
{
name = bottom;
position = "{732, 10}";
},
{
name = bottom_dd;
position = "{1439, -407}";
},
{
name = right;
position = "{1333, 0}";
},
{
name = tonos;
position = "{-114, 1450}";
},
{
name = top;
position = "{729, 1597}";
},
{
name = top0315;
position = "{1439, 1597}";
},
{
name = top_dd;
position = "{1439, 1600}";
}
);
layerId = "20EE6398-45C7-446F-8F4E-C33CF1AD7937";
paths = (
{
closed = 1;
nodes = (
"1083 892 LINE",
"354 892 LINE",
"354 590 LINE",
"1083 590 LINE"
);
},
{
closed = 1;
nodes = (
"479 1456 LINE",
"103 1456 LINE",
"103 0 LINE",
"479 0 LINE"
);
},
{
closed = 1;
nodes = (
"1335 1456 LINE",
"961 1456 LINE",
"961 0 LINE",
"1335 0 LINE"
);
}
);
width = 1439.15;
},
{
anchors = (
{
name = bottom;
position = "{714, 10}";
},
{
name = bottom_dd;
position = "{1461, -407}";
},
{
name = right;
position = "{1288, 0}";
},
{
name = tonos;
position = "{-28, 1457}";
},
{
name = top;
position = "{712, 1612}";
},
{
name = top0315;
position = "{1461, 1612}";
},
{
name = top_dd;
position = "{1461, 1600}";
}
);
layerId = "275CACE8-FD52-4067-B7BC-43A450B7EDC9";
paths = (
{
closed = 1;
nodes = (
"1119 830 LINE",
"333 830 LINE",
"333 674 LINE",
"1119 674 LINE"
);
},
{
closed = 1;
nodes = (
"363 1456 LINE",
"169 1456 LINE",
"169 0 LINE",
"363 0 LINE"
);
},
{
closed = 1;
nodes = (
"1289 1456 LINE",
"1095 1456 LINE",
"1095 0 LINE",
"1289 0 LINE"
);
}
);
width = 1460.75;
}
);
unicode = 0048;
},
{
glyphname = I;
layers = (
{
anchors = (
{
name = bottom;
position = "{268, 0}";
},
{
name = bottom_dd;
position = "{534, -407}";
},
{
name = ogonek;
position = "{288, 0}";
},
{
name = right;
position = "{294, 0}";
},
{
name = tonos;
position = "{-32, 1451}";
},
{
name = top;
position = "{268, 1612}";
},
{
name = top0315;
position = "{534, 1612}";
},
{
name = top_dd;
position = "{534, 1600}";
}
);
guideLines = (
{
position = "{0, 901}";
},
{
position = "{0, 555}";
}
);
layerId = "445B0B85-2678-4800-8A4D-B1A9856CF63B";
paths = (
{
closed = 1;
nodes = (
"294 1456 LINE",
"240 1456 LINE",
"240 0 LINE",
"294 0 LINE"
);
}
);
width = 534;
},
{
anchors = (
{
name = bottom;
position = "{280, 10}";
},
{
name = bottom_dd;
position = "{560, -407}";
},
{
name = ogonek;
position = "{347, 0}";
},
{
name = right;
position = "{380, 0}";
},
{
name = tonos;
position = "{-21, 1457}";
},
{
name = top;
position = "{280, 1612}";
},
{
name = top0315;
position = "{560, 1612}";
},
{
name = top_dd;
position = "{560, 1600}";
}
);
guideLines = (
{
position = "{0, 901}";
},
{
position = "{0, 555}";
}
);
layerId = "3A1161A8-2FC1-4350-92D1-D5E808DF9456";
paths = (
{
closed = 1;
nodes = (
"385 1456 LINE",
"177 1456 LINE",
"177 0 LINE",
"385 0 LINE"
);
}
);
width = 560;
},
{
anchors = (
{
name = bottom;
position = "{313, -2}";
},
{
name = bottom_dd;
position = "{626, -407}";
},
{
name = ogonek;
position = "{424, 0}";
},
{
name = right;
position = "{491, 0}";
},
{
name = tonos;
position = "{-117, 1457}";
},
{
name = top;
position = "{312, 1597}";
},
{
name = top0315;
position = "{626, 1597}";
},
{
name = top_dd;
position = "{626, 1600}";
}
);
layerId = "20EE6398-45C7-446F-8F4E-C33CF1AD7937";
paths = (
{
closed = 1;
nodes = (
"500 1456 LINE",
"126 1456 LINE",
"126 0 LINE",
"500 0 LINE"
);
}
);
width = 625.65;
},
{
anchors = (
{
name = bottom;
position = "{279, 9}";
},
{
name = bottom_dd;
position = "{558, -407}";
},
{
name = ogonek;
position = "{342, 0}";
},
{
name = right;
position = "{372, 0}";
},
{
name = tonos;
position = "{-22, 1456}";
},
{
name = top;
position = "{279, 1612}";
},
{
name = top0315;
position = "{558, 1612}";
},
{
name = top_dd;
position = "{558, 1600}";
}
);
layerId = "275CACE8-FD52-4067-B7BC-43A450B7EDC9";
paths = (
{
closed = 1;
nodes = (
"377 1456 LINE",
"183 1456 LINE",
"183 0 LINE",
"377 0 LINE"
);
}
);
width = 557.66;
}
);
unicode = 0049;
userData = {
com.typemytype.robofont.guides = (
{
angle = 0;
isGlobal = 0;
magnetic = 5;
x = 0;
y = 901;
},
{
angle = 0;
isGlobal = 0;
magnetic = 5;
x = 0;
y = 555;
}
);
};
},
{
glyphname = J;
layers = (
{
anchors = (
{
name = bottom;
position = "{512, -10}";
},
{
name = bottom_dd;
position = "{1125, -407}";
},
{
name = top;
position = "{902, 1582}";
},
{
name = top0315;
position = "{1125, 1582}";
},
{
name = top_dd;
position = "{1125, 1600}";
}
);
guideLines = (
{
position = "{0, 901}";
},
{
position = "{0, 555}";
}
);
layerId = "445B0B85-2678-4800-8A4D-B1A9856CF63B";
paths = (
{
closed = 1;
nodes = (
"876 442 LINE",
"876 173 OFFCURVE",
"710 34 OFFCURVE",
"510 34 CURVE SMOOTH",
"267 34 OFFCURVE",
"144 165 OFFCURVE",
"144 401 CURVE",
"90 401 LINE",
"90 116 OFFCURVE",
"253 -20 OFFCURVE",
"510 -20 CURVE SMOOTH",
"747 -20 OFFCURVE",
"930 143 OFFCURVE",
"930 442 CURVE",
"930 1456 LINE",
"876 1456 LINE"
);
}
);
width = 1125;
},
{
anchors = (
{
name = bottom;
position = "{512, -10}";
},
{
name = bottom_dd;
position = "{1131, -407}";
},
{
name = top;
position = "{846, 1601}";
},
{
name = top0315;
position = "{1131, 1601}";
},
{
name = top_dd;
position = "{1131, 1600}";
}
);
guideLines = (
{
position = "{0, 901}";
},
{
position = "{0, 555}";
}
);
layerId = "3A1161A8-2FC1-4350-92D1-D5E808DF9456";
paths = (
{
closed = 1;
nodes = (
"769 424 LINE",
"769 242 OFFCURVE",
"660 146 OFFCURVE",
"513 146 CURVE SMOOTH",
"366 146 OFFCURVE",
"257 224 OFFCURVE",
"257 403 CURVE",
"49 403 LINE",
"49 116 OFFCURVE",
"244 -20 OFFCURVE",
"513 -20 CURVE SMOOTH",
"784 -20 OFFCURVE",
"977 136 OFFCURVE",
"977 424 CURVE",
"977 1456 LINE",
"769 1456 LINE"
);
}
);
width = 1131;
},
{
anchors = (
{
name = bottom;
position = "{512, -10}";
},
{
name = bottom_dd;
position = "{1154, -407}";
},
{
name = top;
position = "{857, 1601}";
},
{
name = top0315;
position = "{1154, 1601}";
},
{
name = top_dd;
position = "{1154, 1600}";
}
);
layerId = "20EE6398-45C7-446F-8F4E-C33CF1AD7937";
paths = (
{
closed = 1;
nodes = (
"675 463 LINE",
"675 351 OFFCURVE",
"629 282 OFFCURVE",
"541 282 CURVE SMOOTH",
"456 282 OFFCURVE",
"409 312 OFFCURVE",
"409 448 CURVE",
"32 448 LINE",
"32 126 OFFCURVE",
"246 -20 OFFCURVE",
"541 -20 CURVE SMOOTH",
"826 -20 OFFCURVE",
"1049 171 OFFCURVE",
"1049 463 CURVE",
"1049 1456 LINE",
"675 1456 LINE"
);
}
);
width = 1153.5;
},
{
anchors = (
{
name = bottom;
position = "{512, -10}";
},
{
name = bottom_dd;
position = "{1130, -407}";
},
{
name = top;
position = "{851, 1599}";
},
{
name = top0315;
position = "{1130, 1599}";
},
{
name = top_dd;
position = "{1130, 1600}";
}
);
layerId = "275CACE8-FD52-4067-B7BC-43A450B7EDC9";
paths = (
{
closed = 1;
nodes = (
"779 426 LINE",
"779 236 OFFCURVE",
"665 136 OFFCURVE",
"513 136 CURVE SMOOTH",
"357 136 OFFCURVE",
"247 219 OFFCURVE",
"247 403 CURVE",
"53 403 LINE",
"53 116 OFFCURVE",
"245 -20 OFFCURVE",
"513 -20 CURVE SMOOTH",
"781 -20 OFFCURVE",
"973 137 OFFCURVE",
"973 426 CURVE",
"973 1456 LINE",
"779 1456 LINE"
);
}
);
width = 1130.46;
}
);
unicode = 004A;
userData = {
com.typemytype.robofont.guides = (
{
angle = 0;
isGlobal = 0;
magnetic = 5;
x = 0;
y = 901;
},
{
angle = 0;
isGlobal = 0;
magnetic = 5;
x = 0;
y = 555;
}
);
};
},
{
glyphname = K;
layers = (
{
anchors = (
{
name = bottom;
position = "{623, 110}";
},
{
name = bottom_dd;
position = "{1300, -407}";
},
{
name = cross;
position = "{273, 1229}";
},
{
name = right;
position = "{1180, -30}";
},
{
name = top;
position = "{602, 1524}";
},
{
name = top0315;
position = "{1300, 1524}";
},
{
name = top_dd;
position = "{1300, 1600}";
}
);
layerId = "445B0B85-2678-4800-8A4D-B1A9856CF63B";
paths = (
{
closed = 1;
nodes = (
"254 1456 LINE",
"200 1456 LINE",
"200 0 LINE",
"254 0 LINE"
);
},
{
closed = 1;
nodes = (
"1176 1456 LINE",
"1098 1456 LINE",
"492 847 LINE",
"240 601 LINE",
"232 531 LINE",
"525 801 LINE"
);
},
{
closed = 1;
nodes = (
"1156 0 LINE",
"1226 0 LINE",
"503 832 LINE",
"470 785 LINE"
);
}
);
width = 1300;
},
{
anchors = (
{
name = bottom;
position = "{664, 88}";
},
{
name = bottom_dd;
position = "{1283, -407}";
},
{
name = cross;
position = "{276, 1229}";
},
{
name = right;
position = "{1228, 0}";
},
{
name = top;
position = "{605, 1601}";
},
{
name = top0315;
position = "{1283, 1601}";
},
{
name = top_dd;
position = "{1283, 1600}";
}
);
layerId = "3A1161A8-2FC1-4350-92D1-D5E808DF9456";
paths = (
{
closed = 1;
nodes = (
"374 1456 LINE",
"166 1456 LINE",
"166 0 LINE",
"374 0 LINE"
);
},
{
closed = 1;
nodes = (
"1248 1456 LINE",
"999 1456 LINE",
"523 918 LINE",
"267 632 LINE",
"303 415 LINE",
"648 775 LINE"
);
},
{
closed = 1;
nodes = (
"1044 0 LINE",
"1292 0 LINE",
"645 866 LINE",
"521 703 LINE"
);
}
);
width = 1283;
},
{
anchors = (
{
name = bottom;
position = "{647, 43}";
},
{
name = bottom_dd;
position = "{1311, -407}";
},
{
name = cross;
position = "{242, 1224}";
},
{
name = right;
position = "{1195, 2}";
},
{
name = top;
position = "{592, 1606}";
},
{
name = top0315;
position = "{1311, 1606}";
},
{
name = top_dd;
position = "{1311, 1600}";
}
);
layerId = "20EE6398-45C7-446F-8F4E-C33CF1AD7937";
paths = (
{
closed = 1;
nodes = (
"479 1456 LINE",
"103 1456 LINE",
"103 0 LINE",
"479 0 LINE"
);
},
{
closed = 1;
nodes = (
"1344 1456 LINE",
"881 1456 LINE",
"591 1023 LINE",
"384 692 LINE",
"454 335 LINE",
"787 703 LINE"
);
},
{
closed = 1;
nodes = (
"896 0 LINE",
"1340 0 LINE",
"838 858 LINE",
"546 639 LINE"
);
}
);
width = 1311.125;
},
{
anchors = (
{
name = bottom;
position = "{660, 90}";
},
{
name = bottom_dd;
position = "{1285, -407}";
},
{
name = cross;
position = "{276, 1229}";
},
{
name = right;
position = "{1224, -3}";
},
{
name = top;
position = "{605, 1594}";
},
{
name = top0315;
position = "{1285, 1594}";
},
{
name = top_dd;
position = "{1285, 1600}";
}
);
layerId = "275CACE8-FD52-4067-B7BC-43A450B7EDC9";
paths = (
{
closed = 1;
nodes = (
"363 1456 LINE",
"169 1456 LINE",
"169 0 LINE",
"363 0 LINE"
);
},
{
closed = 1;
nodes = (
"1242 1456 LINE",
"1008 1456 LINE",
"520 912 LINE",
"265 629 LINE",
"297 425 LINE",
"637 777 LINE"
);
},
{
closed = 1;
nodes = (
"1054 0 LINE",
"1286 0 LINE",
"632 863 LINE",
"516 710 LINE"
);
}
);
width = 1284.53;
}
);
unicode = 004B;
},
{
glyphname = L;
layers = (
{
anchors = (
{
name = bottom;
position = "{625, 10}";
},
{
name = bottom_dd;
position = "{1057, -407}";
},
{
name = caron;
position = "{568, 1455}";
},
{
name = dot;
position = "{601, 755}";
},
{
name = top;
position = "{232, 1549}";
},
{
name = top0315;
position = "{1057, 1549}";
},
{
name = top_dd;
position = "{1057, 1600}";
}
);
layerId = "445B0B85-2678-4800-8A4D-B1A9856CF63B";
paths = (
{
closed = 1;
nodes = (
"1002 54 LINE",
"220 54 LINE",
"220 0 LINE",
"1002 0 LINE"
);
},
{
closed = 1;
nodes = (
"255 1456 LINE",
"200 1456 LINE",
"200 0 LINE",
"255 0 LINE"
);
}
);
width = 1057;
},
{
anchors = (
{
name = bottom;
position = "{619, 10}";
},
{
name = bottom_dd;
position = "{1108, -407}";
},
{
name = caron;
position = "{608, 1455}";
},
{
name = dot;
position = "{600, 794}";
},
{
name = top;
position = "{267, 1600}";
},
{
name = top0315;
position = "{1108, 1600}";
},
{
name = top_dd;
position = "{1108, 1600}";
}
);
layerId = "3A1161A8-2FC1-4350-92D1-D5E808DF9456";
paths = (
{
closed = 1;
nodes = (
"1058 166 LINE",
"335 166 LINE",
"335 0 LINE",
"1058 0 LINE"
);
},
{
closed = 1;
nodes = (
"374 1456 LINE",
"166 1456 LINE",
"166 0 LINE",
"374 0 LINE"
);
}
);
width = 1108;
},
{
anchors = (
{
name = bottom;
position = "{589, 10}";
},
{
name = bottom_dd;
position = "{1114, -407}";
},
{
name = caron;
position = "{692, 1456}";
},
{
name = dot;
position = "{599, 863}";
},
{
name = top;
position = "{303, 1604}";
},
{
name = top0315;
position = "{1114, 1604}";
},
{
name = top_dd;
position = "{1114, 1600}";
}
);
layerId = "20EE6398-45C7-446F-8F4E-C33CF1AD7937";
paths = (
{
closed = 1;
nodes = (
"1078 302 LINE",
"346 302 LINE",
"346 0 LINE",
"1078 0 LINE"
);
},
{
closed = 1;
nodes = (
"478 1456 LINE",
"103 1456 LINE",
"103 0 LINE",
"478 0 LINE"
);
}
);
width = 1114.275;
},
{
anchors = (
{
name = bottom;
position = "{620, 10}";
},
{
name = bottom_dd;
position = "{1103, -407}";
},
{
name = caron;
position = "{604, 1455}";
},
{
name = dot;
position = "{600, 790}";
},
{
name = top;
position = "{264, 1595}";
},
{
name = top0315;
position = "{1103, 1595}";
},
{
name = top_dd;
position = "{1103, 1600}";
}
);
layerId = "275CACE8-FD52-4067-B7BC-43A450B7EDC9";
paths = (
{
closed = 1;
nodes = (
"1053 156 LINE",
"325 156 LINE",
"325 0 LINE",
"1053 0 LINE"
);
},
{
closed = 1;
nodes = (
"363 1456 LINE",
"169 1456 LINE",
"169 0 LINE",
"363 0 LINE"
);
}
);
width = 1103.41;
}
);
unicode = 004C;
},
{
glyphname = M;
layers = (
{
anchors = (
{
name = bottom;
position = "{879, 10}";
},
{
name = bottom_dd;
position = "{1756, -407}";
},
{
name = right;
position = "{1556, 0}";
},
{
name = top;
position = "{890, 1612}";
},
{
name = top0315;
position = "{1756, 1612}";
},
{
name = top_dd;
position = "{1756, 1600}";
}
);
layerId = "445B0B85-2678-4800-8A4D-B1A9856CF63B";
paths = (
{
closed = 1;
nodes = (
"216 1456 LINE",
"855 0 LINE",
"898 0 LINE",
"1537 1456 LINE",
"1477 1456 LINE",
"876 79 LINE",
"277 1456 LINE"
);
},
{
closed = 1;
nodes = (
"200 1456 LINE",
"200 0 LINE",
"254 0 LINE",
"254 703 LINE",
"254 1456 LINE"
);
},
{
closed = 1;
nodes = (
"1502 1456 LINE",
"1502 703 LINE",
"1502 0 LINE",
"1556 0 LINE",
"1556 1456 LINE"
);
}
);
width = 1756;
},
{
anchors = (
{
name = bottom;
position = "{895, 10}";
},
{
name = bottom_dd;
position = "{1792, -407}";
},
{
name = right;
position = "{1610, 0}";
},
{
name = top;
position = "{890, 1600}";
},
{
name = top0315;
position = "{1792, 1600}";
},
{
name = top_dd;
position = "{1792, 1600}";
}
);
layerId = "3A1161A8-2FC1-4350-92D1-D5E808DF9456";
paths = (
{
closed = 1;
nodes = (
"231 1456 LINE",
"816 0 LINE",
"974 0 LINE",
"1560 1456 LINE",
"1358 1456 LINE",
"896 285 LINE",
"433 1456 LINE"
);
},
{
closed = 1;
nodes = (
"166 1456 LINE",
"166 0 LINE",
"373 0 LINE",
"373 556 LINE",
"343 1456 LINE"
);
},
{
closed = 1;
nodes = (
"1448 1456 LINE",
"1418 556 LINE",
"1418 0 LINE",
"1625 0 LINE",
"1625 1456 LINE"
);
}
);
width = 1792;
},
{
anchors = (
{
name = bottom;
position = "{897, 10}";
},
{
name = bottom_dd;
position = "{1798, -407}";
},
{
name = right;
position = "{1691, 0}";
},
{
name = top;
position = "{894, 1599}";
},
{
name = top0315;
position = "{1798, 1599}";
},
{
name = top_dd;
position = "{1798, 1600}";
}
);
layerId = "20EE6398-45C7-446F-8F4E-C33CF1AD7937";
paths = (
{
closed = 1;
nodes = (
"291 1456 LINE",
"774 0 LINE",
"1021 0 LINE",
"1504 1456 LINE",
"1200 1456 LINE",
"898 494 LINE",
"595 1456 LINE"
);
},
{
closed = 1;
nodes = (
"103 1456 LINE",
"103 0 LINE",
"479 0 LINE",
"479 280 LINE",
"420 1456 LINE"
);
},
{
closed = 1;
nodes = (
"1375 1456 LINE",
"1316 280 LINE",
"1316 0 LINE",
"1693 0 LINE",
"1693 1456 LINE"
);
}
);
width = 1798.375;
},
{
anchors = (
{
name = bottom;
position = "{894, 10}";
},
{
name = bottom_dd;
position = "{1789, -407}";
},
{
name = right;
position = "{1605, 0}";
},
{
name = top;
position = "{890, 1601}";
},
{
name = top0315;
position = "{1789, 1601}";
},
{
name = top_dd;
position = "{1789, 1600}";
}
);
layerId = "275CACE8-FD52-4067-B7BC-43A450B7EDC9";
paths = (
{
closed = 1;
nodes = (
"230 1456 LINE",
"820 0 LINE",
"967 0 LINE",
"1558 1456 LINE",
"1369 1456 LINE",
"894 266 LINE",
"419 1456 LINE"
);
},
{
closed = 1;
nodes = (
"169 1456 LINE",
"169 0 LINE",
"362 0 LINE",
"362 569 LINE",
"335 1456 LINE"
);
},
{
closed = 1;
nodes = (
"1453 1456 LINE",
"1426 569 LINE",
"1426 0 LINE",
"1619 0 LINE",
"1619 1456 LINE"
);
}
);
width = 1788.76;
}
);
unicode = 004D;
},
{
glyphname = N;
layers = (
{
anchors = (
{
name = bottom;
position = "{726, 10}";
},
{
name = bottom_dd;
position = "{1449, -407}";
},
{
name = right;
position = "{1249, 0}";
},
{
name = top;
position = "{726, 1612}";
},
{
name = top0315;
position = "{1449, 1612}";
},
{
name = top_dd;
position = "{1449, 1600}";
}
);
layerId = "445B0B85-2678-4800-8A4D-B1A9856CF63B";
paths = (
{
closed = 1;
nodes = (
"1249 1456 LINE",
"1195 1456 LINE",
"1195 95 LINE",
"255 1456 LINE",
"200 1456 LINE",
"200 0 LINE",
"255 0 LINE",
"255 1364 LINE",
"1195 0 LINE",
"1249 0 LINE"
);
}
);
width = 1449;
},
{
anchors = (
{
name = bottom;
position = "{719, 10}";
},
{
name = bottom_dd;
position = "{1462, -407}";
},
{
name = right;
position = "{1292, 0}";
},
{
name = top;
position = "{726, 1600}";
},
{
name = top0315;
position = "{1462, 1600}";
},
{
name = top_dd;
position = "{1462, 1600}";
}
);
layerId = "3A1161A8-2FC1-4350-92D1-D5E808DF9456";
paths = (
{
closed = 1;
nodes = (
"1293 1456 LINE",
"1087 1456 LINE",
"1087 350 LINE",
"374 1456 LINE",
"166 1456 LINE",
"166 0 LINE",
"374 0 LINE",
"374 1102 LINE",
"1084 0 LINE",
"1293 0 LINE"
);
}
);
width = 1462;
},
{
anchors = (
{
name = bottom;
position = "{727, -2}";
},
{
name = bottom_dd;
position = "{1437, -407}";
},
{
name = right;
position = "{1331, 0}";
},
{
name = top;
position = "{726, 1599}";
},
{
name = top0315;
position = "{1437, 1599}";
},
{
name = top_dd;
position = "{1437, 1600}";
}
);
layerId = "20EE6398-45C7-446F-8F4E-C33CF1AD7937";
paths = (
{
closed = 1;
nodes = (
"1333 1456 LINE",
"959 1456 LINE",
"959 614 LINE",
"478 1456 LINE",
"103 1456 LINE",
"103 0 LINE",
"478 0 LINE",
"478 842 LINE",
"959 0 LINE",
"1333 0 LINE"
);
}
);
width = 1437.25;
},
{
anchors = (
{
name = bottom;
position = "{720, 10}";
},
{
name = bottom_dd;
position = "{1461, -407}";
},
{
name = right;
position = "{1288, 0}";
},
{
name = top;
position = "{726, 1601}";
},
{
name = top0315;
position = "{1461, 1601}";
},
{
name = top_dd;
position = "{1461, 1600}";
}
);
layerId = "275CACE8-FD52-4067-B7BC-43A450B7EDC9";
paths = (
{
closed = 1;
nodes = (
"1289 1456 LINE",
"1097 1456 LINE",
"1097 327 LINE",
"363 1456 LINE",
"169 1456 LINE",
"169 0 LINE",
"363 0 LINE",
"363 1126 LINE",
"1094 0 LINE",
"1289 0 LINE"
);
}
);
width = 1460.83;
}
);
unicode = 004E;
},
{
glyphname = O;
layers = (
{
anchors = (
{
name = bottom;
position = "{683, -2}";
},
{
name = bottom_dd;
position = "{1364, -407}";
},
{
name = tonos;
position = "{130, 1454}";
},
{
name = top;
position = "{676, 1633}";
},
{
name = top0315;
position = "{1364, 1633}";
},
{
name = top_dd;
position = "{1364, 1600}";
}
);
guideLines = (
{
position = "{0, 901}";
},
{
position = "{0, 555}";
}
);
layerId = "445B0B85-2678-4800-8A4D-B1A9856CF63B";
paths = (
{
closed = 1;
nodes = (
"1231 837 LINE",
"1231 1217 OFFCURVE",
"1016 1476 OFFCURVE",
"681 1476 CURVE SMOOTH",
"347 1476 OFFCURVE",
"133 1217 OFFCURVE",
"133 837 CURVE",
"133 619 LINE",
"133 239 OFFCURVE",
"349 -20 OFFCURVE",
"683 -20 CURVE SMOOTH",
"1018 -20 OFFCURVE",
"1231 239 OFFCURVE",
"1231 619 CURVE"
);
},
{
closed = 1;
nodes = (
"1177 619 LINE",
"1177 276 OFFCURVE",
"997 34 OFFCURVE",
"683 34 CURVE SMOOTH",
"371 34 OFFCURVE",
"188 276 OFFCURVE",
"188 619 CURVE SMOOTH",
"188 839 LINE SMOOTH",
"188 1180 OFFCURVE",
"369 1422 OFFCURVE",
"681 1422 CURVE SMOOTH",
"995 1422 OFFCURVE",
"1177 1180 OFFCURVE",
"1177 839 CURVE"
);
}
);
width = 1364;
},
{
anchors = (
{
name = bottom;
position = "{710, 0}";
},
{
name = bottom_dd;
position = "{1414, -407}";
},
{
name = tonos;
position = "{150, 1454}";
},
{
name = top;
position = "{710, 1600}";
},
{
name = top0315;
position = "{1414, 1600}";
},
{
name = top_dd;
position = "{1414, 1600}";
}
);
guideLines = (
{
position = "{0, 901}";
},
{
position = "{0, 555}";
},
{
angle = 90;
position = "{748, 0}";
}
);
layerId = "3A1161A8-2FC1-4350-92D1-D5E808DF9456";
paths = (
{
closed = 1;
nodes = (
"1296 768 LINE",
"1296 1209 OFFCURVE",
"1063 1476 OFFCURVE",
"706 1476 CURVE SMOOTH",
"360 1476 OFFCURVE",
"117 1209 OFFCURVE",
"117 768 CURVE",
"117 687 LINE",
"117 246 OFFCURVE",
"362 -20 OFFCURVE",
"708 -20 CURVE SMOOTH",
"1065 -20 OFFCURVE",
"1296 246 OFFCURVE",
"1296 687 CURVE"
);
},
{
closed = 1;
nodes = (
"1090 687 LINE",
"1090 338 OFFCURVE",
"952 153 OFFCURVE",
"708 153 CURVE SMOOTH",
"478 153 OFFCURVE",
"323 338 OFFCURVE",
"323 687 CURVE SMOOTH",
"323 770 LINE SMOOTH",
"323 1117 OFFCURVE",
"476 1302 OFFCURVE",
"706 1302 CURVE SMOOTH",
"948 1302 OFFCURVE",
"1090 1117 OFFCURVE",
"1090 770 CURVE"
);
}
);
width = 1414;
},
{
anchors = (
{
name = bottom;
position = "{714, 0}";
},
{
name = bottom_dd;
position = "{1418, -407}";
},
{
name = tonos;
position = "{90, 1454}";
},
{
name = top;
position = "{706, 1598}";
},
{
name = top0315;
position = "{1418, 1598}";
},
{
name = top_dd;
position = "{1418, 1600}";
}
);
layerId = "20EE6398-45C7-446F-8F4E-C33CF1AD7937";
paths = (
{
closed = 1;
nodes = (
"1352 749 LINE",
"1352 1200 OFFCURVE",
"1082 1476 OFFCURVE",
"708 1476 CURVE SMOOTH",
"329 1476 OFFCURVE",
"64 1200 OFFCURVE",
"64 749 CURVE",
"64 706 LINE",
"64 255 OFFCURVE",
"331 -20 OFFCURVE",
"710 -20 CURVE SMOOTH",
"1084 -20 OFFCURVE",
"1352 255 OFFCURVE",
"1352 706 CURVE"
);
},
{
closed = 1;
nodes = (
"971 706 LINE",
"971 435 OFFCURVE",
"878 286 OFFCURVE",
"710 286 CURVE SMOOTH",
"534 286 OFFCURVE",
"446 435 OFFCURVE",
"446 706 CURVE SMOOTH",
"446 751 LINE SMOOTH",
"446 1027 OFFCURVE",
"532 1169 OFFCURVE",
"708 1169 CURVE SMOOTH",
"876 1169 OFFCURVE",
"971 1027 OFFCURVE",
"971 751 CURVE"
);
}
);
width = 1417.75;
},
{
anchors = (
{
name = bottom;
position = "{708, 0}";
},
{
name = bottom_dd;
position = "{1410, -407}";
},
{
name = tonos;
position = "{148, 1454}";
},
{
name = top;
position = "{707, 1603}";
},
{
name = top0315;
position = "{1410, 1603}";
},
{
name = top_dd;
position = "{1410, 1600}";
}
);
layerId = "275CACE8-FD52-4067-B7BC-43A450B7EDC9";
paths = (
{
closed = 1;
nodes = (
"1290 774 LINE",
"1290 1210 OFFCURVE",
"1059 1476 OFFCURVE",
"704 1476 CURVE SMOOTH",
"359 1476 OFFCURVE",
"118 1210 OFFCURVE",
"118 774 CURVE",
"118 681 LINE",
"118 245 OFFCURVE",
"361 -20 OFFCURVE",
"706 -20 CURVE SMOOTH",
"1061 -20 OFFCURVE",
"1290 245 OFFCURVE",
"1290 681 CURVE"
);
},
{
closed = 1;
nodes = (
"1098 681 LINE",
"1098 332 OFFCURVE",
"956 142 OFFCURVE",
"706 142 CURVE SMOOTH",
"468 142 OFFCURVE",
"311 332 OFFCURVE",
"311 681 CURVE SMOOTH",
"311 776 LINE SMOOTH",
"311 1123 OFFCURVE",
"466 1313 OFFCURVE",
"704 1313 CURVE SMOOTH",
"952 1313 OFFCURVE",
"1098 1123 OFFCURVE",
"1098 776 CURVE"
);
}
);
width = 1409.5;
}
);
unicode = 004F;
userData = {
com.typemytype.robofont.guides = (
{
angle = 0;
isGlobal = 0;
magnetic = 5;
x = 0;
y = 901;
},
{
angle = 0;
isGlobal = 0;
magnetic = 5;
x = 0;
y = 555;
}
);
};
},
{
glyphname = Oslash;
layers = (
{
anchors = (
{
name = top;
position = "{712, 1674}";
},
{
name = top0315;
position = "{1364, 1674}";
},
{
name = top_dd;
position = "{1364, 1600}";
}
);
components = (
{
name = O;
}
);
layerId = "445B0B85-2678-4800-8A4D-B1A9856CF63B";
paths = (
{
closed = 1;
nodes = (
"1240 1495 LINE",
"1174 1495 LINE",
"177 -75 LINE",
"243 -75 LINE"
);
}
);
width = 1364;
},
{
anchors = (
{
name = top;
position = "{715, 1674}";
},
{
name = top0315;
position = "{1414, 1674}";
},
{
name = top_dd;
position = "{1414, 1600}";
}
);
components = (
{
name = O;
}
);
layerId = "3A1161A8-2FC1-4350-92D1-D5E808DF9456";
paths = (
{
closed = 1;
nodes = (
"1317 1518 LINE",
"1168 1518 LINE",
"163 -95 LINE",
"314 -95 LINE"
);
}
);
width = 1414;
},
{
anchors = (
{
name = top;
position = "{716, 1674}";
},
{
name = top0315;
position = "{1413, 1674}";
},
{
name = top_dd;
position = "{1413, 1600}";
}
);
components = (
{
alignment = -1;
name = O;
transform = "{1, 0, 0, 1, 12, 0}";
}
);
layerId = "20EE6398-45C7-446F-8F4E-C33CF1AD7937";
paths = (
{
closed = 1;
nodes = (
"1275 1520 LINE",
"1056 1520 LINE",
"136 -97 LINE",
"355 -97 LINE"
);
}
);
width = 1412.85;
},
{
anchors = (
{
name = top;
position = "{715, 1674}";
},
{
name = top0315;
position = "{1410, 1674}";
},
{
name = top_dd;
position = "{1410, 1600}";
}
);
components = (
{
alignment = -1;
name = O;
}
);
layerId = "275CACE8-FD52-4067-B7BC-43A450B7EDC9";
paths = (
{
closed = 1;
nodes = (
"1310 1516 LINE",
"1169 1516 LINE",
"164 -93 LINE",
"308 -93 LINE"
);
}
);
width = 1409.5;
}
);
unicode = 00D8;
},
{
glyphname = OE;
layers = (
{
anchors = (
{
name = bottom;
position = "{957, -2}";
},
{
name = bottom_dd;
position = "{1873, -407}";
},
{
name = top;
position = "{957, 1633}";
},
{
name = top0315;
position = "{1873, 1633}";
},
{
name = top_dd;
position = "{1873, 1600}";
}
);
components = (
{
name = E;
transform = "{1, 0, 0, 1, 715, 0}";
}
);
layerId = "445B0B85-2678-4800-8A4D-B1A9856CF63B";
paths = (
{
closed = 1;
nodes = (
"629 1476 CURVE SMOOTH",
"322 1476 OFFCURVE",
"112 1233 OFFCURVE",
"112 880 CURVE",
"112 576 LINE",
"112 223 OFFCURVE",
"324 -21 OFFCURVE",
"631 -21 CURVE SMOOTH",
"748 -21 OFFCURVE",
"860 -10 OFFCURVE",
"961 0 CURVE",
"961 53 LINE",
"869 38 OFFCURVE",
"743 33 OFFCURVE",
"631 33 CURVE SMOOTH",
"349 33 OFFCURVE",
"166 260 OFFCURVE",
"166 576 CURVE",
"166 882 LINE",
"166 1205 OFFCURVE",
"347 1422 OFFCURVE",
"629 1422 CURVE SMOOTH",
"749 1422 OFFCURVE",
"862 1419 OFFCURVE",
"961 1403 CURVE",
"961 1456 LINE",
"860 1467 OFFCURVE",
"746 1476 OFFCURVE"
);
}
);
width = 1873;
},
{
anchors = (
{
name = bottom;
position = "{953, 0}";
},
{
name = bottom_dd;
position = "{1962, -407}";
},
{
name = top;
position = "{953, 1600}";
},
{
name = top0315;
position = "{1962, 1600}";
},
{
name = top_dd;
position = "{1962, 1600}";
}
);
components = (
{
name = E;
transform = "{1, 0, 0, 1, 706, 0}";
}
);
layerId = "3A1161A8-2FC1-4350-92D1-D5E808DF9456";
paths = (
{
closed = 1;
nodes = (
"663 1477 CURVE SMOOTH",
"330 1477 OFFCURVE",
"104 1233 OFFCURVE",
"104 880 CURVE",
"104 576 LINE",
"104 223 OFFCURVE",
"332 -21 OFFCURVE",
"665 -21 CURVE SMOOTH",
"766 -21 OFFCURVE",
"864 -10 OFFCURVE",
"953 0 CURVE",
"953 167 LINE",
"867 151 OFFCURVE",
"768 139 OFFCURVE",
"665 139 CURVE SMOOTH",
"445 139 OFFCURVE",
"304 287 OFFCURVE",
"304 576 CURVE",
"304 882 LINE",
"304 1169 OFFCURVE",
"443 1317 OFFCURVE",
"663 1317 CURVE SMOOTH",
"767 1317 OFFCURVE",
"866 1305 OFFCURVE",
"953 1289 CURVE",
"953 1456 LINE",
"864 1467 OFFCURVE",
"764 1477 OFFCURVE"
);
}
);
width = 1962;
},
{
anchors = (
{
name = bottom;
position = "{1010, 0}";
},
{
name = bottom_dd;
position = "{2004, -407}";
},
{
name = top;
position = "{1010, 1598}";
},
{
name = top0315;
position = "{2004, 1598}";
},
{
name = top_dd;
position = "{2004, 1600}";
}
);
components = (
{
alignment = -1;
name = E;
transform = "{1, 0, 0, 1, 813, 0}";
}
);
layerId = "20EE6398-45C7-446F-8F4E-C33CF1AD7937";
paths = (
{
closed = 1;
nodes = (
"728 1476 CURVE SMOOTH",
"349 1476 OFFCURVE",
"91 1233 OFFCURVE",
"91 880 CURVE",
"91 576 LINE",
"91 223 OFFCURVE",
"351 -20 OFFCURVE",
"730 -20 CURVE SMOOTH",
"830 -20 OFFCURVE",
"927 -10 OFFCURVE",
"1015 0 CURVE",
"1015 298 LINE",
"929 282 OFFCURVE",
"832 271 OFFCURVE",
"730 271 CURVE SMOOTH",
"559 271 OFFCURVE",
"452 369 OFFCURVE",
"452 576 CURVE",
"452 882 LINE",
"452 1089 OFFCURVE",
"557 1185 OFFCURVE",
"728 1185 CURVE SMOOTH",
"831 1185 OFFCURVE",
"929 1173 OFFCURVE",
"1015 1158 CURVE",
"1015 1456 LINE",
"927 1467 OFFCURVE",
"828 1476 OFFCURVE"
);
}
);
width = 2004.2;
},
{
anchors = (
{
name = bottom;
position = "{953, 0}";
},
{
name = bottom_dd;
position = "{1953.99, -407}";
},
{
name = top;
position = "{953, 1603}";
},
{
name = top0315;
position = "{1954, 1603}";
},
{
name = top_dd;
position = "{1953.99, 1600}";
}
);
components = (
{
alignment = -1;
name = E;
transform = "{1, 0, 0, 1, 707, 0}";
}
);
layerId = "275CACE8-FD52-4067-B7BC-43A450B7EDC9";
paths = (
{
closed = 1;
nodes = (
"660 1477 CURVE SMOOTH",
"329 1477 OFFCURVE",
"105 1233 OFFCURVE",
"105 880 CURVE",
"105 576 LINE",
"105 223 OFFCURVE",
"331 -21 OFFCURVE",
"662 -21 CURVE SMOOTH",
"764 -21 OFFCURVE",
"864 -10 OFFCURVE",
"954 0 CURVE",
"954 157 LINE",
"867 141 OFFCURVE",
"766 129 OFFCURVE",
"662 129 CURVE SMOOTH",
"436 129 OFFCURVE",
"292 285 OFFCURVE",
"292 576 CURVE",
"292 882 LINE",
"292 1172 OFFCURVE",
"434 1326 OFFCURVE",
"660 1326 CURVE SMOOTH",
"765 1326 OFFCURVE",
"866 1315 OFFCURVE",
"954 1299 CURVE",
"954 1456 LINE",
"864 1467 OFFCURVE",
"762 1477 OFFCURVE"
);
}
);
width = 1953.99;
}
);
unicode = 0152;
},
{
glyphname = P;
layers = (
{
anchors = (
{
name = bottom;
position = "{530, 10}";
},
{
name = bottom_dd;
position = "{1230, -407}";
},
{
name = tonos;
position = "{-8, 1454}";
},
{
name = top;
position = "{560, 1612}";
},
{
name = top0315;
position = "{1230, 1612}";
},
{
name = top_dd;
position = "{1230, 1600}";
}
);
guideLines = (
{
position = "{0, 901}";
},
{
position = "{0, 555}";
}
);
layerId = "445B0B85-2678-4800-8A4D-B1A9856CF63B";
paths = (
{
closed = 1;
nodes = (
"655 615 LINE",
"966 615 OFFCURVE",
"1125 774 OFFCURVE",
"1125 1031 CURVE",
"1125 1287 OFFCURVE",
"965 1456 OFFCURVE",
"655 1456 CURVE",
"200 1456 LINE",
"200 0 LINE",
"254 0 LINE",
"254 1402 LINE",
"655 1402 LINE",
"949 1402 OFFCURVE",
"1071 1235 OFFCURVE",
"1071 1029 CURVE",
"1071 831 OFFCURVE",
"949 669 OFFCURVE",
"655 669 CURVE",
"213 669 LINE",
"213 615 LINE"
);
}
);
width = 1230;
},
{
anchors = (
{
name = bottom;
position = "{530, 10}";
},
{
name = bottom_dd;
position = "{1299, -407}";
},
{
name = tonos;
position = "{25, 1454}";
},
{
name = top;
position = "{611, 1612}";
},
{
name = top0315;
position = "{1299, 1612}";
},
{
name = top_dd;
position = "{1299, 1600}";
}
);
layerId = "3A1161A8-2FC1-4350-92D1-D5E808DF9456";
paths = (
{
closed = 1;
nodes = (
"712 567 LINE",
"1044 567 OFFCURVE",
"1227 727 OFFCURVE",
"1227 1010 CURVE",
"1227 1269 OFFCURVE",
"1044 1456 OFFCURVE",
"712 1456 CURVE",
"166 1456 LINE",
"166 0 LINE",
"374 0 LINE",
"374 1289 LINE",
"712 1289 LINE",
"930 1289 OFFCURVE",
"1019 1153 OFFCURVE",
"1019 1008 CURVE",
"1019 846 OFFCURVE",
"930 733 OFFCURVE",
"712 733 CURVE",
"329 733 LINE",
"329 567 LINE"
);
}
);
width = 1299;
},
{
anchors = (
{
name = bottom;
position = "{530, 10}";
},
{
name = bottom_dd;
position = "{1342, -407}";
},
{
name = tonos;
position = "{-64, 1454}";
},
{
name = top;
position = "{596, 1612}";
},
{
name = top0315;
position = "{1342, 1612}";
},
{
name = top_dd;
position = "{1342, 1600}";
}
);
layerId = "20EE6398-45C7-446F-8F4E-C33CF1AD7937";
paths = (
{
closed = 1;
nodes = (
"694 474 LINE",
"1047 474 OFFCURVE",
"1267 666 OFFCURVE",
"1267 950 CURVE",
"1267 1241 OFFCURVE",
"1047 1456 OFFCURVE",
"694 1456 CURVE",
"103 1456 LINE",
"103 0 LINE",
"479 0 LINE",
"479 1153 LINE",
"694 1153 LINE",
"829 1153 OFFCURVE",
"886 1056 OFFCURVE",
"886 948 CURVE",
"886 848 OFFCURVE",
"829 777 OFFCURVE",
"694 777 CURVE",
"339 777 LINE",
"339 474 LINE"
);
}
);
width = 1342.15;
},
{
anchors = (
{
name = bottom;
position = "{530, 10}";
},
{
name = bottom_dd;
position = "{1293, -407}";
},
{
name = tonos;
position = "{22, 1454}";
},
{
name = top;
position = "{606, 1612}";
},
{
name = top0315;
position = "{1293, 1612}";
},
{
name = top_dd;
position = "{1293, 1600}";
}
);
layerId = "275CACE8-FD52-4067-B7BC-43A450B7EDC9";
paths = (
{
closed = 1;
nodes = (
"707 571 LINE",
"1037 571 OFFCURVE",
"1218 731 OFFCURVE",
"1218 1012 CURVE",
"1218 1271 OFFCURVE",
"1037 1456 OFFCURVE",
"707 1456 CURVE",
"169 1456 LINE",
"169 0 LINE",
"363 0 LINE",
"363 1299 LINE",
"707 1299 LINE",
"932 1299 OFFCURVE",
"1024 1160 OFFCURVE",
"1024 1010 CURVE",
"1024 845 OFFCURVE",
"932 727 OFFCURVE",
"707 727 CURVE",
"319 727 LINE",
"319 571 LINE"
);
}
);
width = 1292.79;
}
);
unicode = 0050;
userData = {
com.typemytype.robofont.guides = (
{
angle = 0;
isGlobal = 0;
magnetic = 5;
x = 0;
y = 901;
},
{
angle = 0;
isGlobal = 0;
magnetic = 5;
x = 0;
y = 555;
}
);
};
},
{
glyphname = Thorn;
layers = (
{
guideLines = (
{
position = "{0, 901}";
},
{
position = "{0, 555}";
}
);
layerId = "445B0B85-2678-4800-8A4D-B1A9856CF63B";
paths = (
{
closed = 1;
nodes = (
"200 1456 LINE",
"200 0 LINE",
"254 0 LINE",
"254 1456 LINE"
);
},
{
closed = 1;
nodes = (
"218 1143 LINE",
"232 1089 LINE",
"625 1089 LINE SMOOTH",
"906 1089 OFFCURVE",
"1021 909 OFFCURVE",
"1021 736 CURVE SMOOTH",
"1021 571 OFFCURVE",
"906 388 OFFCURVE",
"625 388 CURVE SMOOTH",
"213 388 LINE",
"213 334 LINE",
"625 334 LINE SMOOTH",
"916 334 OFFCURVE",
"1075 505 OFFCURVE",
"1075 738 CURVE SMOOTH",
"1075 970 OFFCURVE",
"916 1143 OFFCURVE",
"625 1143 CURVE SMOOTH"
);
}
);
width = 1219;
},
{
guideLines = (
{
position = "{0, 901}";
},
{
position = "{0, 555}";
}
);
layerId = "3A1161A8-2FC1-4350-92D1-D5E808DF9456";
paths = (
{
closed = 1;
nodes = (
"163 1456 LINE",
"163 0 LINE",
"363 0 LINE",
"363 1456 LINE"
);
},
{
closed = 1;
nodes = (
"265 1165 LINE",
"363 1005 LINE",
"630 1005 LINE SMOOTH",
"838 1005 OFFCURVE",
"922 873 OFFCURVE",
"922 736 CURVE SMOOTH",
"922 603 OFFCURVE",
"838 472 OFFCURVE",
"630 472 CURVE SMOOTH",
"322 472 LINE",
"322 312 LINE",
"630 312 LINE SMOOTH",
"948 312 OFFCURVE",
"1122 493 OFFCURVE",
"1122 738 CURVE SMOOTH",
"1122 984 OFFCURVE",
"948 1165 OFFCURVE",
"630 1165 CURVE SMOOTH"
);
}
);
width = 1209;
},
{
layerId = "20EE6398-45C7-446F-8F4E-C33CF1AD7937";
paths = (
{
closed = 1;
nodes = (
"110 1456 LINE",
"110 0 LINE",
"472 0 LINE",
"472 1456 LINE"
);
},
{
closed = 1;
nodes = (
"218 1207 LINE",
"473 917 LINE",
"656 917 LINE SMOOTH",
"806 917 OFFCURVE",
"864 832 OFFCURVE",
"864 736 CURVE SMOOTH",
"864 641 OFFCURVE",
"806 559 OFFCURVE",
"656 559 CURVE SMOOTH",
"431 559 LINE",
"431 269 LINE",
"656 269 LINE SMOOTH",
"1025 269 OFFCURVE",
"1226 464 OFFCURVE",
"1226 738 CURVE SMOOTH",
"1226 1013 OFFCURVE",
"1025 1207 OFFCURVE",
"656 1207 CURVE SMOOTH"
);
}
);
width = 1270.725;
},
{
layerId = "275CACE8-FD52-4067-B7BC-43A450B7EDC9";
paths = (
{
closed = 1;
nodes = (
"166 1456 LINE",
"166 0 LINE",
"353 0 LINE",
"353 1456 LINE"
);
},
{
closed = 1;
nodes = (
"261 1163 LINE",
"351 1013 LINE",
"630 1013 LINE SMOOTH",
"844 1013 OFFCURVE",
"931 876 OFFCURVE",
"931 736 CURVE SMOOTH",
"931 600 OFFCURVE",
"844 464 OFFCURVE",
"630 464 CURVE SMOOTH",
"312 464 LINE",
"312 314 LINE",
"630 314 LINE SMOOTH",
"945 314 OFFCURVE",
"1118 494 OFFCURVE",
"1118 738 CURVE SMOOTH",
"1118 983 OFFCURVE",
"945 1163 OFFCURVE",
"630 1163 CURVE SMOOTH"
);
}
);
width = 1209.9;
}
);
unicode = 00DE;
userData = {
com.typemytype.robofont.guides = (
{
angle = 0;
isGlobal = 0;
magnetic = 5;
x = 0;
y = 901;
},
{
angle = 0;
isGlobal = 0;
magnetic = 5;
x = 0;
y = 555;
}
);
};
},
{
glyphname = Q;
layers = (
{
anchors = (
{
name = bottom;
position = "{698, -10}";
},
{
name = bottom_dd;
position = "{1364, -407}";
},
{
name = top;
position = "{700, 1600}";
},
{
name = top0315;
position = "{1364, 1600}";
},
{
name = top_dd;
position = "{1364, 1600}";
}
);
guideLines = (
{
position = "{0, 901}";
},
{
position = "{0, 555}";
}
);
layerId = "445B0B85-2678-4800-8A4D-B1A9856CF63B";
paths = (
{
closed = 1;
nodes = (
"894 63 LINE",
"853 25 LINE",
"1152 -263 LINE",
"1191 -228 LINE"
);
},
{
closed = 1;
nodes = (
"1231 837 LINE",
"1231 1217 OFFCURVE",
"1016 1476 OFFCURVE",
"681 1476 CURVE SMOOTH",
"347 1476 OFFCURVE",
"133 1217 OFFCURVE",
"133 837 CURVE",
"133 619 LINE",
"133 239 OFFCURVE",
"349 -20 OFFCURVE",
"683 -20 CURVE SMOOTH",
"1018 -20 OFFCURVE",
"1231 239 OFFCURVE",
"1231 619 CURVE"
);
},
{
closed = 1;
nodes = (
"1177 619 LINE",
"1177 276 OFFCURVE",
"997 34 OFFCURVE",
"683 34 CURVE SMOOTH",
"371 34 OFFCURVE",
"188 276 OFFCURVE",
"188 619 CURVE SMOOTH",
"188 839 LINE SMOOTH",
"188 1180 OFFCURVE",
"369 1422 OFFCURVE",
"681 1422 CURVE SMOOTH",
"995 1422 OFFCURVE",
"1177 1180 OFFCURVE",
"1177 839 CURVE"
);
}
);
width = 1364;
},
{
anchors = (
{
name = bottom;
position = "{698, -10}";
},
{
name = bottom_dd;
position = "{1414, -407}";
},
{
name = top;
position = "{700, 1600}";
},
{
name = top0315;
position = "{1414, 1600}";
},
{
name = top_dd;
position = "{1414, 1600}";
}
);
guideLines = (
{
position = "{0, 901}";
},
{
position = "{0, 555}";
}
);
layerId = "3A1161A8-2FC1-4350-92D1-D5E808DF9456";
paths = (
{
closed = 1;
nodes = (
"918 176 LINE",
"785 45 LINE",
"1156 -245 LINE",
"1297 -117 LINE"
);
},
{
closed = 1;
nodes = (
"1287 768 LINE",
"1287 1209 OFFCURVE",
"1054 1476 OFFCURVE",
"696 1476 CURVE SMOOTH",
"350 1476 OFFCURVE",
"107 1209 OFFCURVE",
"107 768 CURVE",
"107 687 LINE",
"107 246 OFFCURVE",
"352 -20 OFFCURVE",
"698 -20 CURVE SMOOTH",
"1056 -20 OFFCURVE",
"1287 246 OFFCURVE",
"1287 687 CURVE"
);
},
{
closed = 1;
nodes = (
"1080 687 LINE",
"1080 338 OFFCURVE",
"942 153 OFFCURVE",
"698 153 CURVE SMOOTH",
"469 153 OFFCURVE",
"314 338 OFFCURVE",
"314 687 CURVE SMOOTH",
"314 770 LINE SMOOTH",
"314 1117 OFFCURVE",
"467 1302 OFFCURVE",
"696 1302 CURVE SMOOTH",
"939 1302 OFFCURVE",
"1080 1117 OFFCURVE",
"1080 770 CURVE"
);
}
);
width = 1414;
},
{
anchors = (
{
name = bottom;
position = "{698, -10}";
},
{
name = bottom_dd;
position = "{1418, -407}";
},
{
name = top;
position = "{700, 1600}";
},
{
name = top0315;
position = "{1418, 1600}";
},
{
name = top_dd;
position = "{1418, 1600}";
}
);
layerId = "20EE6398-45C7-446F-8F4E-C33CF1AD7937";
paths = (
{
closed = 1;
nodes = (
"925 263 LINE",
"700 60 LINE",
"1107 -269 LINE",
"1339 -66 LINE"
);
},
{
closed = 1;
nodes = (
"1355 749 LINE",
"1355 1200 OFFCURVE",
"1085 1476 OFFCURVE",
"711 1476 CURVE SMOOTH",
"332 1476 OFFCURVE",
"67 1200 OFFCURVE",
"67 749 CURVE",
"67 706 LINE",
"67 255 OFFCURVE",
"334 -20 OFFCURVE",
"713 -20 CURVE SMOOTH",
"1087 -20 OFFCURVE",
"1355 255 OFFCURVE",
"1355 706 CURVE"
);
},
{
closed = 1;
nodes = (
"974 706 LINE",
"974 435 OFFCURVE",
"880 286 OFFCURVE",
"713 286 CURVE SMOOTH",
"536 286 OFFCURVE",
"448 435 OFFCURVE",
"448 706 CURVE SMOOTH",
"448 751 LINE SMOOTH",
"448 1027 OFFCURVE",
"534 1169 OFFCURVE",
"711 1169 CURVE SMOOTH",
"878 1169 OFFCURVE",
"974 1027 OFFCURVE",
"974 751 CURVE"
);
}
);
width = 1417.75;
},
{
anchors = (
{
name = bottom;
position = "{698, -10}";
},
{
name = bottom_dd;
position = "{1410, -407}";
},
{
name = top;
position = "{700, 1600}";
},
{
name = top0315;
position = "{1410, 1600}";
},
{
name = top_dd;
position = "{1410, 1600}";
}
);
layerId = "275CACE8-FD52-4067-B7BC-43A450B7EDC9";
paths = (
{
closed = 1;
nodes = (
"916 166 LINE",
"791 43 LINE",
"1156 -247 LINE",
"1287 -127 LINE"
);
},
{
closed = 1;
nodes = (
"1282 774 LINE",
"1282 1210 OFFCURVE",
"1051 1476 OFFCURVE",
"695 1476 CURVE SMOOTH",
"350 1476 OFFCURVE",
"109 1210 OFFCURVE",
"109 774 CURVE",
"109 681 LINE",
"109 245 OFFCURVE",
"352 -20 OFFCURVE",
"697 -20 CURVE SMOOTH",
"1053 -20 OFFCURVE",
"1282 245 OFFCURVE",
"1282 681 CURVE"
);
},
{
closed = 1;
nodes = (
"1089 681 LINE",
"1089 332 OFFCURVE",
"947 142 OFFCURVE",
"697 142 CURVE SMOOTH",
"460 142 OFFCURVE",
"303 332 OFFCURVE",
"303 681 CURVE SMOOTH",
"303 776 LINE SMOOTH",
"303 1123 OFFCURVE",
"458 1313 OFFCURVE",
"695 1313 CURVE SMOOTH",
"944 1313 OFFCURVE",
"1089 1123 OFFCURVE",
"1089 776 CURVE"
);
}
);
width = 1409.5;
}
);
unicode = 0051;
userData = {
com.typemytype.robofont.guides = (
{
angle = 0;
isGlobal = 0;
magnetic = 5;
x = 0;
y = 901;
},
{
angle = 0;
isGlobal = 0;
magnetic = 5;
x = 0;
y = 555;
}
);
};
},
{
glyphname = R;
layers = (
{
anchors = (
{
name = bottom;
position = "{606, 10}";
},
{
name = bottom_dd;
position = "{1340, -407}";
},
{
name = top;
position = "{606, 1612}";
},
{
name = top0315;
position = "{1340, 1612}";
},
{
name = top_dd;
position = "{1340, 1600}";
}
);
layerId = "445B0B85-2678-4800-8A4D-B1A9856CF63B";
paths = (
{
closed = 1;
nodes = (
"195 1456 LINE",
"195 0 LINE",
"249 0 LINE",
"249 1402 LINE",
"659 1402 LINE SMOOTH",
"917 1402 OFFCURVE",
"1083 1265 OFFCURVE",
"1083 1036 CURVE SMOOTH",
"1083 855 OFFCURVE",
"957 677 OFFCURVE",
"708 677 CURVE SMOOTH",
"206 677 LINE",
"208 623 LINE",
"765 623 LINE",
"796 635 LINE",
"985 663 OFFCURVE",
"1137 824 OFFCURVE",
"1137 1036 CURVE SMOOTH",
"1137 1307 OFFCURVE",
"937 1456 OFFCURVE",
"659 1456 CURVE SMOOTH"
);
},
{
closed = 1;
nodes = (
"1141 0 LINE",
"1198 0 LINE",
"1198 14 LINE",
"805 644 LINE",
"742 642 LINE"
);
}
);
width = 1340;
},
{
anchors = (
{
name = bottom;
position = "{611, 10}";
},
{
name = bottom_dd;
position = "{1253, -407}";
},
{
name = top;
position = "{610, 1600}";
},
{
name = top0315;
position = "{1253, 1600}";
},
{
name = top_dd;
position = "{1253, 1600}";
}
);
layerId = "3A1161A8-2FC1-4350-92D1-D5E808DF9456";
paths = (
{
closed = 1;
nodes = (
"166 1456 LINE",
"166 0 LINE",
"374 0 LINE",
"374 1289 LINE",
"650 1289 LINE SMOOTH",
"868 1289 OFFCURVE",
"956 1180 OFFCURVE",
"956 1017 CURVE SMOOTH",
"956 869 OFFCURVE",
"854 753 OFFCURVE",
"651 753 CURVE SMOOTH",
"327 753 LINE",
"329 587 LINE",
"770 587 LINE",
"827 609 LINE",
"1039 666 OFFCURVE",
"1164 818 OFFCURVE",
"1164 1017 CURVE SMOOTH",
"1164 1303 OFFCURVE",
"983 1456 OFFCURVE",
"650 1456 CURVE SMOOTH"
);
},
{
closed = 1;
nodes = (
"1006 0 LINE",
"1229 0 LINE",
"1229 12 LINE",
"874 662 LINE",
"657 662 LINE"
);
}
);
width = 1253;
},
{
anchors = (
{
name = bottom;
position = "{614, 10}";
},
{
name = bottom_dd;
position = "{1337, -407}";
},
{
name = top;
position = "{591, 1599}";
},
{
name = top0315;
position = "{1337, 1599}";
},
{
name = top_dd;
position = "{1337, 1600}";
}
);
hints = (
{
horizontal = 1;
place = "{-2147483648, 0}";
type = Tag;
}
);
layerId = "20EE6398-45C7-446F-8F4E-C33CF1AD7937";
paths = (
{
closed = 1;
nodes = (
"104 1456 LINE",
"104 0 LINE",
"479 0 LINE",
"479 1153 LINE",
"686 1153 LINE SMOOTH",
"806 1153 OFFCURVE",
"868 1087 OFFCURVE",
"868 975 CURVE SMOOTH",
"868 859 OFFCURVE",
"806 798 OFFCURVE",
"682 798 CURVE SMOOTH",
"337 798 LINE",
"339 495 LINE",
"814 495 LINE",
"937 570 LINE",
"1120 645 OFFCURVE",
"1243 754 OFFCURVE",
"1243 1014 CURVE SMOOTH",
"1243 1303 OFFCURVE",
"1027 1456 OFFCURVE",
"686 1456 CURVE SMOOTH"
);
},
{
closed = 1;
nodes = (
"889 0 LINE",
"1291 0 LINE",
"1291 16 LINE",
"971 644 LINE",
"573 641 LINE"
);
}
);
width = 1337.125;
},
{
anchors = (
{
name = bottom;
position = "{611, 10}";
},
{
name = bottom_dd;
position = "{1261, -407}";
},
{
name = top;
position = "{610, 1601}";
},
{
name = top0315;
position = "{1261, 1601}";
},
{
name = top_dd;
position = "{1261, 1600}";
}
);
hints = (
{
horizontal = 1;
place = "{0, 0}";
type = Tag;
}
);
layerId = "275CACE8-FD52-4067-B7BC-43A450B7EDC9";
paths = (
{
closed = 1;
nodes = (
"169 1456 LINE",
"169 0 LINE",
"363 0 LINE",
"363 1299 LINE",
"651 1299 LINE SMOOTH",
"872 1299 OFFCURVE",
"967 1188 OFFCURVE",
"967 1019 CURVE SMOOTH",
"967 868 OFFCURVE",
"863 746 OFFCURVE",
"656 746 CURVE SMOOTH",
"316 746 LINE",
"318 590 LINE",
"770 590 LINE",
"824 611 LINE",
"1034 666 OFFCURVE",
"1162 819 OFFCURVE",
"1162 1019 CURVE SMOOTH",
"1162 1303 OFFCURVE",
"979 1456 OFFCURVE",
"651 1456 CURVE SMOOTH"
);
},
{
closed = 1;
nodes = (
"1018 0 LINE",
"1226 0 LINE",
"1226 12 LINE",
"868 660 LINE",
"665 660 LINE"
);
}
);
width = 1260.83;
}
);
unicode = 0052;
},
{
glyphname = S;
layers = (
{
anchors = (
{
name = bottom;
position = "{632, -10}";
},
{
name = bottom_dd;
position = "{1211, -407}";
},
{
name = top;
position = "{632, 1633}";
},
{
name = top0315;
position = "{1211, 1633}";
},
{
name = top_dd;
position = "{1211, 1600}";
}
);
guideLines = (
{
position = "{0, 1658}";
},
{
position = "{0, 555}";
}
);
layerId = "445B0B85-2678-4800-8A4D-B1A9856CF63B";
paths = (
{
closed = 1;
nodes = (
"1072 349 CURVE",
"1072 162 OFFCURVE",
"889 34 OFFCURVE",
"633 34 CURVE SMOOTH",
"423 34 OFFCURVE",
"150 120 OFFCURVE",
"150 411 CURVE",
"96 411 LINE",
"96 85 OFFCURVE",
"384 -20 OFFCURVE",
"633 -20 CURVE SMOOTH",
"905 -20 OFFCURVE",
"1127 113 OFFCURVE",
"1127 351 CURVE",
"1127 596 OFFCURVE",
"925 695 OFFCURVE",
"638 770 CURVE",
"290 860 OFFCURVE",
"197 967 OFFCURVE",
"197 1122 CURVE",
"197 1280 OFFCURVE",
"351 1422 OFFCURVE",
"626 1422 CURVE SMOOTH",
"885 1422 OFFCURVE",
"1057 1261 OFFCURVE",
"1057 1046 CURVE",
"1111 1046 LINE",
"1111 1303 OFFCURVE",
"909 1476 OFFCURVE",
"626 1476 CURVE SMOOTH",
"351 1476 OFFCURVE",
"143 1342 OFFCURVE",
"143 1120 CURVE",
"143 886 OFFCURVE",
"326 799 OFFCURVE",
"623 718 CURVE SMOOTH",
"953 628 OFFCURVE",
"1072 533 OFFCURVE"
);
}
);
width = 1211;
},
{
anchors = (
{
name = bottom;
position = "{628, 0}";
},
{
name = bottom_dd;
position = "{1216, -407}";
},
{
name = top;
position = "{621, 1600}";
},
{
name = top0315;
position = "{1216, 1600}";
},
{
name = top_dd;
position = "{1216, 1600}";
}
);
guideLines = (
{
position = "{0, 1658}";
},
{
position = "{0, 555}";
}
);
layerId = "3A1161A8-2FC1-4350-92D1-D5E808DF9456";
paths = (
{
closed = 1;
nodes = (
"931 370 CURVE SMOOTH",
"931 232 OFFCURVE",
"826 146 OFFCURVE",
"631 146 CURVE SMOOTH",
"446 146 OFFCURVE",
"287 232 OFFCURVE",
"287 423 CURVE",
"79 423 LINE",
"79 136 OFFCURVE",
"360 -20 OFFCURVE",
"631 -20 CURVE SMOOTH",
"942 -20 OFFCURVE",
"1140 135 OFFCURVE",
"1140 372 CURVE",
"1140 596 OFFCURVE",
"998 727 OFFCURVE",
"663 822 CURVE",
"435 886 OFFCURVE",
"334 959 OFFCURVE",
"334 1079 CURVE",
"334 1212 OFFCURVE",
"423 1309 OFFCURVE",
"621 1309 CURVE SMOOTH",
"834 1309 OFFCURVE",
"930 1194 OFFCURVE",
"930 1035 CURVE",
"1138 1035 LINE",
"1138 1260 OFFCURVE",
"955 1476 OFFCURVE",
"621 1476 CURVE SMOOTH",
"320 1476 OFFCURVE",
"125 1303 OFFCURVE",
"125 1076 CURVE",
"125 851 OFFCURVE",
"309 728 OFFCURVE",
"596 644 CURVE",
"865 565 OFFCURVE",
"931 502 OFFCURVE"
);
}
);
width = 1216;
},
{
anchors = (
{
name = bottom;
position = "{664, 1}";
},
{
name = bottom_dd;
position = "{1289, -407}";
},
{
name = top;
position = "{666, 1598}";
},
{
name = top0315;
position = "{1289, 1598}";
},
{
name = top_dd;
position = "{1289, 1600}";
}
);
hints = (
{
horizontal = 1;
place = "{-2147483648, 0}";
type = Tag;
}
);
layerId = "20EE6398-45C7-446F-8F4E-C33CF1AD7937";
paths = (
{
closed = 1;
nodes = (
"844 392 CURVE SMOOTH",
"844 332 OFFCURVE",
"800 274 OFFCURVE",
"677 274 CURVE SMOOTH",
"516 274 OFFCURVE",
"438 325 OFFCURVE",
"438 484 CURVE",
"62 484 LINE",
"62 129 OFFCURVE",
"374 -20 OFFCURVE",
"677 -20 CURVE SMOOTH",
"1007 -20 OFFCURVE",
"1219 127 OFFCURVE",
"1219 394 CURVE",
"1219 643 OFFCURVE",
"1043 785 OFFCURVE",
"732 885 CURVE",
"581 935 OFFCURVE",
"479 980 OFFCURVE",
"479 1057 CURVE",
"479 1124 OFFCURVE",
"541 1180 OFFCURVE",
"664 1180 CURVE SMOOTH",
"789 1180 OFFCURVE",
"847 1115 OFFCURVE",
"847 1021 CURVE",
"1221 1021 LINE",
"1221 1305 OFFCURVE",
"993 1476 OFFCURVE",
"672 1476 CURVE SMOOTH",
"346 1476 OFFCURVE",
"105 1317 OFFCURVE",
"105 1062 CURVE",
"105 792 OFFCURVE",
"351 670 OFFCURVE",
"603 585 CURVE",
"812 514 OFFCURVE",
"844 470 OFFCURVE"
);
}
);
width = 1288.65;
},
{
anchors = (
{
name = bottom;
position = "{628, -1}";
},
{
name = bottom_dd;
position = "{1216, -407}";
},
{
name = top;
position = "{622, 1603}";
},
{
name = top0315;
position = "{1216, 1603}";
},
{
name = top_dd;
position = "{1216, 1600}";
}
);
hints = (
{
horizontal = 1;
place = "{0, 0}";
type = Tag;
}
);
layerId = "275CACE8-FD52-4067-B7BC-43A450B7EDC9";
paths = (
{
closed = 1;
nodes = (
"944 368 CURVE SMOOTH",
"944 226 OFFCURVE",
"832 136 OFFCURVE",
"631 136 CURVE SMOOTH",
"444 136 OFFCURVE",
"275 222 OFFCURVE",
"275 422 CURVE",
"81 422 LINE",
"81 131 OFFCURVE",
"362 -20 OFFCURVE",
"631 -20 CURVE SMOOTH",
"939 -20 OFFCURVE",
"1139 133 OFFCURVE",
"1139 370 CURVE",
"1139 596 OFFCURVE",
"991 724 OFFCURVE",
"661 817 CURVE",
"422 884 OFFCURVE",
"322 960 OFFCURVE",
"322 1083 CURVE",
"322 1218 OFFCURVE",
"417 1319 OFFCURVE",
"621 1319 CURVE SMOOTH",
"839 1319 OFFCURVE",
"941 1200 OFFCURVE",
"941 1036 CURVE",
"1136 1036 LINE",
"1136 1264 OFFCURVE",
"951 1476 OFFCURVE",
"621 1476 CURVE SMOOTH",
"323 1476 OFFCURVE",
"127 1307 OFFCURVE",
"127 1080 CURVE",
"127 854 OFFCURVE",
"311 734 OFFCURVE",
"598 651 CURVE",
"873 571 OFFCURVE",
"944 505 OFFCURVE"
);
}
);
width = 1215.55;
}
);
unicode = 0053;
userData = {
com.typemytype.robofont.guides = (
{
angle = 0;
isGlobal = 0;
magnetic = 5;
x = 0;
y = 1658;
},
{
angle = 0;
isGlobal = 0;
magnetic = 5;
x = 0;
y = 555;
}
);
};
},
{
glyphname = Germandbls;
production = uni1E9E;
layers = (
{
layerId = "445B0B85-2678-4800-8A4D-B1A9856CF63B";
paths = (
{
closed = 1;
nodes = (
"253 998 LINE",
"200 998 LINE",
"200 0 LINE",
"253 0 LINE"
);
},
{
closed = 1;
nodes = (
"253 996 LINE",
"253 1300 OFFCURVE",
"359 1422 OFFCURVE",
"613 1422 CURVE SMOOTH",
"765 1422 OFFCURVE",
"897 1349 OFFCURVE",
"979 1236 CURVE",
"579 833 LINE",
"579 779 LINE",
"610 779 LINE",
"1061 1234 LINE",
"950 1381 OFFCURVE",
"811 1476 OFFCURVE",
"613 1476 CURVE SMOOTH",
"286 1476 OFFCURVE",
"200 1283 OFFCURVE",
"200 996 CURVE"
);
},
{
closed = 1;
nodes = (
"482 29 LINE",
"576 -6 OFFCURVE",
"657 -20 OFFCURVE",
"750 -20 CURVE SMOOTH",
"1038 -20 OFFCURVE",
"1206 135 OFFCURVE",
"1206 408 CURVE SMOOTH",
"1206 657 OFFCURVE",
"1056 829 OFFCURVE",
"730 829 CURVE SMOOTH",
"579 829 LINE",
"579 775 LINE",
"730 775 LINE SMOOTH",
"1039 775 OFFCURVE",
"1152 621 OFFCURVE",
"1152 408 CURVE SMOOTH",
"1152 152 OFFCURVE",
"991 34 OFFCURVE",
"750 34 CURVE SMOOTH",
"654 34 OFFCURVE",
"569 61 OFFCURVE",
"514 87 CURVE"
);
}
);
width = 1325;
},
{
layerId = "3A1161A8-2FC1-4350-92D1-D5E808DF9456";
paths = (
{
closed = 1;
nodes = (
"336 958 LINE",
"137 958 LINE",
"137 0 LINE",
"336 0 LINE"
);
},
{
closed = 1;
nodes = (
"336 956 LINE",
"336 1144 OFFCURVE",
"376 1316 OFFCURVE",
"591 1316 CURVE SMOOTH",
"724 1316 OFFCURVE",
"802 1269 OFFCURVE",
"865 1223 CURVE",
"567 853 LINE",
"567 728 LINE",
"677 728 LINE",
"1100 1254 LINE",
"968 1375 OFFCURVE",
"810 1476 OFFCURVE",
"591 1476 CURVE SMOOTH",
"288 1476 OFFCURVE",
"137 1303 OFFCURVE",
"137 956 CURVE"
);
},
{
closed = 1;
nodes = (
"456 29 LINE",
"550 -6 OFFCURVE",
"645 -21 OFFCURVE",
"738 -21 CURVE SMOOTH",
"1026 -21 OFFCURVE",
"1234 135 OFFCURVE",
"1234 408 CURVE SMOOTH",
"1234 692 OFFCURVE",
"1044 849 OFFCURVE",
"718 849 CURVE SMOOTH",
"567 849 LINE",
"567 694 LINE",
"714 694 LINE SMOOTH",
"922 694 OFFCURVE",
"1034 609 OFFCURVE",
"1034 404 CURVE SMOOTH",
"1034 252 OFFCURVE",
"926 139 OFFCURVE",
"738 139 CURVE SMOOTH",
"642 139 OFFCURVE",
"567 164 OFFCURVE",
"512 190 CURVE"
);
}
);
width = 1323;
},
{
layerId = "20EE6398-45C7-446F-8F4E-C33CF1AD7937";
paths = (
{
closed = 1;
nodes = (
"421 955 LINE",
"59 955 LINE",
"59 0 LINE",
"421 0 LINE"
);
},
{
closed = 1;
nodes = (
"421 953 LINE",
"421 1148 OFFCURVE",
"514 1187 OFFCURVE",
"604 1187 CURVE SMOOTH",
"707 1187 OFFCURVE",
"785 1153 OFFCURVE",
"855 1104 CURVE",
"616 843 LINE",
"616 713 LINE",
"869 713 LINE",
"1308 1213 LINE",
"1075 1382 OFFCURVE",
"865 1477 OFFCURVE",
"604 1477 CURVE SMOOTH",
"242 1477 OFFCURVE",
"59 1300 OFFCURVE",
"59 953 CURVE"
);
},
{
closed = 1;
nodes = (
"483 44 LINE",
"562 10 OFFCURVE",
"674 -21 OFFCURVE",
"847 -21 CURVE SMOOTH",
"1116 -21 OFFCURVE",
"1351 123 OFFCURVE",
"1351 426 CURVE SMOOTH",
"1351 715 OFFCURVE",
"1150 864 OFFCURVE",
"808 864 CURVE SMOOTH",
"616 838 LINE",
"616 634 LINE",
"743 634 LINE SMOOTH",
"902 634 OFFCURVE",
"991 591 OFFCURVE",
"991 427 CURVE SMOOTH",
"991 327 OFFCURVE",
"919 269 OFFCURVE",
"793 269 CURVE SMOOTH",
"704 269 OFFCURVE",
"622 299 OFFCURVE",
"585 314 CURVE"
);
}
);
width = 1434.325;
},
{
layerId = "275CACE8-FD52-4067-B7BC-43A450B7EDC9";
paths = (
{
closed = 1;
nodes = (
"329 962 LINE",
"143 962 LINE",
"143 0 LINE",
"329 0 LINE"
);
},
{
closed = 1;
nodes = (
"329 960 LINE",
"329 1158 OFFCURVE",
"374 1326 OFFCURVE",
"593 1326 CURVE SMOOTH",
"728 1326 OFFCURVE",
"811 1276 OFFCURVE",
"875 1224 CURVE",
"568 851 LINE",
"568 733 LINE",
"671 733 LINE",
"1096 1252 LINE",
"966 1376 OFFCURVE",
"810 1476 OFFCURVE",
"593 1476 CURVE SMOOTH",
"288 1476 OFFCURVE",
"143 1301 OFFCURVE",
"143 960 CURVE"
);
},
{
closed = 1;
nodes = (
"458 29 LINE",
"552 -6 OFFCURVE",
"646 -21 OFFCURVE",
"739 -21 CURVE SMOOTH",
"1027 -21 OFFCURVE",
"1231 135 OFFCURVE",
"1231 408 CURVE SMOOTH",
"1231 689 OFFCURVE",
"1045 847 OFFCURVE",
"719 847 CURVE SMOOTH",
"568 847 LINE",
"568 701 LINE",
"715 701 LINE SMOOTH",
"933 701 OFFCURVE",
"1045 610 OFFCURVE",
"1045 404 CURVE SMOOTH",
"1045 243 OFFCURVE",
"932 130 OFFCURVE",
"739 130 CURVE SMOOTH",
"643 130 OFFCURVE",
"567 155 OFFCURVE",
"512 181 CURVE"
);
}
);
width = 1323.18;
}
);
unicode = 1E9E;
},
{
glyphname = T;
layers = (
{
anchors = (
{
name = bottom;
position = "{612, 0}";
},
{
name = bottom_dd;
position = "{1224, -407}";
},
{
name = cross;
position = "{600, 872}";
},
{
name = right;
position = "{639, 0}";
},
{
name = top;
position = "{609, 1604}";
},
{
name = top0315;
position = "{1224, 1604}";
},
{
name = top_dd;
position = "{1224, 1600}";
}
);
layerId = "445B0B85-2678-4800-8A4D-B1A9856CF63B";
paths = (
{
closed = 1;
nodes = (
"639 1456 LINE",
"585 1456 LINE",
"585 0 LINE",
"639 0 LINE"
);
},
{
closed = 1;
nodes = (
"1169 1456 LINE",
"55 1456 LINE",
"55 1402 LINE",
"1169 1402 LINE"
);
}
);
width = 1224;
},
{
anchors = (
{
name = bottom;
position = "{614, 0}";
},
{
name = bottom_dd;
position = "{1222, -407}";
},
{
name = cross;
position = "{619, 897}";
},
{
name = right;
position = "{710, 0}";
},
{
name = top;
position = "{612, 1600}";
},
{
name = top0315;
position = "{1222, 1600}";
},
{
name = top_dd;
position = "{1222, 1600}";
}
);
layerId = "3A1161A8-2FC1-4350-92D1-D5E808DF9456";
paths = (
{
closed = 1;
nodes = (
"715 1456 LINE",
"509 1456 LINE",
"509 0 LINE",
"715 0 LINE"
);
},
{
closed = 1;
nodes = (
"1176 1456 LINE",
"49 1456 LINE",
"49 1289 LINE",
"1176 1289 LINE"
);
}
);
width = 1222;
},
{
anchors = (
{
name = bottom;
position = "{639, 12}";
},
{
name = bottom_dd;
position = "{1298, -407}";
},
{
name = cross;
position = "{605, 797}";
},
{
name = right;
position = "{781, 0}";
},
{
name = top;
position = "{639, 1600}";
},
{
name = top0315;
position = "{1298, 1600}";
},
{
name = top_dd;
position = "{1298, 1600}";
}
);
layerId = "20EE6398-45C7-446F-8F4E-C33CF1AD7937";
paths = (
{
closed = 1;
nodes = (
"831 1456 LINE",
"456 1456 LINE",
"456 0 LINE",
"831 0 LINE"
);
},
{
closed = 1;
nodes = (
"1261 1456 LINE",
"35 1456 LINE",
"35 1153 LINE",
"1261 1153 LINE"
);
}
);
width = 1297.8;
},
{
anchors = (
{
name = bottom;
position = "{614, 0}";
},
{
name = bottom_dd;
position = "{1222, -407}";
},
{
name = cross;
position = "{617, 895}";
},
{
name = right;
position = "{704, 0}";
},
{
name = top;
position = "{612, 1600}";
},
{
name = top0315;
position = "{1222, 1600}";
},
{
name = top_dd;
position = "{1222, 1600}";
}
);
layerId = "275CACE8-FD52-4067-B7BC-43A450B7EDC9";
paths = (
{
closed = 1;
nodes = (
"708 1456 LINE",
"516 1456 LINE",
"516 0 LINE",
"708 0 LINE"
);
},
{
closed = 1;
nodes = (
"1175 1456 LINE",
"50 1456 LINE",
"50 1299 LINE",
"1175 1299 LINE"
);
}
);
width = 1222.18;
}
);
unicode = 0054;
},
{
glyphname = U;
layers = (
{
anchors = (
{
name = bottom;
position = "{683, 0}";
},
{
name = bottom_dd;
position = "{1365, -407}";
},
{
name = ogonek;
position = "{936, 33}";
},
{
name = right;
position = "{799, 0}";
},
{
name = top;
position = "{697, 1612}";
},
{
name = top0315;
position = "{1365, 1612}";
},
{
name = top_dd;
position = "{1365, 1600}";
}
);
guideLines = (
{
position = "{0, 901}";
},
{
position = "{0, 555}";
}
);
layerId = "445B0B85-2678-4800-8A4D-B1A9856CF63B";
paths = (
{
closed = 1;
nodes = (
"1126 1456 LINE",
"1126 469 LINE SMOOTH",
"1126 188 OFFCURVE",
"935 34 OFFCURVE",
"683 34 CURVE SMOOTH",
"431 34 OFFCURVE",
"239 188 OFFCURVE",
"239 469 CURVE SMOOTH",
"239 1456 LINE",
"185 1456 LINE",
"185 469 LINE",
"185 142 OFFCURVE",
"399 -20 OFFCURVE",
"683 -20 CURVE SMOOTH",
"967 -20 OFFCURVE",
"1180 142 OFFCURVE",
"1180 469 CURVE",
"1180 1456 LINE"
);
}
);
width = 1365;
},
{
anchors = (
{
name = bottom;
position = "{664, 0}";
},
{
name = bottom_dd;
position = "{1324, -407}";
},
{
name = ogonek;
position = "{941, 45}";
},
{
name = right;
position = "{838, 0}";
},
{
name = top;
position = "{664, 1600}";
},
{
name = top0315;
position = "{1324, 1600}";
},
{
name = top_dd;
position = "{1324, 1600}";
}
);
guideLines = (
{
position = "{0, 901}";
},
{
position = "{0, 555}";
},
{
angle = 90;
position = "{664, 0}";
}
);
layerId = "3A1161A8-2FC1-4350-92D1-D5E808DF9456";
paths = (
{
closed = 1;
nodes = (
"988 1456 LINE",
"988 471 LINE SMOOTH",
"988 248 OFFCURVE",
"860 146 OFFCURVE",
"664 146 CURVE SMOOTH",
"470 146 OFFCURVE",
"341 248 OFFCURVE",
"341 471 CURVE SMOOTH",
"341 1456 LINE",
"135 1456 LINE",
"135 471 LINE",
"135 143 OFFCURVE",
"366 -20 OFFCURVE",
"664 -20 CURVE SMOOTH",
"946 -20 OFFCURVE",
"1196 143 OFFCURVE",
"1196 471 CURVE",
"1196 1456 LINE"
);
}
);
width = 1324;
},
{
anchors = (
{
name = bottom;
position = "{674, 0}";
},
{
name = bottom_dd;
position = "{1361, -407}";
},
{
name = ogonek;
position = "{1061, 84}";
},
{
name = right;
position = "{838, 0}";
},
{
name = top;
position = "{673, 1599}";
},
{
name = top0315;
position = "{1361, 1599}";
},
{
name = top_dd;
position = "{1361, 1600}";
}
);
layerId = "20EE6398-45C7-446F-8F4E-C33CF1AD7937";
paths = (
{
closed = 1;
nodes = (
"883 1456 LINE",
"883 513 LINE SMOOTH",
"883 347 OFFCURVE",
"816 282 OFFCURVE",
"681 282 CURVE SMOOTH",
"546 282 OFFCURVE",
"476 347 OFFCURVE",
"476 513 CURVE SMOOTH",
"476 1456 LINE",
"99 1456 LINE",
"99 513 LINE",
"99 169 OFFCURVE",
"334 -20 OFFCURVE",
"681 -20 CURVE SMOOTH",
"1031 -20 OFFCURVE",
"1258 169 OFFCURVE",
"1258 513 CURVE",
"1258 1456 LINE"
);
}
);
width = 1361.35;
},
{
anchors = (
{
name = bottom;
position = "{666, 0}";
},
{
name = bottom_dd;
position = "{1328, -407}";
},
{
name = ogonek;
position = "{941, 44}";
},
{
name = right;
position = "{834, 0}";
},
{
name = top;
position = "{667, 1601}";
},
{
name = top0315;
position = "{1328, 1601}";
},
{
name = top_dd;
position = "{1328, 1600}";
}
);
layerId = "275CACE8-FD52-4067-B7BC-43A450B7EDC9";
paths = (
{
closed = 1;
nodes = (
"1000 1456 LINE",
"1000 471 LINE SMOOTH",
"1000 243 OFFCURVE",
"867 136 OFFCURVE",
"666 136 CURVE SMOOTH",
"466 136 OFFCURVE",
"332 243 OFFCURVE",
"332 471 CURVE SMOOTH",
"332 1456 LINE",
"140 1456 LINE",
"140 471 LINE",
"140 143 OFFCURVE",
"369 -20 OFFCURVE",
"666 -20 CURVE SMOOTH",
"948 -20 OFFCURVE",
"1195 143 OFFCURVE",
"1195 471 CURVE",
"1195 1456 LINE"
);
}
);
width = 1327.69;
}
);
unicode = 0055;
userData = {
com.typemytype.robofont.guides = (
{
angle = 0;
isGlobal = 0;
magnetic = 5;
x = 0;
y = 901;
},
{
angle = 0;
isGlobal = 0;
magnetic = 5;
x = 0;
y = 555;
}
);
};
},
{
glyphname = V;
layers = (
{
anchors = (
{
name = bottom;
position = "{614, 10}";
},
{
name = bottom_dd;
position = "{1223, -407}";
},
{
name = top;
position = "{611, 1612}";
},
{
name = top0315;
position = "{1223, 1612}";
},
{
name = top_dd;
position = "{1223, 1600}";
}
);
guideLines = (
{
position = "{0, 901}";
},
{
position = "{0, 555}";
}
);
layerId = "445B0B85-2678-4800-8A4D-B1A9856CF63B";
paths = (
{
closed = 1;
nodes = (
"641 142 LINE",
"594 0 LINE",
"645 0 LINE",
"1189 1456 LINE",
"1130 1456 LINE"
);
},
{
closed = 1;
nodes = (
"94 1456 LINE",
"35 1456 LINE",
"579 0 LINE",
"630 0 LINE",
"583 142 LINE"
);
}
);
width = 1223;
},
{
anchors = (
{
name = bottom;
position = "{660, 10}";
},
{
name = bottom_dd;
position = "{1313, -407}";
},
{
name = top;
position = "{660, 1612}";
},
{
name = top0315;
position = "{1313, 1612}";
},
{
name = top_dd;
position = "{1313, 1600}";
}
);
guideLines = (
{
position = "{0, 901}";
},
{
position = "{0, 555}";
}
);
layerId = "3A1161A8-2FC1-4350-92D1-D5E808DF9456";
paths = (
{
closed = 1;
nodes = (
"639 228 LINE",
"588 0 LINE",
"748 0 LINE",
"1287 1456 LINE",
"1061 1456 LINE"
);
},
{
closed = 1;
nodes = (
"254 1456 LINE",
"28 1456 LINE",
"566 0 LINE",
"726 0 LINE",
"672 228 LINE"
);
}
);
width = 1313;
},
{
anchors = (
{
name = bottom;
position = "{679, 10}";
},
{
name = bottom_dd;
position = "{1364, -407}";
},
{
name = top;
position = "{680, 1612}";
},
{
name = top0315;
position = "{1364, 1612}";
},
{
name = top_dd;
position = "{1364, 1600}";
}
);
layerId = "20EE6398-45C7-446F-8F4E-C33CF1AD7937";
paths = (
{
closed = 1;
nodes = (
"663 375 LINE",
"615 0 LINE",
"886 0 LINE",
"1372 1456 LINE",
"952 1456 LINE"
);
},
{
closed = 1;
nodes = (
"411 1456 LINE",
"-7 1456 LINE",
"476 0 LINE",
"749 0 LINE",
"698 375 LINE"
);
}
);
width = 1363.85;
},
{
anchors = (
{
name = bottom;
position = "{656, 10}";
},
{
name = bottom_dd;
position = "{1305, -407}";
},
{
name = top;
position = "{656, 1612}";
},
{
name = top0315;
position = "{1305, 1612}";
},
{
name = top_dd;
position = "{1305, 1600}";
}
);
layerId = "275CACE8-FD52-4067-B7BC-43A450B7EDC9";
paths = (
{
closed = 1;
nodes = (
"639 220 LINE",
"589 0 LINE",
"739 0 LINE",
"1278 1456 LINE",
"1067 1456 LINE"
);
},
{
closed = 1;
nodes = (
"240 1456 LINE",
"29 1456 LINE",
"567 0 LINE",
"717 0 LINE",
"664 220 LINE"
);
}
);
width = 1304.9;
}
);
unicode = 0056;
userData = {
com.typemytype.robofont.guides = (
{
angle = 0;
isGlobal = 0;
magnetic = 5;
x = 0;
y = 901;
},
{
angle = 0;
isGlobal = 0;
magnetic = 5;
x = 0;
y = 555;
}
);
};
},
{
glyphname = W;
layers = (
{
anchors = (
{
name = bottom;
position = "{926, 10}";
},
{
name = bottom_dd;
position = "{1855, -407}";
},
{
name = top;
position = "{926, 1612}";
},
{
name = top0315;
position = "{1855, 1612}";
},
{
name = top_dd;
position = "{1855, 1600}";
}
);
guideLines = (
{
position = "{0, 901}";
},
{
position = "{0, 555}";
}
);
layerId = "445B0B85-2678-4800-8A4D-B1A9856CF63B";
paths = (
{
closed = 1;
nodes = (
"555 330 LINE",
"464 0 LINE",
"515 0 LINE",
"879 1214 LINE",
"957 1456 LINE",
"899 1456 LINE"
);
},
{
closed = 1;
nodes = (
"121 1456 LINE",
"61 1456 LINE",
"454 0 LINE",
"514 0 LINE",
"423 330 LINE"
);
},
{
closed = 1;
nodes = (
"1434 330 LINE",
"1341 0 LINE",
"1401 0 LINE",
"1793 1456 LINE",
"1734 1456 LINE"
);
},
{
closed = 1;
nodes = (
"959 1456 LINE",
"900 1456 LINE",
"979 1214 LINE",
"1340 0 LINE",
"1391 0 LINE",
"1301 330 LINE"
);
}
);
width = 1855;
},
{
anchors = (
{
name = bottom;
position = "{922, 10}";
},
{
name = bottom_dd;
position = "{1813, -407}";
},
{
name = top;
position = "{924, 1600}";
},
{
name = top0315;
position = "{1813, 1600}";
},
{
name = top_dd;
position = "{1813, 1600}";
}
);
guideLines = (
{
position = "{0, 901}";
},
{
position = "{0, 555}";
}
);
layerId = "3A1161A8-2FC1-4350-92D1-D5E808DF9456";
paths = (
{
closed = 1;
nodes = (
"552 450 LINE",
"448 0 LINE",
"597 0 LINE",
"902 1048 LINE",
"984 1456 LINE",
"834 1456 LINE"
);
},
{
closed = 1;
nodes = (
"268 1456 LINE",
"61 1456 LINE",
"409 0 LINE",
"556 0 LINE",
"490 471 LINE"
);
},
{
closed = 1;
nodes = (
"1346 472 LINE",
"1276 0 LINE",
"1423 0 LINE",
"1771 1456 LINE",
"1563 1456 LINE"
);
},
{
closed = 1;
nodes = (
"1007 1456 LINE",
"860 1456 LINE",
"942 1048 LINE",
"1235 0 LINE",
"1384 0 LINE",
"1281 450 LINE"
);
}
);
width = 1813;
},
{
anchors = (
{
name = bottom;
position = "{884, 10}";
},
{
name = bottom_dd;
position = "{1774, -407}";
},
{
name = top;
position = "{890, 1599}";
},
{
name = top0315;
position = "{1774, 1599}";
},
{
name = top_dd;
position = "{1774, 1600}";
}
);
layerId = "20EE6398-45C7-446F-8F4E-C33CF1AD7937";
paths = (
{
closed = 1;
nodes = (
"438 69 LINE",
"508 0 LINE",
"710 0 LINE",
"1015 1397 LINE",
"905 1456 LINE",
"724 1456 LINE"
);
},
{
closed = 1;
nodes = (
"391 1456 LINE",
"18 1456 LINE",
"321 0 LINE",
"554 0 LINE",
"631 54 LINE"
);
},
{
closed = 1;
nodes = (
"1140 62 LINE",
"1215 0 LINE",
"1448 0 LINE",
"1750 1456 LINE",
"1379 1456 LINE"
);
},
{
closed = 1;
nodes = (
"1041 1456 LINE",
"861 1456 LINE",
"747 1399 LINE",
"1059 0 LINE",
"1261 0 LINE",
"1335 60 LINE"
);
}
);
width = 1774.325;
},
{
anchors = (
{
name = bottom;
position = "{922, 10}";
},
{
name = bottom_dd;
position = "{1817, -407}";
},
{
name = top;
position = "{924, 1601}";
},
{
name = top0315;
position = "{1817, 1601}";
},
{
name = top_dd;
position = "{1817, 1600}";
}
);
layerId = "275CACE8-FD52-4067-B7BC-43A450B7EDC9";
paths = (
{
closed = 1;
nodes = (
"552 439 LINE",
"449 0 LINE",
"590 0 LINE",
"900 1063 LINE",
"982 1456 LINE",
"840 1456 LINE"
);
},
{
closed = 1;
nodes = (
"255 1456 LINE",
"61 1456 LINE",
"413 0 LINE",
"552 0 LINE",
"484 458 LINE"
);
},
{
closed = 1;
nodes = (
"1354 459 LINE",
"1282 0 LINE",
"1421 0 LINE",
"1773 1456 LINE",
"1578 1456 LINE"
);
},
{
closed = 1;
nodes = (
"1003 1456 LINE",
"864 1456 LINE",
"945 1063 LINE",
"1244 0 LINE",
"1385 0 LINE",
"1283 439 LINE"
);
}
);
width = 1816.78;
}
);
unicode = 0057;
userData = {
com.typemytype.robofont.guides = (
{
angle = 0;
isGlobal = 0;
magnetic = 5;
x = 0;
y = 901;
},
{
angle = 0;
isGlobal = 0;
magnetic = 5;
x = 0;
y = 555;
}
);
};
},
{
glyphname = X;
layers = (
{
anchors = (
{
name = bottom;
position = "{655, 10}";
},
{
name = bottom_dd;
position = "{1223, -407}";
},
{
name = cross;
position = "{612, 748}";
},
{
name = right;
position = "{1120, 0}";
},
{
name = top;
position = "{663, 1612}";
},
{
name = top0315;
position = "{1223, 1612}";
},
{
name = top_dd;
position = "{1223, 1600}";
}
);
guideLines = (
{
position = "{0, 901}";
},
{
position = "{0, 555}";
},
{
angle = 90;
position = "{709, 0}";
}
);
layerId = "445B0B85-2678-4800-8A4D-B1A9856CF63B";
paths = (
{
closed = 1;
nodes = (
"141 1456 LINE",
"73 1456 LINE",
"577 743 LINE",
"54 0 LINE",
"119 0 LINE",
"611 701 LINE",
"1101 0 LINE",
"1168 0 LINE",
"645 743 LINE",
"1149 1456 LINE",
"1081 1456 LINE",
"611 785 LINE"
);
}
);
width = 1223;
},
{
anchors = (
{
name = bottom;
position = "{644, 10}";
},
{
name = bottom_dd;
position = "{1291, -407}";
},
{
name = cross;
position = "{647, 742}";
},
{
name = right;
position = "{1109, 0}";
},
{
name = top;
position = "{652, 1612}";
},
{
name = top0315;
position = "{1291, 1612}";
},
{
name = top_dd;
position = "{1291, 1600}";
}
);
guideLines = (
{
position = "{0, 901}";
},
{
position = "{0, 555}";
},
{
angle = 90;
position = "{698, 0}";
}
);
layerId = "3A1161A8-2FC1-4350-92D1-D5E808DF9456";
paths = (
{
closed = 1;
nodes = (
"311 1456 LINE",
"68 1456 LINE",
"524 734 LINE",
"58 0 LINE",
"303 0 LINE",
"648 557 LINE",
"992 0 LINE",
"1237 0 LINE",
"772 734 LINE",
"1227 1456 LINE",
"984 1456 LINE",
"648 908 LINE"
);
}
);
width = 1291;
},
{
anchors = (
{
name = bottom;
position = "{655, 21}";
},
{
name = bottom_dd;
position = "{1314, -407}";
},
{
name = cross;
position = "{653, 742}";
},
{
name = right;
position = "{1141, 0}";
},
{
name = top;
position = "{634, 1612}";
},
{
name = top0315;
position = "{1314, 1612}";
},
{
name = top_dd;
position = "{1314, 1600}";
}
);
layerId = "20EE6398-45C7-446F-8F4E-C33CF1AD7937";
paths = (
{
closed = 1;
nodes = (
"438 1456 LINE",
"10 1456 LINE",
"409 733 LINE",
"0 0 LINE",
"432 0 LINE",
"657 468 LINE",
"882 0 LINE",
"1314 0 LINE",
"905 733 LINE",
"1304 1456 LINE",
"876 1456 LINE",
"657 996 LINE"
);
}
);
width = 1314.475;
},
{
anchors = (
{
name = bottom;
position = "{645, 10}";
},
{
name = bottom_dd;
position = "{1285, -407}";
},
{
name = cross;
position = "{644, 743}";
},
{
name = right;
position = "{1109.99, 0}";
},
{
name = top;
position = "{652.99, 1612}";
},
{
name = top0315;
position = "{1285, 1612}";
},
{
name = top_dd;
position = "{1285, 1600}";
}
);
layerId = "275CACE8-FD52-4067-B7BC-43A450B7EDC9";
paths = (
{
closed = 1;
nodes = (
"296 1456 LINE",
"68 1456 LINE",
"529 735 LINE",
"58 0 LINE",
"286 0 LINE",
"645 570 LINE",
"1002 0 LINE",
"1231 0 LINE",
"761 735 LINE",
"1220 1456 LINE",
"993 1456 LINE",
"645 897 LINE"
);
}
);
width = 1284.88;
}
);
unicode = 0058;
userData = {
com.typemytype.robofont.guides = (
{
angle = 0;
isGlobal = 0;
magnetic = 5;
x = 0;
y = 901;
},
{
angle = 0;
isGlobal = 0;
magnetic = 5;
x = 0;
y = 555;
},
{
angle = 90;
isGlobal = 0;
magnetic = 5;
x = 709;
y = 0;
}
);
};
},
{
glyphname = Y;
layers = (
{
anchors = (
{
name = bottom;
position = "{612, 10}";
},
{
name = bottom_dd;
position = "{1223, -407}";
},
{
name = cross;
position = "{609, 583}";
},
{
name = tonos;
position = "{-72, 1454}";
},
{
name = top;
position = "{608, 1601}";
},
{
name = top0315;
position = "{1223, 1601}";
},
{
name = top_dd;
position = "{1223, 1600}";
}
);
guideLines = (
{
position = "{0, 901}";
},
{
position = "{0, 555}";
}
);
layerId = "445B0B85-2678-4800-8A4D-B1A9856CF63B";
paths = (
{
closed = 1;
nodes = (
"105 1456 LINE",
"33 1456 LINE",
"582 553 LINE",
"582 0 LINE",
"636 0 LINE",
"636 553 LINE",
"1185 1456 LINE",
"1119 1456 LINE",
"609 602 LINE"
);
}
);
width = 1223;
},
{
anchors = (
{
name = bottom;
position = "{615, 0}";
},
{
name = bottom_dd;
position = "{1231, -407}";
},
{
name = cross;
position = "{614, 594}";
},
{
name = tonos;
position = "{-63, 1454}";
},
{
name = top;
position = "{619, 1600}";
},
{
name = top0315;
position = "{1231, 1600}";
},
{
name = top_dd;
position = "{1231, 1600}";
}
);
guideLines = (
{
position = "{0, 901}";
},
{
position = "{0, 555}";
}
);
layerId = "3A1161A8-2FC1-4350-92D1-D5E808DF9456";
paths = (
{
closed = 1;
nodes = (
"250 1456 LINE",
"13 1456 LINE",
"510 543 LINE",
"510 0 LINE",
"718 0 LINE",
"718 543 LINE",
"1215 1456 LINE",
"979 1456 LINE",
"614 736 LINE"
);
}
);
width = 1231;
},
{
anchors = (
{
name = bottom;
position = "{643, 57}";
},
{
name = bottom_dd;
position = "{1292, -407}";
},
{
name = cross;
position = "{651, 607}";
},
{
name = tonos;
position = "{-73, 1454}";
},
{
name = top;
position = "{647, 1600}";
},
{
name = top0315;
position = "{1292, 1600}";
},
{
name = top_dd;
position = "{1292, 1600}";
}
);
layerId = "20EE6398-45C7-446F-8F4E-C33CF1AD7937";
paths = (
{
closed = 1;
nodes = (
"397 1456 LINE",
"-7 1456 LINE",
"456 518 LINE",
"456 0 LINE",
"837 0 LINE",
"837 518 LINE",
"1299 1456 LINE",
"895 1456 LINE",
"646 854 LINE"
);
}
);
width = 1291.625;
},
{
anchors = (
{
name = bottom;
position = "{615, 1}";
},
{
name = bottom_dd;
position = "{1230, -407}";
},
{
name = cross;
position = "{614, 593}";
},
{
name = tonos;
position = "{-64, 1454}";
},
{
name = top;
position = "{618, 1600}";
},
{
name = top0315;
position = "{1230, 1600}";
},
{
name = top_dd;
position = "{1230, 1600}";
}
);
layerId = "275CACE8-FD52-4067-B7BC-43A450B7EDC9";
paths = (
{
closed = 1;
nodes = (
"237 1456 LINE",
"15 1456 LINE",
"516 544 LINE",
"516 0 LINE",
"711 0 LINE",
"711 544 LINE",
"1212 1456 LINE",
"992 1456 LINE",
"614 724 LINE"
);
}
);
width = 1230.28;
}
);
unicode = 0059;
userData = {
com.typemytype.robofont.guides = (
{
angle = 0;
isGlobal = 0;
magnetic = 5;
x = 0;
y = 901;
},
{
angle = 0;
isGlobal = 0;
magnetic = 5;
x = 0;
y = 555;
}
);
};
},
{
glyphname = Z;
layers = (
{
anchors = (
{
name = bottom;
position = "{643, 10}";
},
{
name = bottom_dd;
position = "{1224, -407}";
},
{
name = top;
position = "{609, 1612}";
},
{
name = top0315;
position = "{1224, 1612}";
},
{
name = top_dd;
position = "{1224, 1600}";
}
);
layerId = "445B0B85-2678-4800-8A4D-B1A9856CF63B";
paths = (
{
closed = 1;
nodes = (
"1130 54 LINE",
"111 54 LINE",
"111 0 LINE",
"1130 0 LINE"
);
},
{
closed = 1;
nodes = (
"1098 1418 LINE",
"1098 1456 LINE",
"1059 1456 LINE",
"94 44 LINE",
"94 0 LINE",
"131 0 LINE"
);
},
{
closed = 1;
nodes = (
"1072 1456 LINE",
"134 1456 LINE",
"134 1403 LINE",
"1072 1403 LINE"
);
}
);
width = 1224;
},
{
anchors = (
{
name = bottom;
position = "{610, 10}";
},
{
name = bottom_dd;
position = "{1227, -407}";
},
{
name = top;
position = "{617, 1600}";
},
{
name = top0315;
position = "{1227, 1600}";
},
{
name = top_dd;
position = "{1227, 1600}";
}
);
layerId = "3A1161A8-2FC1-4350-92D1-D5E808DF9456";
paths = (
{
closed = 1;
nodes = (
"1148 166 LINE",
"165 166 LINE",
"165 0 LINE",
"1148 0 LINE"
);
},
{
closed = 1;
nodes = (
"1116 1307 LINE",
"1116 1456 LINE",
"987 1456 LINE",
"86 153 LINE",
"86 0 LINE",
"214 0 LINE"
);
},
{
closed = 1;
nodes = (
"1028 1456 LINE",
"96 1456 LINE",
"96 1289 LINE",
"1028 1289 LINE"
);
}
);
width = 1227;
},
{
anchors = (
{
name = bottom;
position = "{637, 10}";
},
{
name = bottom_dd;
position = "{1252, -407}";
},
{
name = top;
position = "{638, 1599}";
},
{
name = top0315;
position = "{1252, 1599}";
},
{
name = top_dd;
position = "{1252, 1600}";
}
);
layerId = "20EE6398-45C7-446F-8F4E-C33CF1AD7937";
paths = (
{
closed = 1;
nodes = (
"1207 302 LINE",
"149 302 LINE",
"149 0 LINE",
"1207 0 LINE"
);
},
{
closed = 1;
nodes = (
"1202 1261 LINE",
"1202 1456 LINE",
"941 1456 LINE",
"65 200 LINE",
"65 0 LINE",
"337 0 LINE"
);
},
{
closed = 1;
nodes = (
"1082 1456 LINE",
"56 1456 LINE",
"56 1153 LINE",
"1082 1153 LINE"
);
}
);
width = 1251.725;
},
{
anchors = (
{
name = bottom;
position = "{613, 10}";
},
{
name = bottom_dd;
position = "{1227, -407}";
},
{
name = top;
position = "{616, 1601}";
},
{
name = top0315;
position = "{1227, 1601}";
},
{
name = top_dd;
position = "{1227, 1600}";
}
);
layerId = "275CACE8-FD52-4067-B7BC-43A450B7EDC9";
paths = (
{
closed = 1;
nodes = (
"1146 156 LINE",
"160 156 LINE",
"160 0 LINE",
"1146 0 LINE"
);
},
{
closed = 1;
nodes = (
"1114 1317 LINE",
"1114 1456 LINE",
"993 1456 LINE",
"87 143 LINE",
"87 0 LINE",
"207 0 LINE"
);
},
{
closed = 1;
nodes = (
"1032 1456 LINE",
"99 1456 LINE",
"99 1299 LINE",
"1032 1299 LINE"
);
}
);
width = 1226.73;
}
);
unicode = 005A;
},
{
glyphname = K.alt;
layers = (
{
anchors = (
{
name = cross;
position = "{282, 1130}";
},
{
name = right;
position = "{1180, -35}";
}
);
layerId = "445B0B85-2678-4800-8A4D-B1A9856CF63B";
paths = (
{
closed = 1;
nodes = (
"254 1456 LINE",
"200 1456 LINE",
"200 0 LINE",
"254 0 LINE"
);
},
{
closed = 1;
nodes = (
"1181 1456 LINE",
"1110 1456 LINE",
"492 764 LINE",
"240 764 LINE",
"232 711 LINE",
"520 711 LINE"
);
},
{
closed = 1;
nodes = (
"1156 0 LINE",
"1227 0 LINE",
"508 761 LINE",
"474 714 LINE"
);
}
);
width = 1300;
},
{
anchors = (
{
name = cross;
position = "{309, 1153}";
},
{
name = right;
position = "{1187, 0}";
}
);
layerId = "3A1161A8-2FC1-4350-92D1-D5E808DF9456";
paths = (
{
closed = 1;
nodes = (
"384 1456 LINE",
"176 1456 LINE",
"176 0 LINE",
"384 0 LINE"
);
},
{
closed = 1;
nodes = (
"1278 1456 LINE",
"1020 1456 LINE",
"524 819 LINE",
"267 819 LINE",
"301 650 LINE",
"649 650 LINE"
);
},
{
closed = 1;
nodes = (
"1065 0 LINE",
"1319 0 LINE",
"649 857 LINE",
"533 677 LINE"
);
}
);
width = 1318;
},
{
anchors = (
{
name = cross;
position = "{284, 1209}";
},
{
name = right;
position = "{1271, 3}";
}
);
layerId = "20EE6398-45C7-446F-8F4E-C33CF1AD7937";
paths = (
{
closed = 1;
nodes = (
"476 1456 LINE",
"101 1456 LINE",
"101 0 LINE",
"476 0 LINE"
);
},
{
closed = 1;
nodes = (
"1309 1456 LINE",
"855 1456 LINE",
"604 914 LINE",
"366 914 LINE",
"412 555 LINE",
"797 555 LINE"
);
},
{
closed = 1;
nodes = (
"916 0 LINE",
"1359 0 LINE",
"878 883 LINE",
"604 625 LINE"
);
}
);
width = 1327.925;
},
{
anchors = (
{
name = cross;
position = "{307, 1151}";
},
{
name = right;
position = "{1186, -3}";
}
);
layerId = "275CACE8-FD52-4067-B7BC-43A450B7EDC9";
paths = (
{
closed = 1;
nodes = (
"372 1456 LINE",
"178 1456 LINE",
"178 0 LINE",
"372 0 LINE"
);
},
{
closed = 1;
nodes = (
"1269 1456 LINE",
"1028 1456 LINE",
"521 814 LINE",
"265 814 LINE",
"295 655 LINE",
"637 655 LINE"
);
},
{
closed = 1;
nodes = (
"1073 0 LINE",
"1311 0 LINE",
"636 848 LINE",
"528 680 LINE"
);
}
);
width = 1316.38;
}
);
},
{
glyphname = R.alt;
layers = (
{
anchors = (
{
name = bottom;
position = "{606, 10}";
},
{
name = top;
position = "{606, 1612}";
},
{
name = top0315;
position = "{1340, 1612}";
}
);
layerId = "445B0B85-2678-4800-8A4D-B1A9856CF63B";
paths = (
{
closed = 1;
nodes = (
"706 683 LINE",
"716 703 LINE",
"790 703 LINE",
"1014 724 OFFCURVE",
"1137 896 OFFCURVE",
"1137 1065 CURVE",
"1137 1323 OFFCURVE",
"964 1455 OFFCURVE",
"659 1455 CURVE",
"195 1455 LINE",
"195 -1 LINE",
"249 -1 LINE",
"249 1401 LINE",
"659 1401 LINE",
"944 1401 OFFCURVE",
"1083 1281 OFFCURVE",
"1083 1065 CURVE",
"1083 899 OFFCURVE",
"970 737 OFFCURVE",
"649 737 CURVE",
"206 737 LINE",
"208 683 LINE"
);
},
{
closed = 1;
nodes = (
"692 683 LINE",
"946 683 OFFCURVE",
"1077 565 OFFCURVE",
"1077 369 CURVE",
"1077 236 LINE",
"1077 136 OFFCURVE",
"1102 54 OFFCURVE",
"1149 -1 CURVE",
"1202 -1 LINE",
"1202 24 LINE",
"1149 73 OFFCURVE",
"1131 151 OFFCURVE",
"1131 234 CURVE",
"1131 371 LINE",
"1131 574 OFFCURVE",
"1036 722 OFFCURVE",
"704 722 CURVE"
);
}
);
width = 1340;
},
{
anchors = (
{
name = bottom;
position = "{621, 10}";
},
{
name = top;
position = "{621, 1612}";
},
{
name = top0315;
position = "{1358, 1612}";
}
);
layerId = "3A1161A8-2FC1-4350-92D1-D5E808DF9456";
paths = (
{
closed = 1;
nodes = (
"738 624 LINE",
"824 643 LINE",
"842 673 LINE",
"1069 727 OFFCURVE",
"1201 850 OFFCURVE",
"1201 1039 CURVE",
"1201 1311 OFFCURVE",
"1028 1456 OFFCURVE",
"708 1456 CURVE",
"176 1456 LINE",
"176 0 LINE",
"384 0 LINE",
"384 1289 LINE",
"706 1289 LINE",
"911 1289 OFFCURVE",
"993 1190 OFFCURVE",
"993 1039 CURVE",
"993 875 OFFCURVE",
"908 790 OFFCURVE",
"687 790 CURVE",
"336 790 LINE",
"338 624 LINE"
);
},
{
closed = 1;
nodes = (
"733 624 LINE",
"887 624 OFFCURVE",
"982 521 OFFCURVE",
"982 367 CURVE",
"982 238 LINE",
"982 190 OFFCURVE",
"982 54 OFFCURVE",
"1043 0 CURVE",
"1257 0 LINE",
"1257 25 LINE",
"1205 74 OFFCURVE",
"1190 155 OFFCURVE",
"1190 236 CURVE",
"1190 369 LINE",
"1190 586 OFFCURVE",
"1089 742 OFFCURVE",
"756 742 CURVE"
);
}
);
width = 1358;
},
{
anchors = (
{
name = bottom;
position = "{638, 10}";
},
{
name = top;
position = "{638, 1612}";
},
{
name = top0315;
position = "{1325, 1612}";
}
);
hints = (
{
horizontal = 1;
place = "{-2147483648, 0}";
type = Tag;
}
);
layerId = "20EE6398-45C7-446F-8F4E-C33CF1AD7937";
paths = (
{
closed = 1;
nodes = (
"747 529 LINE",
"838 561 LINE",
"852 656 LINE",
"1077 721 OFFCURVE",
"1233 804 OFFCURVE",
"1233 1020 CURVE",
"1233 1294 OFFCURVE",
"1052 1456 OFFCURVE",
"712 1456 CURVE",
"101 1456 LINE",
"101 0 LINE",
"476 0 LINE",
"476 1153 LINE",
"684 1153 LINE",
"804 1153 OFFCURVE",
"858 1079 OFFCURVE",
"858 981 CURVE",
"858 883 OFFCURVE",
"789 831 OFFCURVE",
"676 831 CURVE",
"337 831 LINE",
"337 529 LINE"
);
},
{
closed = 1;
nodes = (
"658 529 LINE",
"791 529 OFFCURVE",
"841 465 OFFCURVE",
"841 335 CURVE",
"841 261 LINE",
"841 226 OFFCURVE",
"846 47 OFFCURVE",
"908 0 CURVE",
"1293 0 LINE",
"1293 31 LINE",
"1228 79 OFFCURVE",
"1215 225 OFFCURVE",
"1215 259 CURVE",
"1215 337 LINE",
"1215 555 OFFCURVE",
"1115 708 OFFCURVE",
"761 718 CURVE"
);
}
);
width = 1325.05;
},
{
anchors = (
{
name = bottom;
position = "{620, 10}";
},
{
name = top;
position = "{620, 1612}";
},
{
name = top0315;
position = "{1356, 1612}";
}
);
hints = (
{
horizontal = 1;
place = "{0, 0}";
type = Tag;
}
);
layerId = "275CACE8-FD52-4067-B7BC-43A450B7EDC9";
paths = (
{
closed = 1;
nodes = (
"735 629 LINE",
"814 648 LINE",
"837 676 LINE",
"1064 727 OFFCURVE",
"1195 854 OFFCURVE",
"1195 1041 CURVE",
"1195 1312 OFFCURVE",
"1022 1456 OFFCURVE",
"704 1456 CURVE",
"178 1456 LINE",
"178 0 LINE",
"372 0 LINE",
"372 1299 LINE",
"702 1299 LINE",
"914 1299 OFFCURVE",
"1001 1198 OFFCURVE",
"1001 1041 CURVE",
"1001 877 OFFCURVE",
"914 785 OFFCURVE",
"684 785 CURVE",
"324 785 LINE",
"326 629 LINE"
);
},
{
closed = 1;
nodes = (
"729 629 LINE",
"892 629 OFFCURVE",
"991 525 OFFCURVE",
"991 367 CURVE",
"991 238 LINE",
"991 185 OFFCURVE",
"993 54 OFFCURVE",
"1053 0 CURVE",
"1252 0 LINE",
"1252 25 LINE",
"1200 74 OFFCURVE",
"1185 155 OFFCURVE",
"1185 236 CURVE",
"1185 369 LINE",
"1185 585 OFFCURVE",
"1084 740 OFFCURVE",
"751 740 CURVE"
);
}
);
width = 1356.38;
}
);
},
{
glyphname = K.alt2;
layers = (
{
layerId = "445B0B85-2678-4800-8A4D-B1A9856CF63B";
paths = (
{
closed = 1;
nodes = (
"254 1456 LINE",
"200 1456 LINE",
"200 0 LINE",
"254 0 LINE"
);
},
{
closed = 1;
nodes = (
"1101 1456 LINE",
"1020 1456 LINE",
"266 747 LINE",
"220 747 LINE",
"232 711 LINE",
"307 711 LINE"
);
},
{
closed = 1;
nodes = (
"1066 0 LINE",
"1147 0 LINE",
"298 758 LINE",
"264 714 LINE"
);
}
);
width = 1300;
},
{
layerId = "3A1161A8-2FC1-4350-92D1-D5E808DF9456";
paths = (
{
closed = 1;
nodes = (
"384 1456 LINE",
"176 1456 LINE",
"176 0 LINE",
"384 0 LINE"
);
},
{
closed = 1;
nodes = (
"1249 1456 LINE",
"991 1456 LINE",
"395 815 LINE",
"267 815 LINE",
"277 720 LINE",
"574 720 LINE"
);
},
{
closed = 1;
nodes = (
"1034 0 LINE",
"1289 0 LINE",
"503 853 LINE",
"328 747 LINE"
);
}
);
width = 1346;
},
{
layerId = "20EE6398-45C7-446F-8F4E-C33CF1AD7937";
paths = (
{
closed = 1;
nodes = (
"476 1456 LINE",
"101 1456 LINE",
"101 0 LINE",
"476 0 LINE"
);
},
{
closed = 1;
nodes = (
"1308 1456 LINE",
"846 1456 LINE",
"468 821 LINE",
"367 821 LINE",
"377 637 LINE",
"762 637 LINE"
);
},
{
closed = 1;
nodes = (
"864 0 LINE",
"1333 0 LINE",
"782 799 LINE",
"419 693 LINE"
);
}
);
width = 1320.05;
},
{
layerId = "275CACE8-FD52-4067-B7BC-43A450B7EDC9";
paths = (
{
closed = 1;
nodes = (
"372 1456 LINE",
"178 1456 LINE",
"178 0 LINE",
"372 0 LINE"
);
},
{
closed = 1;
nodes = (
"1236 1456 LINE",
"994 1456 LINE",
"383 809 LINE",
"263 809 LINE",
"273 719 LINE",
"550 719 LINE"
);
},
{
closed = 1;
nodes = (
"1037 0 LINE",
"1276 0 LINE",
"485 844 LINE",
"322 744 LINE"
);
}
);
width = 1341.86;
}
);
},
{
glyphname = C.ss06;
layers = (
{
layerId = "445B0B85-2678-4800-8A4D-B1A9856CF63B";
paths = (
{
closed = 1;
nodes = (
"1182 446 LINE",
"1142 175 OFFCURVE",
"987 33 OFFCURVE",
"717 33 CURVE SMOOTH",
"398 33 OFFCURVE",
"184 322 OFFCURVE",
"184 699 CURVE SMOOTH",
"184 759 LINE SMOOTH",
"184 1134 OFFCURVE",
"398 1423 OFFCURVE",
"717 1423 CURVE SMOOTH",
"993 1423 OFFCURVE",
"1142 1266 OFFCURVE",
"1182 1012 CURVE",
"1236 1012 LINE",
"1196 1310 OFFCURVE",
"1009 1477 OFFCURVE",
"717 1477 CURVE SMOOTH",
"361 1477 OFFCURVE",
"130 1161 OFFCURVE",
"130 757 CURVE",
"130 699 LINE",
"130 295 OFFCURVE",
"361 -21 OFFCURVE",
"717 -21 CURVE SMOOTH",
"1009 -21 OFFCURVE",
"1198 144 OFFCURVE",
"1236 446 CURVE"
);
}
);
width = 1336;
},
{
layerId = "3A1161A8-2FC1-4350-92D1-D5E808DF9456";
paths = (
{
closed = 1;
nodes = (
"1109 464 LINE",
"1078 266 OFFCURVE",
"988 145 OFFCURVE",
"758 145 CURVE SMOOTH",
"513 145 OFFCURVE",
"334 369 OFFCURVE",
"334 697 CURVE SMOOTH",
"334 760 LINE SMOOTH",
"334 1087 OFFCURVE",
"493 1310 OFFCURVE",
"748 1310 CURVE SMOOTH",
"967 1310 OFFCURVE",
"1080 1184 OFFCURVE",
"1109 987 CURVE",
"1318 987 LINE",
"1288 1274 OFFCURVE",
"1082 1477 OFFCURVE",
"748 1477 CURVE SMOOTH",
"383 1477 OFFCURVE",
"126 1192 OFFCURVE",
"126 758 CURVE",
"126 697 LINE",
"126 263 OFFCURVE",
"402 -21 OFFCURVE",
"758 -21 CURVE SMOOTH",
"1102 -21 OFFCURVE",
"1287 190 OFFCURVE",
"1317 464 CURVE"
);
}
);
width = 1418;
},
{
layerId = "20EE6398-45C7-446F-8F4E-C33CF1AD7937";
paths = (
{
closed = 1;
nodes = (
"948 501 LINE",
"932 363 OFFCURVE",
"859 281 OFFCURVE",
"706 281 CURVE SMOOTH",
"523 281 OFFCURVE",
"437 430 OFFCURVE",
"437 708 CURVE SMOOTH",
"437 749 LINE SMOOTH",
"437 1030 OFFCURVE",
"548 1174 OFFCURVE",
"709 1174 CURVE SMOOTH",
"888 1174 OFFCURVE",
"932 1096 OFFCURVE",
"950 943 CURVE",
"1325 943 LINE",
"1296 1271 OFFCURVE",
"1097 1477 OFFCURVE",
"709 1477 CURVE SMOOTH",
"338 1477 OFFCURVE",
"62 1204 OFFCURVE",
"62 747 CURVE",
"62 708 LINE",
"62 251 OFFCURVE",
"316 -21 OFFCURVE",
"706 -21 CURVE SMOOTH",
"1076 -21 OFFCURVE",
"1294 155 OFFCURVE",
"1322 501 CURVE"
);
}
);
width = 1371.475;
},
{
layerId = "275CACE8-FD52-4067-B7BC-43A450B7EDC9";
paths = (
{
closed = 1;
nodes = (
"1116 462 LINE",
"1084 258 OFFCURVE",
"988 135 OFFCURVE",
"754 135 CURVE SMOOTH",
"503 135 OFFCURVE",
"321 365 OFFCURVE",
"321 697 CURVE SMOOTH",
"321 760 LINE SMOOTH",
"321 1091 OFFCURVE",
"484 1320 OFFCURVE",
"745 1320 CURVE SMOOTH",
"969 1320 OFFCURVE",
"1086 1191 OFFCURVE",
"1116 989 CURVE",
"1311 989 LINE",
"1280 1277 OFFCURVE",
"1075 1477 OFFCURVE",
"745 1477 CURVE SMOOTH",
"381 1477 OFFCURVE",
"126 1189 OFFCURVE",
"126 758 CURVE",
"126 697 LINE",
"126 266 OFFCURVE",
"398 -21 OFFCURVE",
"754 -21 CURVE SMOOTH",
"1094 -21 OFFCURVE",
"1279 186 OFFCURVE",
"1310 462 CURVE"
);
}
);
width = 1410.62;
}
);
},
{
glyphname = D.ss06;
layers = (
{
layerId = "445B0B85-2678-4800-8A4D-B1A9856CF63B";
paths = (
{
closed = 1;
nodes = (
"583 0 LINE",
"960 0 OFFCURVE",
"1244 284 OFFCURVE",
"1244 699 CURVE",
"1244 757 LINE",
"1244 1172 OFFCURVE",
"960 1456 OFFCURVE",
"583 1456 CURVE",
"242 1456 LINE",
"242 1402 LINE",
"583 1402 LINE",
"929 1402 OFFCURVE",
"1190 1135 OFFCURVE",
"1190 760 CURVE",
"1190 699 LINE SMOOTH",
"1190 321 OFFCURVE",
"929 54 OFFCURVE",
"583 54 CURVE",
"250 54 LINE",
"248 0 LINE"
);
},
{
closed = 1;
nodes = (
"254 1456 LINE",
"200 1456 LINE",
"200 0 LINE",
"254 0 LINE"
);
}
);
width = 1374;
},
{
layerId = "3A1161A8-2FC1-4350-92D1-D5E808DF9456";
paths = (
{
closed = 1;
nodes = (
"596 0 LINE",
"1009 0 OFFCURVE",
"1303 272 OFFCURVE",
"1303 707 CURVE",
"1303 748 LINE",
"1303 1183 OFFCURVE",
"1005 1456 OFFCURVE",
"615 1456 CURVE",
"263 1456 LINE",
"263 1289 LINE",
"614 1289 LINE",
"904 1289 OFFCURVE",
"1093 1093 OFFCURVE",
"1093 750 CURVE",
"1093 707 LINE SMOOTH",
"1093 382 OFFCURVE",
"910 166 OFFCURVE",
"595 166 CURVE",
"271 166 LINE",
"269 0 LINE"
);
},
{
closed = 1;
nodes = (
"384 1456 LINE",
"176 1456 LINE",
"176 0 LINE",
"384 0 LINE"
);
}
);
width = 1433;
},
{
layerId = "20EE6398-45C7-446F-8F4E-C33CF1AD7937";
paths = (
{
closed = 1;
nodes = (
"574 0 LINE",
"1027 0 OFFCURVE",
"1310 315 OFFCURVE",
"1310 706 CURVE",
"1310 749 LINE",
"1310 1140 OFFCURVE",
"1028 1456 OFFCURVE",
"568 1456 CURVE",
"254 1456 LINE",
"254 1153 LINE",
"542 1153 LINE",
"846 1153 OFFCURVE",
"935 959 OFFCURVE",
"935 750 CURVE",
"935 706 LINE SMOOTH",
"935 493 OFFCURVE",
"844 302 OFFCURVE",
"547 302 CURVE",
"262 302 LINE",
"260 0 LINE"
);
},
{
closed = 1;
nodes = (
"476 1456 LINE",
"101 1456 LINE",
"101 0 LINE",
"476 0 LINE"
);
}
);
width = 1372.5;
},
{
layerId = "275CACE8-FD52-4067-B7BC-43A450B7EDC9";
paths = (
{
closed = 1;
nodes = (
"595 0 LINE",
"1005 0 OFFCURVE",
"1298 273 OFFCURVE",
"1298 706 CURVE",
"1298 749 LINE",
"1298 1182 OFFCURVE",
"1001 1456 OFFCURVE",
"612 1456 CURVE",
"261 1456 LINE",
"261 1299 LINE",
"611 1299 LINE",
"906 1299 OFFCURVE",
"1102 1097 OFFCURVE",
"1102 751 CURVE",
"1102 706 LINE SMOOTH",
"1102 377 OFFCURVE",
"912 156 OFFCURVE",
"594 156 CURVE",
"269 156 LINE",
"267 0 LINE"
);
},
{
closed = 1;
nodes = (
"372 1456 LINE",
"178 1456 LINE",
"178 0 LINE",
"372 0 LINE"
);
}
);
width = 1427.69;
}
);
},
{
glyphname = G.ss06;
layers = (
{
layerId = "445B0B85-2678-4800-8A4D-B1A9856CF63B";
paths = (
{
closed = 1;
nodes = (
"1248 660 LINE",
"749 660 LINE",
"749 605 LINE",
"1194 605 LINE",
"1194 181 LINE",
"1151 122 OFFCURVE",
"998 33 OFFCURVE",
"771 33 CURVE SMOOTH",
"415 33 OFFCURVE",
"184 341 OFFCURVE",
"184 720 CURVE SMOOTH",
"184 760 LINE SMOOTH",
"184 1124 OFFCURVE",
"393 1422 OFFCURVE",
"714 1422 CURVE SMOOTH",
"1030 1422 OFFCURVE",
"1161 1252 OFFCURVE",
"1192 1062 CURVE",
"1246 1062 LINE",
"1218 1295 OFFCURVE",
"1041 1476 OFFCURVE",
"714 1476 CURVE SMOOTH",
"369 1476 OFFCURVE",
"130 1161 OFFCURVE",
"130 758 CURVE SMOOTH",
"130 720 LINE SMOOTH",
"130 304 OFFCURVE",
"391 -21 OFFCURVE",
"771 -21 CURVE SMOOTH",
"1044 -21 OFFCURVE",
"1203 90 OFFCURVE",
"1248 156 CURVE"
);
}
);
width = 1428;
},
{
layerId = "3A1161A8-2FC1-4350-92D1-D5E808DF9456";
paths = (
{
closed = 1;
nodes = (
"1318 729 LINE",
"787 729 LINE",
"787 565 LINE",
"1111 565 LINE",
"1111 248 LINE",
"1075 206 OFFCURVE",
"975 145 OFFCURVE",
"784 145 CURVE SMOOTH",
"530 145 OFFCURVE",
"334 356 OFFCURVE",
"334 714 CURVE SMOOTH",
"334 742 LINE SMOOTH",
"334 1090 OFFCURVE",
"507 1310 OFFCURVE",
"750 1310 CURVE SMOOTH",
"990 1310 OFFCURVE",
"1079 1181 OFFCURVE",
"1110 1027 CURVE",
"1318 1027 LINE",
"1277 1287 OFFCURVE",
"1108 1477 OFFCURVE",
"750 1477 CURVE SMOOTH",
"391 1477 OFFCURVE",
"126 1203 OFFCURVE",
"126 740 CURVE SMOOTH",
"126 714 LINE SMOOTH",
"126 252 OFFCURVE",
"415 -21 OFFCURVE",
"784 -21 CURVE SMOOTH",
"1102 -21 OFFCURVE",
"1264 114 OFFCURVE",
"1318 194 CURVE"
);
}
);
width = 1458;
},
{
layerId = "20EE6398-45C7-446F-8F4E-C33CF1AD7937";
paths = (
{
closed = 1;
nodes = (
"1324 773 LINE",
"748 773 LINE",
"748 506 LINE",
"948 506 LINE",
"948 314 LINE",
"924 293 OFFCURVE",
"864 281 OFFCURVE",
"774 281 CURVE SMOOTH",
"558 281 OFFCURVE",
"437 453 OFFCURVE",
"437 688 CURVE SMOOTH",
"437 754 LINE SMOOTH",
"437 1012 OFFCURVE",
"552 1174 OFFCURVE",
"733 1174 CURVE SMOOTH",
"858 1174 OFFCURVE",
"945 1107 OFFCURVE",
"962 968 CURVE",
"1323 968 LINE",
"1296 1268 OFFCURVE",
"1103 1477 OFFCURVE",
"720 1477 CURVE SMOOTH",
"334 1477 OFFCURVE",
"62 1185 OFFCURVE",
"62 752 CURVE SMOOTH",
"62 688 LINE SMOOTH",
"62 274 OFFCURVE",
"357 -21 OFFCURVE",
"774 -21 CURVE SMOOTH",
"1065 -21 OFFCURVE",
"1251 95 OFFCURVE",
"1324 178 CURVE"
);
}
);
width = 1407.575;
},
{
layerId = "275CACE8-FD52-4067-B7BC-43A450B7EDC9";
paths = (
{
closed = 1;
nodes = (
"1312 723 LINE",
"784 723 LINE",
"784 569 LINE",
"1118 569 LINE",
"1118 242 LINE",
"1082 198 OFFCURVE",
"977 135 OFFCURVE",
"783 135 CURVE SMOOTH",
"520 135 OFFCURVE",
"321 355 OFFCURVE",
"321 715 CURVE SMOOTH",
"321 744 LINE SMOOTH",
"321 1093 OFFCURVE",
"497 1320 OFFCURVE",
"747 1320 CURVE SMOOTH",
"994 1320 OFFCURVE",
"1086 1187 OFFCURVE",
"1117 1030 CURVE",
"1312 1030 LINE",
"1272 1288 OFFCURVE",
"1102 1477 OFFCURVE",
"747 1477 CURVE SMOOTH",
"389 1477 OFFCURVE",
"126 1199 OFFCURVE",
"126 742 CURVE SMOOTH",
"126 715 LINE SMOOTH",
"126 257 OFFCURVE",
"413 -21 OFFCURVE",
"783 -21 CURVE SMOOTH",
"1097 -21 OFFCURVE",
"1259 112 OFFCURVE",
"1312 191 CURVE"
);
}
);
width = 1455.3;
}
);
},
{
glyphname = O.ss06;
layers = (
{
layerId = "445B0B85-2678-4800-8A4D-B1A9856CF63B";
paths = (
{
closed = 1;
nodes = (
"1288 757 LINE",
"1288 1173 OFFCURVE",
"1043 1477 OFFCURVE",
"708 1477 CURVE SMOOTH",
"374 1477 OFFCURVE",
"130 1173 OFFCURVE",
"130 757 CURVE",
"130 699 LINE",
"130 283 OFFCURVE",
"376 -21 OFFCURVE",
"710 -21 CURVE SMOOTH",
"1045 -21 OFFCURVE",
"1288 283 OFFCURVE",
"1288 699 CURVE"
);
},
{
closed = 1;
nodes = (
"1234 699 LINE",
"1234 321 OFFCURVE",
"1024 33 OFFCURVE",
"710 33 CURVE SMOOTH",
"398 33 OFFCURVE",
"185 321 OFFCURVE",
"185 699 CURVE SMOOTH",
"185 759 LINE SMOOTH",
"185 1135 OFFCURVE",
"396 1423 OFFCURVE",
"708 1423 CURVE SMOOTH",
"1022 1423 OFFCURVE",
"1234 1135 OFFCURVE",
"1234 759 CURVE"
);
}
);
width = 1418;
},
{
layerId = "3A1161A8-2FC1-4350-92D1-D5E808DF9456";
paths = (
{
closed = 1;
nodes = (
"1385 749 LINE",
"1385 1176 OFFCURVE",
"1114 1477 OFFCURVE",
"755 1477 CURVE SMOOTH",
"407 1477 OFFCURVE",
"126 1176 OFFCURVE",
"126 749 CURVE",
"126 707 LINE",
"126 279 OFFCURVE",
"409 -21 OFFCURVE",
"757 -21 CURVE SMOOTH",
"1116 -21 OFFCURVE",
"1385 279 OFFCURVE",
"1385 707 CURVE"
);
},
{
closed = 1;
nodes = (
"1179 707 LINE",
"1179 373 OFFCURVE",
"1003 152 OFFCURVE",
"757 152 CURVE SMOOTH",
"526 152 OFFCURVE",
"332 373 OFFCURVE",
"332 707 CURVE SMOOTH",
"332 751 LINE SMOOTH",
"332 1082 OFFCURVE",
"524 1303 OFFCURVE",
"755 1303 CURVE SMOOTH",
"999 1303 OFFCURVE",
"1179 1082 OFFCURVE",
"1179 751 CURVE"
);
}
);
width = 1514;
},
{
layerId = "20EE6398-45C7-446F-8F4E-C33CF1AD7937";
paths = (
{
closed = 1;
nodes = (
"1425 748 LINE",
"1425 1149 OFFCURVE",
"1150 1477 OFFCURVE",
"743 1477 CURVE SMOOTH",
"332 1477 OFFCURVE",
"62 1149 OFFCURVE",
"62 748 CURVE",
"62 708 LINE",
"62 306 OFFCURVE",
"334 -21 OFFCURVE",
"745 -21 CURVE SMOOTH",
"1152 -21 OFFCURVE",
"1425 306 OFFCURVE",
"1425 708 CURVE"
);
},
{
closed = 1;
nodes = (
"1051 708 LINE",
"1051 483 OFFCURVE",
"948 279 OFFCURVE",
"745 279 CURVE SMOOTH",
"536 279 OFFCURVE",
"437 483 OFFCURVE",
"437 708 CURVE SMOOTH",
"437 750 LINE SMOOTH",
"437 974 OFFCURVE",
"534 1176 OFFCURVE",
"743 1176 CURVE SMOOTH",
"946 1176 OFFCURVE",
"1051 974 OFFCURVE",
"1051 750 CURVE"
);
}
);
width = 1488.125;
},
{
layerId = "275CACE8-FD52-4067-B7BC-43A450B7EDC9";
paths = (
{
closed = 1;
nodes = (
"1376 750 LINE",
"1376 1176 OFFCURVE",
"1108 1477 OFFCURVE",
"751 1477 CURVE SMOOTH",
"404 1477 OFFCURVE",
"126 1176 OFFCURVE",
"126 750 CURVE",
"126 706 LINE",
"126 279 OFFCURVE",
"406 -21 OFFCURVE",
"753 -21 CURVE SMOOTH",
"1110 -21 OFFCURVE",
"1376 279 OFFCURVE",
"1376 706 CURVE"
);
},
{
closed = 1;
nodes = (
"1184 706 LINE",
"1184 368 OFFCURVE",
"1005 141 OFFCURVE",
"753 141 CURVE SMOOTH",
"514 141 OFFCURVE",
"319 368 OFFCURVE",
"319 706 CURVE SMOOTH",
"319 752 LINE SMOOTH",
"319 1087 OFFCURVE",
"512 1314 OFFCURVE",
"751 1314 CURVE SMOOTH",
"1001 1314 OFFCURVE",
"1184 1087 OFFCURVE",
"1184 752 CURVE"
);
}
);
width = 1505.36;
}
);
},
{
glyphname = Q.ss06;
layers = (
{
layerId = "445B0B85-2678-4800-8A4D-B1A9856CF63B";
paths = (
{
closed = 1;
nodes = (
"943 73 LINE",
"902 35 LINE",
"1231 -243 LINE",
"1270 -208 LINE"
);
},
{
closed = 1;
nodes = (
"1288 747 LINE",
"1288 1163 OFFCURVE",
"1043 1477 OFFCURVE",
"708 1477 CURVE SMOOTH",
"374 1477 OFFCURVE",
"130 1163 OFFCURVE",
"130 747 CURVE SMOOTH",
"130 699 LINE SMOOTH",
"130 283 OFFCURVE",
"376 -21 OFFCURVE",
"710 -21 CURVE SMOOTH",
"1045 -21 OFFCURVE",
"1288 283 OFFCURVE",
"1288 699 CURVE SMOOTH"
);
},
{
closed = 1;
nodes = (
"1234 699 LINE",
"1234 320 OFFCURVE",
"1024 33 OFFCURVE",
"710 33 CURVE SMOOTH",
"398 33 OFFCURVE",
"185 320 OFFCURVE",
"185 699 CURVE SMOOTH",
"185 749 LINE SMOOTH",
"185 1126 OFFCURVE",
"396 1423 OFFCURVE",
"708 1423 CURVE SMOOTH",
"1022 1423 OFFCURVE",
"1234 1126 OFFCURVE",
"1234 749 CURVE SMOOTH"
);
}
);
width = 1418;
},
{
layerId = "3A1161A8-2FC1-4350-92D1-D5E808DF9456";
paths = (
{
closed = 1;
nodes = (
"936 168 LINE",
"803 37 LINE",
"1172 -253 LINE",
"1313 -125 LINE"
);
},
{
closed = 1;
nodes = (
"1385 748 LINE",
"1385 1177 OFFCURVE",
"1114 1477 OFFCURVE",
"755 1477 CURVE SMOOTH",
"407 1477 OFFCURVE",
"126 1177 OFFCURVE",
"126 748 CURVE SMOOTH",
"126 707 LINE SMOOTH",
"126 278 OFFCURVE",
"409 -21 OFFCURVE",
"757 -21 CURVE SMOOTH",
"1116 -21 OFFCURVE",
"1385 278 OFFCURVE",
"1385 707 CURVE SMOOTH"
);
},
{
closed = 1;
nodes = (
"1179 707 LINE",
"1179 372 OFFCURVE",
"1003 152 OFFCURVE",
"757 152 CURVE SMOOTH",
"526 152 OFFCURVE",
"332 372 OFFCURVE",
"332 707 CURVE SMOOTH",
"332 750 LINE SMOOTH",
"332 1083 OFFCURVE",
"524 1303 OFFCURVE",
"755 1303 CURVE SMOOTH",
"999 1303 OFFCURVE",
"1179 1083 OFFCURVE",
"1179 750 CURVE SMOOTH"
);
}
);
width = 1517;
},
{
layerId = "20EE6398-45C7-446F-8F4E-C33CF1AD7937";
paths = (
{
closed = 1;
nodes = (
"1057 279 LINE",
"832 76 LINE",
"1197 -254 LINE",
"1429 -50 LINE"
);
},
{
closed = 1;
nodes = (
"1425 735 LINE",
"1425 1169 OFFCURVE",
"1150 1477 OFFCURVE",
"743 1477 CURVE SMOOTH",
"332 1477 OFFCURVE",
"62 1169 OFFCURVE",
"62 735 CURVE SMOOTH",
"62 721 LINE SMOOTH",
"62 286 OFFCURVE",
"334 -21 OFFCURVE",
"745 -21 CURVE SMOOTH",
"1152 -21 OFFCURVE",
"1425 286 OFFCURVE",
"1425 721 CURVE SMOOTH"
);
},
{
closed = 1;
nodes = (
"1051 721 LINE",
"1051 465 OFFCURVE",
"948 279 OFFCURVE",
"745 279 CURVE SMOOTH",
"536 279 OFFCURVE",
"437 465 OFFCURVE",
"437 721 CURVE SMOOTH",
"437 737 LINE SMOOTH",
"437 995 OFFCURVE",
"534 1176 OFFCURVE",
"743 1176 CURVE SMOOTH",
"946 1176 OFFCURVE",
"1051 995 OFFCURVE",
"1051 737 CURVE SMOOTH"
);
}
);
width = 1487.675;
},
{
layerId = "275CACE8-FD52-4067-B7BC-43A450B7EDC9";
paths = (
{
closed = 1;
nodes = (
"937 159 LINE",
"812 37 LINE",
"1177 -252 LINE",
"1309 -132 LINE"
);
},
{
closed = 1;
nodes = (
"1376 748 LINE",
"1376 1176 OFFCURVE",
"1108 1477 OFFCURVE",
"751 1477 CURVE SMOOTH",
"404 1477 OFFCURVE",
"126 1176 OFFCURVE",
"126 748 CURVE SMOOTH",
"126 706 LINE SMOOTH",
"126 278 OFFCURVE",
"406 -21 OFFCURVE",
"753 -21 CURVE SMOOTH",
"1110 -21 OFFCURVE",
"1376 278 OFFCURVE",
"1376 706 CURVE SMOOTH"
);
},
{
closed = 1;
nodes = (
"1184 706 LINE",
"1184 367 OFFCURVE",
"1005 141 OFFCURVE",
"753 141 CURVE SMOOTH",
"514 141 OFFCURVE",
"319 367 OFFCURVE",
"319 706 CURVE SMOOTH",
"319 750 LINE SMOOTH",
"319 1087 OFFCURVE",
"512 1314 OFFCURVE",
"751 1314 CURVE SMOOTH",
"1001 1314 OFFCURVE",
"1184 1087 OFFCURVE",
"1184 750 CURVE SMOOTH"
);
}
);
width = 1508.09;
}
);
},
{
glyphname = a;
layers = (
{
anchors = (
{
name = bottom;
position = "{507, 0}";
},
{
name = bottom_dd;
position = "{1081, -407}";
},
{
name = ogonek;
position = "{933, 0}";
},
{
name = rhalfring;
position = "{700, 1263}";
},
{
name = rhotichook;
position = "{878, 654}";
},
{
name = top;
position = "{577, 1292}";
},
{
name = top0315;
position = "{1081, 1292}";
},
{
name = top_dd;
position = "{1081, 1600}";
}
);
guideLines = (
{
position = "{0, 1658}";
},
{
position = "{0, 555}";
}
);
layerId = "445B0B85-2678-4800-8A4D-B1A9856CF63B";
paths = (
{
closed = 1;
nodes = (
"851 203 LINE",
"851 132 OFFCURVE",
"857 52 OFFCURVE",
"871 0 CURVE",
"933 0 LINE",
"933 9 LINE",
"915 53 OFFCURVE",
"905 140 OFFCURVE",
"905 218 CURVE SMOOTH",
"905 760 LINE",
"905 988 OFFCURVE",
"746 1102 OFFCURVE",
"521 1102 CURVE SMOOTH",
"288 1102 OFFCURVE",
"121 955 OFFCURVE",
"121 786 CURVE",
"175 784 LINE",
"175 934 OFFCURVE",
"325 1048 OFFCURVE",
"521 1048 CURVE SMOOTH",
"732 1048 OFFCURVE",
"851 942 OFFCURVE",
"851 762 CURVE"
);
},
{
closed = 1;
nodes = (
"875 604 LINE",
"592 604 LINE",
"279 604 OFFCURVE",
"92 467 OFFCURVE",
"92 274 CURVE SMOOTH",
"92 102 OFFCURVE",
"223 -20 OFFCURVE",
"425 -20 CURVE SMOOTH",
"694 -20 OFFCURVE",
"843 138 OFFCURVE",
"893 287 CURVE",
"869 337 LINE",
"805 152 OFFCURVE",
"653 33 OFFCURVE",
"425 33 CURVE SMOOTH",
"261 33 OFFCURVE",
"146 139 OFFCURVE",
"146 270 CURVE SMOOTH",
"146 434 OFFCURVE",
"316 549 OFFCURVE",
"595 549 CURVE",
"877 549 LINE"
);
}
);
width = 1081;
},
{
anchors = (
{
name = bottom;
position = "{501, 0}";
},
{
name = bottom_dd;
position = "{1118, -407}";
},
{
name = ogonek;
position = "{974, 0}";
},
{
name = rhalfring;
position = "{700, 1290}";
},
{
name = rhotichook;
position = "{879, 654}";
},
{
name = top;
position = "{582, 1290}";
},
{
name = top0315;
position = "{1118, 1290}";
},
{
name = top_dd;
position = "{1118, 1600}";
}
);
guideLines = (
{
position = "{0, 1658}";
},
{
position = "{0, 555}";
}
);
layerId = "3A1161A8-2FC1-4350-92D1-D5E808DF9456";
paths = (
{
closed = 1;
nodes = (
"771 183 LINE",
"771 123 OFFCURVE",
"782 41 OFFCURVE",
"802 0 CURVE",
"1010 0 LINE",
"1010 17 LINE",
"984 76 OFFCURVE",
"971 166 OFFCURVE",
"971 238 CURVE SMOOTH",
"971 738 LINE",
"971 981 OFFCURVE",
"803 1102 OFFCURVE",
"566 1102 CURVE SMOOTH",
"301 1102 OFFCURVE",
"133 935 OFFCURVE",
"133 782 CURVE",
"333 782 LINE",
"333 867 OFFCURVE",
"421 945 OFFCURVE",
"554 945 CURVE SMOOTH",
"697 945 OFFCURVE",
"771 864 OFFCURVE",
"771 740 CURVE"
);
},
{
closed = 1;
nodes = (
"804 661 LINE",
"596 661 LINE",
"301 661 OFFCURVE",
"111 539 OFFCURVE",
"111 303 CURVE SMOOTH",
"111 123 OFFCURVE",
"257 -20 OFFCURVE",
"480 -20 CURVE SMOOTH",
"711 -20 OFFCURVE",
"857 170 OFFCURVE",
"874 277 CURVE",
"789 370 LINE",
"789 279 OFFCURVE",
"673 151 OFFCURVE",
"510 151 CURVE SMOOTH",
"377 151 OFFCURVE",
"311 230 OFFCURVE",
"311 331 CURVE SMOOTH",
"311 462 OFFCURVE",
"425 524 OFFCURVE",
"629 524 CURVE",
"806 524 LINE"
);
}
);
width = 1118;
},
{
anchors = (
{
name = bottom;
position = "{459, 27}";
},
{
name = bottom_dd;
position = "{1088, -407}";
},
{
name = ogonek;
position = "{991, 0}";
},
{
name = rhalfring;
position = "{689, 1292}";
},
{
name = rhotichook;
position = "{851, 654}";
},
{
name = top;
position = "{531, 1290}";
},
{
name = top0315;
position = "{1088, 1290}";
},
{
name = top_dd;
position = "{1088, 1600}";
}
);
hints = (
{
horizontal = 1;
place = "{-2147483648, 0}";
type = Tag;
}
);
layerId = "20EE6398-45C7-446F-8F4E-C33CF1AD7937";
paths = (
{
closed = 1;
nodes = (
"641 291 LINE",
"641 179 OFFCURVE",
"656 71 OFFCURVE",
"690 0 CURVE",
"1050 0 LINE",
"1050 18 LINE",
"1020 72 OFFCURVE",
"1003 126 OFFCURVE",
"1003 282 CURVE SMOOTH",
"1003 709 LINE",
"1003 971 OFFCURVE",
"807 1102 OFFCURVE",
"547 1102 CURVE SMOOTH",
"254 1102 OFFCURVE",
"67 952 OFFCURVE",
"67 741 CURVE",
"427 741 LINE",
"427 814 OFFCURVE",
"461 842 OFFCURVE",
"528 842 CURVE SMOOTH",
"611 842 OFFCURVE",
"641 791 OFFCURVE",
"641 711 CURVE"
);
},
{
closed = 1;
nodes = (
"684 665 LINE",
"550 665 LINE",
"199 665 OFFCURVE",
"41 531 OFFCURVE",
"41 308 CURVE SMOOTH",
"41 112 OFFCURVE",
"212 -20 OFFCURVE",
"411 -20 CURVE SMOOTH",
"609 -20 OFFCURVE",
"677 96 OFFCURVE",
"730 199 CURVE",
"653 350 LINE",
"658 311 OFFCURVE",
"600 244 OFFCURVE",
"498 244 CURVE SMOOTH",
"443 244 OFFCURVE",
"402 276 OFFCURVE",
"402 326 CURVE SMOOTH",
"402 394 OFFCURVE",
"433 469 OFFCURVE",
"547 469 CURVE",
"686 469 LINE"
);
}
);
width = 1087.7;
},
{
anchors = (
{
name = bottom;
position = "{502, 0}";
},
{
name = bottom_dd;
position = "{1115, -407}";
},
{
name = ogonek;
position = "{970, 0}";
},
{
name = rhalfring;
position = "{700, 1288}";
},
{
name = rhotichook;
position = "{879, 654}";
},
{
name = top;
position = "{582, 1290}";
},
{
name = top0315;
position = "{1115, 1290}";
},
{
name = top_dd;
position = "{1115, 1600}";
}
);
hints = (
{
horizontal = 1;
place = "{0, 0}";
type = Tag;
}
);
layerId = "275CACE8-FD52-4067-B7BC-43A450B7EDC9";
paths = (
{
closed = 1;
nodes = (
"778 185 LINE",
"778 124 OFFCURVE",
"789 42 OFFCURVE",
"808 0 CURVE",
"1003 0 LINE",
"1003 16 LINE",
"978 74 OFFCURVE",
"965 164 OFFCURVE",
"965 236 CURVE SMOOTH",
"965 740 LINE",
"965 982 OFFCURVE",
"798 1102 OFFCURVE",
"562 1102 CURVE SMOOTH",
"300 1102 OFFCURVE",
"132 937 OFFCURVE",
"132 782 CURVE",
"319 782 LINE",
"319 873 OFFCURVE",
"412 954 OFFCURVE",
"551 954 CURVE SMOOTH",
"700 954 OFFCURVE",
"778 871 OFFCURVE",
"778 742 CURVE"
);
},
{
closed = 1;
nodes = (
"810 656 LINE",
"596 656 LINE",
"299 656 OFFCURVE",
"109 533 OFFCURVE",
"109 300 CURVE SMOOTH",
"109 121 OFFCURVE",
"254 -20 OFFCURVE",
"475 -20 CURVE SMOOTH",
"709 -20 OFFCURVE",
"856 167 OFFCURVE",
"876 278 CURVE",
"796 367 LINE",
"790 268 OFFCURVE",
"671 140 OFFCURVE",
"502 140 CURVE SMOOTH",
"367 140 OFFCURVE",
"296 222 OFFCURVE",
"296 326 CURVE SMOOTH",
"296 459 OFFCURVE",
"415 526 OFFCURVE",
"626 526 CURVE",
"812 526 LINE"
);
}
);
width = 1114.67;
}
);
unicode = 0061;
userData = {
com.typemytype.robofont.guides = (
{
angle = 0;
isGlobal = 0;
magnetic = 5;
x = 0;
y = 1658;
},
{
angle = 0;
isGlobal = 0;
magnetic = 5;
x = 0;
y = 555;
}
);
};
},
{
glyphname = ae;
layers = (
{
anchors = (
{
name = top;
position = "{859, 1291}";
},
{
name = top0315;
position = "{1735, 1291}";
},
{
name = top_dd;
position = "{1735, 1600}";
}
);
layerId = "445B0B85-2678-4800-8A4D-B1A9856CF63B";
paths = (
{
closed = 1;
nodes = (
"813 183 LINE",
"868 218 LINE",
"868 718 LINE",
"868 973 OFFCURVE",
"732 1102 OFFCURVE",
"521 1102 CURVE SMOOTH",
"276 1102 OFFCURVE",
"121 965 OFFCURVE",
"121 778 CURVE",
"174 771 LINE",
"174 929 OFFCURVE",
"300 1048 OFFCURVE",
"521 1048 CURVE SMOOTH",
"719 1048 OFFCURVE",
"813 928 OFFCURVE",
"813 720 CURVE"
);
},
{
closed = 1;
nodes = (
"838 630 LINE",
"523 630 LINE",
"241 630 OFFCURVE",
"93 489 OFFCURVE",
"93 284 CURVE SMOOTH",
"93 100 OFFCURVE",
"220 -20 OFFCURVE",
"448 -20 CURVE SMOOTH",
"681 -20 OFFCURVE",
"820 111 OFFCURVE",
"869 218 CURVE",
"814 229 LINE",
"794 158 OFFCURVE",
"640 32 OFFCURVE",
"447 32 CURVE SMOOTH",
"254 32 OFFCURVE",
"148 126 OFFCURVE",
"148 280 CURVE SMOOTH",
"148 438 OFFCURVE",
"266 575 OFFCURVE",
"525 575 CURVE",
"838 575 LINE"
);
},
{
closed = 1;
nodes = (
"1268 -20 CURVE",
"1460 -20 OFFCURVE",
"1559 50 OFFCURVE",
"1630 122 CURVE",
"1600 164 LINE",
"1523 86 OFFCURVE",
"1410 34 OFFCURVE",
"1268 34 CURVE SMOOTH",
"989 34 OFFCURVE",
"870 241 OFFCURVE",
"870 500 CURVE SMOOTH",
"870 564 LINE SMOOTH",
"870 832 OFFCURVE",
"1015 1048 OFFCURVE",
"1253 1048 CURVE",
"1484 1048 OFFCURVE",
"1603 880 OFFCURVE",
"1603 664 CURVE",
"1603 632 LINE",
"850 632 LINE",
"850 577 LINE",
"1657 577 LINE",
"1657 660 LINE SMOOTH",
"1657 934 OFFCURVE",
"1505 1102 OFFCURVE",
"1253 1102 CURVE SMOOTH",
"1003 1102 OFFCURVE",
"815 880 OFFCURVE",
"815 564 CURVE SMOOTH",
"815 500 LINE SMOOTH",
"815 198 OFFCURVE",
"976 -20 OFFCURVE"
);
}
);
width = 1735;
},
{
anchors = (
{
name = top;
position = "{859, 1291}";
},
{
name = top0315;
position = "{1729, 1291}";
},
{
name = top_dd;
position = "{1729, 1600}";
}
);
layerId = "3A1161A8-2FC1-4350-92D1-D5E808DF9456";
paths = (
{
closed = 1;
nodes = (
"742 183 LINE",
"936 218 LINE",
"936 718 LINE",
"936 973 OFFCURVE",
"774 1102 OFFCURVE",
"537 1102 CURVE SMOOTH",
"280 1102 OFFCURVE",
"105 965 OFFCURVE",
"105 778 CURVE",
"304 759 LINE",
"304 857 OFFCURVE",
"396 942 OFFCURVE",
"537 942 CURVE SMOOTH",
"668 942 OFFCURVE",
"742 857 OFFCURVE",
"742 720 CURVE"
);
},
{
closed = 1;
nodes = (
"785 636 LINE",
"527 636 LINE",
"232 636 OFFCURVE",
"77 516 OFFCURVE",
"77 306 CURVE SMOOTH",
"77 108 OFFCURVE",
"203 -21 OFFCURVE",
"432 -21 CURVE SMOOTH",
"688 -21 OFFCURVE",
"836 96 OFFCURVE",
"890 193 CURVE",
"789 349 LINE",
"789 266 OFFCURVE",
"612 139 OFFCURVE",
"472 139 CURVE SMOOTH",
"338 139 OFFCURVE",
"277 212 OFFCURVE",
"277 302 CURVE SMOOTH",
"277 401 OFFCURVE",
"364 489 OFFCURVE",
"529 489 CURVE",
"785 489 LINE"
);
},
{
closed = 1;
nodes = (
"1262 -21 CURVE",
"1479 -21 OFFCURVE",
"1603 68 OFFCURVE",
"1644 100 CURVE",
"1576 244 LINE",
"1510 202 OFFCURVE",
"1422 139 OFFCURVE",
"1262 139 CURVE SMOOTH",
"1037 139 OFFCURVE",
"940 311 OFFCURVE",
"940 522 CURVE SMOOTH",
"940 564 LINE SMOOTH",
"940 773 OFFCURVE",
"1038 942 OFFCURVE",
"1215 942 CURVE",
"1397 942 OFFCURVE",
"1461 817 OFFCURVE",
"1461 672 CURVE",
"1461 641 LINE",
"858 641 LINE",
"858 491 LINE",
"1661 491 LINE",
"1661 612 LINE SMOOTH",
"1661 913 OFFCURVE",
"1506 1102 OFFCURVE",
"1215 1102 CURVE SMOOTH",
"950 1104 OFFCURVE",
"752 880 OFFCURVE",
"752 564 CURVE SMOOTH",
"752 522 LINE SMOOTH",
"752 206 OFFCURVE",
"932 -21 OFFCURVE"
);
}
);
width = 1729;
},
{
anchors = (
{
name = top;
position = "{864, 1291}";
},
{
name = top0315;
position = "{1730, 1291}";
},
{
name = top_dd;
position = "{1730, 1600}";
}
);
hints = (
{
horizontal = 1;
place = "{-2147483648, 0}";
type = Tag;
},
{
horizontal = 1;
place = "{-2147483648, 0}";
type = Tag;
}
);
layerId = "20EE6398-45C7-446F-8F4E-C33CF1AD7937";
paths = (
{
closed = 1;
nodes = (
"710 183 LINE",
"1059 218 LINE",
"1059 695 LINE",
"1059 966 OFFCURVE",
"878 1102 OFFCURVE",
"595 1102 CURVE SMOOTH",
"291 1102 OFFCURVE",
"98 956 OFFCURVE",
"98 755 CURVE",
"458 735 LINE",
"458 778 OFFCURVE",
"504 812 OFFCURVE",
"590 812 CURVE SMOOTH",
"667 812 OFFCURVE",
"710 768 OFFCURVE",
"710 697 CURVE"
);
},
{
closed = 1;
nodes = (
"755 660 LINE",
"586 660 LINE",
"240 660 OFFCURVE",
"59 541 OFFCURVE",
"59 330 CURVE SMOOTH",
"59 117 OFFCURVE",
"210 -20 OFFCURVE",
"488 -20 CURVE SMOOTH",
"731 -20 OFFCURVE",
"872 95 OFFCURVE",
"922 191 CURVE",
"761 358 LINE",
"763 304 OFFCURVE",
"648 236 OFFCURVE",
"557 236 CURVE SMOOTH",
"462 236 OFFCURVE",
"419 269 OFFCURVE",
"419 326 CURVE SMOOTH",
"419 382 OFFCURVE",
"478 436 OFFCURVE",
"588 436 CURVE",
"758 436 LINE"
);
},
{
closed = 1;
nodes = (
"1236 -20 CURVE",
"1403 -20 OFFCURVE",
"1568 33 OFFCURVE",
"1652 100 CURVE",
"1567 327 LINE",
"1483 293 OFFCURVE",
"1414 271 OFFCURVE",
"1286 271 CURVE SMOOTH",
"1121 271 OFFCURVE",
"1058 357 OFFCURVE",
"1058 478 CURVE SMOOTH",
"1058 564 LINE SMOOTH",
"1058 710 OFFCURVE",
"1088 812 OFFCURVE",
"1226 812 CURVE",
"1296 812 OFFCURVE",
"1336 766 OFFCURVE",
"1336 673 CURVE",
"1336 648 LINE",
"844 648 LINE",
"844 416 LINE",
"1688 416 LINE",
"1688 608 LINE SMOOTH",
"1688 911 OFFCURVE",
"1510 1102 OFFCURVE",
"1226 1102 CURVE SMOOTH",
"874 1104 OFFCURVE",
"708 880 OFFCURVE",
"708 564 CURVE SMOOTH",
"708 478 LINE SMOOTH",
"708 188 OFFCURVE",
"896 -20 OFFCURVE"
);
}
);
width = 1729.775;
},
{
anchors = (
{
name = top;
position = "{859, 1291}";
},
{
name = top0315;
position = "{1730, 1291}";
},
{
name = top_dd;
position = "{1730, 1600}";
}
);
hints = (
{
horizontal = 1;
place = "{0, 0}";
type = Tag;
},
{
horizontal = 1;
place = "{0, 0}";
type = Tag;
}
);
layerId = "275CACE8-FD52-4067-B7BC-43A450B7EDC9";
paths = (
{
closed = 1;
nodes = (
"748 183 LINE",
"930 218 LINE",
"930 718 LINE",
"930 973 OFFCURVE",
"770 1102 OFFCURVE",
"536 1102 CURVE SMOOTH",
"280 1102 OFFCURVE",
"106 965 OFFCURVE",
"106 778 CURVE",
"292 760 LINE",
"292 863 OFFCURVE",
"387 952 OFFCURVE",
"536 952 CURVE SMOOTH",
"673 952 OFFCURVE",
"748 863 OFFCURVE",
"748 720 CURVE"
);
},
{
closed = 1;
nodes = (
"790 635 LINE",
"527 635 LINE",
"233 635 OFFCURVE",
"78 514 OFFCURVE",
"78 304 CURVE SMOOTH",
"78 107 OFFCURVE",
"205 -21 OFFCURVE",
"433 -21 CURVE SMOOTH",
"687 -21 OFFCURVE",
"835 97 OFFCURVE",
"888 195 CURVE",
"791 338 LINE",
"789 256 OFFCURVE",
"615 129 OFFCURVE",
"470 129 CURVE SMOOTH",
"330 129 OFFCURVE",
"265 204 OFFCURVE",
"265 300 CURVE SMOOTH",
"265 404 OFFCURVE",
"355 497 OFFCURVE",
"529 497 CURVE",
"790 497 LINE"
);
},
{
closed = 1;
nodes = (
"1263 -21 CURVE",
"1477 -21 OFFCURVE",
"1599 66 OFFCURVE",
"1643 102 CURVE",
"1578 237 LINE",
"1511 192 OFFCURVE",
"1421 130 OFFCURVE",
"1263 130 CURVE SMOOTH",
"1033 130 OFFCURVE",
"934 305 OFFCURVE",
"934 520 CURVE SMOOTH",
"934 564 LINE SMOOTH",
"934 778 OFFCURVE",
"1036 952 OFFCURVE",
"1218 952 CURVE",
"1405 952 OFFCURVE",
"1474 823 OFFCURVE",
"1474 671 CURVE",
"1474 640 LINE",
"857 640 LINE",
"857 499 LINE",
"1661 499 LINE",
"1661 616 LINE SMOOTH",
"1661 915 OFFCURVE",
"1506 1102 OFFCURVE",
"1218 1102 CURVE SMOOTH",
"955 1104 OFFCURVE",
"758 880 OFFCURVE",
"758 564 CURVE SMOOTH",
"758 520 LINE SMOOTH",
"758 205 OFFCURVE",
"936 -21 OFFCURVE"
);
}
);
width = 1729.54;
}
);
unicode = 00E6;
},
{
glyphname = b;
layers = (
{
anchors = (
{
name = bottom;
position = "{584, -10}";
},
{
name = bottom_dd;
position = "{1121, -407}";
},
{
name = top;
position = "{577, 1612}";
},
{
name = top0315;
position = "{1121, 1612}";
},
{
name = top_dd;
position = "{1121, 1600}";
}
);
layerId = "445B0B85-2678-4800-8A4D-B1A9856CF63B";
paths = (
{
closed = 1;
nodes = (
"170 1536 LINE",
"170 0 LINE",
"224 0 LINE",
"224 210 LINE",
"224 1536 LINE"
);
},
{
closed = 1;
nodes = (
"999 552 LINE",
"999 893 OFFCURVE",
"848 1102 OFFCURVE",
"591 1102 CURVE SMOOTH",
"356 1102 OFFCURVE",
"219 948 OFFCURVE",
"172 745 CURVE",
"172 304 LINE",
"206 133 OFFCURVE",
"349 -20 OFFCURVE",
"593 -20 CURVE SMOOTH",
"849 -20 OFFCURVE",
"999 201 OFFCURVE",
"999 531 CURVE SMOOTH"
);
},
{
closed = 1;
nodes = (
"943 531 LINE",
"943 243 OFFCURVE",
"830 34 OFFCURVE",
"594 34 CURVE SMOOTH",
"367 34 OFFCURVE",
"244 166 OFFCURVE",
"208 329 CURVE",
"208 709 LINE",
"237 843 OFFCURVE",
"320 1048 OFFCURVE",
"592 1048 CURVE SMOOTH",
"830 1048 OFFCURVE",
"943 839 OFFCURVE",
"943 552 CURVE SMOOTH"
);
}
);
width = 1121;
},
{
anchors = (
{
name = bottom;
position = "{600, -10}";
},
{
name = bottom_dd;
position = "{1153, -407}";
},
{
name = top;
position = "{640, 1611}";
},
{
name = top0315;
position = "{1153, 1611}";
},
{
name = top_dd;
position = "{1153, 1600}";
}
);
layerId = "3A1161A8-2FC1-4350-92D1-D5E808DF9456";
paths = (
{
closed = 1;
nodes = (
"137 1536 LINE",
"137 0 LINE",
"320 0 LINE",
"337 210 LINE",
"337 1536 LINE"
);
},
{
closed = 1;
nodes = (
"1063 550 LINE",
"1063 879 OFFCURVE",
"912 1102 OFFCURVE",
"639 1102 CURVE SMOOTH",
"362 1102 OFFCURVE",
"230 901 OFFCURVE",
"200 572 CURVE",
"200 510 LINE",
"230 181 OFFCURVE",
"362 -20 OFFCURVE",
"641 -20 CURVE SMOOTH",
"910 -20 OFFCURVE",
"1063 214 OFFCURVE",
"1063 529 CURVE SMOOTH"
);
},
{
closed = 1;
nodes = (
"863 529 LINE",
"863 320 OFFCURVE",
"785 146 OFFCURVE",
"590 146 CURVE SMOOTH",
"411 146 OFFCURVE",
"327 287 OFFCURVE",
"296 426 CURVE",
"296 655 LINE",
"326 803 OFFCURVE",
"411 937 OFFCURVE",
"588 937 CURVE SMOOTH",
"794 937 OFFCURVE",
"863 759 OFFCURVE",
"863 550 CURVE SMOOTH"
);
}
);
width = 1153;
},
{
anchors = (
{
name = bottom;
position = "{700, -10}";
},
{
name = bottom_dd;
position = "{1155, -407}";
},
{
name = top;
position = "{689, 1597}";
},
{
name = top0315;
position = "{1155, 1597}";
},
{
name = top_dd;
position = "{1155, 1600}";
}
);
layerId = "20EE6398-45C7-446F-8F4E-C33CF1AD7937";
paths = (
{
closed = 1;
nodes = (
"92 1536 LINE",
"92 0 LINE",
"414 0 LINE",
"452 279 LINE",
"452 1536 LINE"
);
},
{
closed = 1;
nodes = (
"1107 554 LINE",
"1107 867 OFFCURVE",
"977 1102 OFFCURVE",
"684 1102 CURVE SMOOTH",
"424 1102 OFFCURVE",
"324 842 OFFCURVE",
"281 537 CURVE",
"281 549 LINE",
"325 239 OFFCURVE",
"424 -20 OFFCURVE",
"686 -20 CURVE SMOOTH",
"977 -20 OFFCURVE",
"1107 204 OFFCURVE",
"1107 533 CURVE SMOOTH"
);
},
{
closed = 1;
nodes = (
"747 533 LINE",
"747 372 OFFCURVE",
"733 268 OFFCURVE",
"595 268 CURVE SMOOTH",
"456 268 OFFCURVE",
"415 355 OFFCURVE",
"423 526 CURVE",
"423 560 LINE",
"416 728 OFFCURVE",
"459 812 OFFCURVE",
"593 812 CURVE SMOOTH",
"726 812 OFFCURVE",
"747 693 OFFCURVE",
"747 554 CURVE SMOOTH"
);
}
);
width = 1155.4;
},
{
anchors = (
{
name = bottom;
position = "{599, -10}";
},
{
name = bottom_dd;
position = "{1150, -407}";
},
{
name = top;
position = "{634, 1611}";
},
{
name = top0315;
position = "{1150, 1611}";
},
{
name = top_dd;
position = "{1150, 1600}";
}
);
layerId = "275CACE8-FD52-4067-B7BC-43A450B7EDC9";
paths = (
{
closed = 1;
nodes = (
"140 1536 LINE",
"140 0 LINE",
"311 0 LINE",
"327 210 LINE",
"327 1536 LINE"
);
},
{
closed = 1;
nodes = (
"1057 550 LINE",
"1057 880 OFFCURVE",
"906 1102 OFFCURVE",
"635 1102 CURVE SMOOTH",
"361 1102 OFFCURVE",
"229 905 OFFCURVE",
"197 588 CURVE",
"197 491 LINE",
"228 177 OFFCURVE",
"361 -20 OFFCURVE",
"637 -20 CURVE SMOOTH",
"905 -20 OFFCURVE",
"1057 213 OFFCURVE",
"1057 529 CURVE SMOOTH"
);
},
{
closed = 1;
nodes = (
"870 529 LINE",
"870 313 OFFCURVE",
"789 136 OFFCURVE",
"590 136 CURVE SMOOTH",
"407 136 OFFCURVE",
"320 276 OFFCURVE",
"288 417 CURVE",
"288 660 LINE",
"318 807 OFFCURVE",
"403 947 OFFCURVE",
"588 947 CURVE SMOOTH",
"797 947 OFFCURVE",
"870 766 OFFCURVE",
"870 550 CURVE SMOOTH"
);
}
);
width = 1150.12;
}
);
unicode = 0062;
},
{
glyphname = c;
layers = (
{
anchors = (
{
name = bottom;
position = "{547, -10}";
},
{
name = bottom_dd;
position = "{1039, -407}";
},
{
name = marktop;
position = "{547, 1290}";
},
{
name = top;
position = "{547, 1290}";
},
{
name = top0315;
position = "{1039, 1290}";
},
{
name = top_dd;
position = "{1039, 1600}";
}
);
layerId = "445B0B85-2678-4800-8A4D-B1A9856CF63B";
paths = (
{
closed = 1;
nodes = (
"539 34 CURVE SMOOTH",
"272 34 OFFCURVE",
"151 249 OFFCURVE",
"151 520 CURVE SMOOTH",
"151 562 LINE SMOOTH",
"151 831 OFFCURVE",
"272 1048 OFFCURVE",
"537 1048 CURVE",
"715 1048 OFFCURVE",
"876 940 OFFCURVE",
"886 725 CURVE",
"940 725 LINE",
"930 973 OFFCURVE",
"746 1102 OFFCURVE",
"537 1102 CURVE SMOOTH",
"258 1102 OFFCURVE",
"97 879 OFFCURVE",
"97 562 CURVE SMOOTH",
"97 520 LINE SMOOTH",
"97 203 OFFCURVE",
"258 -20 OFFCURVE",
"539 -20 CURVE",
"750 -20 OFFCURVE",
"929 108 OFFCURVE",
"940 328 CURVE",
"886 328 LINE",
"873 121 OFFCURVE",
"708 34 OFFCURVE"
);
}
);
width = 1039;
},
{
anchors = (
{
name = bottom;
position = "{531, -10}";
},
{
name = bottom_dd;
position = "{1076, -407}";
},
{
name = marktop;
position = "{531, 1290}";
},
{
name = top;
position = "{531, 1290}";
},
{
name = top0315;
position = "{1076, 1290}";
},
{
name = top_dd;
position = "{1076, 1600}";
}
);
layerId = "3A1161A8-2FC1-4350-92D1-D5E808DF9456";
paths = (
{
closed = 1;
nodes = (
"578 140 CURVE SMOOTH",
"352 140 OFFCURVE",
"292 337 OFFCURVE",
"292 520 CURVE SMOOTH",
"292 562 LINE SMOOTH",
"292 743 OFFCURVE",
"354 942 OFFCURVE",
"578 942 CURVE",
"723 942 OFFCURVE",
"813 835 OFFCURVE",
"823 709 CURVE",
"1012 709 LINE",
"1002 929 OFFCURVE",
"836 1102 OFFCURVE",
"578 1102 CURVE SMOOTH",
"248 1102 OFFCURVE",
"92 850 OFFCURVE",
"92 562 CURVE SMOOTH",
"92 520 LINE SMOOTH",
"92 232 OFFCURVE",
"247 -20 OFFCURVE",
"578 -20 CURVE",
"809 -20 OFFCURVE",
"1002 153 OFFCURVE",
"1012 343 CURVE",
"823 343 LINE",
"813 229 OFFCURVE",
"706 140 OFFCURVE"
);
}
);
width = 1076;
},
{
anchors = (
{
name = bottom;
position = "{569, 2}";
},
{
name = bottom_dd;
position = "{1067, -407}";
},
{
name = marktop;
position = "{536, 1290}";
},
{
name = top;
position = "{536, 1290}";
},
{
name = top0315;
position = "{1067, 1290}";
},
{
name = top_dd;
position = "{1067, 1600}";
}
);
layerId = "20EE6398-45C7-446F-8F4E-C33CF1AD7937";
paths = (
{
closed = 1;
nodes = (
"553 270 CURVE SMOOTH",
"422 270 OFFCURVE",
"409 383 OFFCURVE",
"409 531 CURVE SMOOTH",
"409 550 LINE SMOOTH",
"409 694 OFFCURVE",
"423 812 OFFCURVE",
"550 812 CURVE",
"648 812 OFFCURVE",
"687 741 OFFCURVE",
"685 658 CURVE",
"1022 658 LINE",
"1025 943 OFFCURVE",
"834 1102 OFFCURVE",
"559 1102 CURVE SMOOTH",
"219 1102 OFFCURVE",
"49 866 OFFCURVE",
"49 550 CURVE SMOOTH",
"49 531 LINE SMOOTH",
"49 215 OFFCURVE",
"219 -20 OFFCURVE",
"561 -20 CURVE",
"826 -20 OFFCURVE",
"1025 143 OFFCURVE",
"1022 397 CURVE",
"685 397 LINE",
"687 317 OFFCURVE",
"641 270 OFFCURVE"
);
}
);
width = 1066.525;
},
{
anchors = (
{
name = bottom;
position = "{532, -10}";
},
{
name = bottom_dd;
position = "{1073, -407}";
},
{
name = marktop;
position = "{532, 1290}";
},
{
name = top;
position = "{532, 1290}";
},
{
name = top0315;
position = "{1073, 1290}";
},
{
name = top_dd;
position = "{1073, 1600}";
}
);
layerId = "275CACE8-FD52-4067-B7BC-43A450B7EDC9";
paths = (
{
closed = 1;
nodes = (
"574 130 CURVE SMOOTH",
"345 130 OFFCURVE",
"279 329 OFFCURVE",
"279 520 CURVE SMOOTH",
"279 562 LINE SMOOTH",
"279 751 OFFCURVE",
"347 952 OFFCURVE",
"574 952 CURVE",
"722 952 OFFCURVE",
"819 844 OFFCURVE",
"829 710 CURVE",
"1006 710 LINE",
"996 933 OFFCURVE",
"828 1102 OFFCURVE",
"574 1102 CURVE SMOOTH",
"249 1102 OFFCURVE",
"92 853 OFFCURVE",
"92 562 CURVE SMOOTH",
"92 520 LINE SMOOTH",
"92 229 OFFCURVE",
"248 -20 OFFCURVE",
"574 -20 CURVE",
"804 -20 OFFCURVE",
"995 149 OFFCURVE",
"1006 342 CURVE",
"829 342 LINE",
"818 219 OFFCURVE",
"706 130 OFFCURVE"
);
}
);
width = 1072.67;
}
);
unicode = 0063;
},
{
glyphname = d;
layers = (
{
anchors = (
{
name = bottom;
position = "{597, 0}";
},
{
name = bottom_dd;
position = "{1121, -407}";
},
{
name = caron;
position = "{1102, 1536}";
},
{
name = cross;
position = "{823, 1306}";
},
{
name = top;
position = "{536, 1620}";
},
{
name = top0315;
position = "{1121, 1620}";
},
{
name = top_dd;
position = "{1121, 1600}";
}
);
layerId = "445B0B85-2678-4800-8A4D-B1A9856CF63B";
paths = (
{
closed = 1;
nodes = (
"897 210 LINE",
"897 0 LINE",
"951 0 LINE",
"951 1536 LINE",
"897 1536 LINE"
);
},
{
closed = 1;
nodes = (
"122 531 LINE",
"122 201 OFFCURVE",
"272 -20 OFFCURVE",
"528 -20 CURVE SMOOTH",
"772 -20 OFFCURVE",
"913 133 OFFCURVE",
"947 304 CURVE",
"947 745 LINE",
"900 948 OFFCURVE",
"766 1102 OFFCURVE",
"530 1102 CURVE SMOOTH",
"273 1102 OFFCURVE",
"122 893 OFFCURVE",
"122 552 CURVE SMOOTH"
);
},
{
closed = 1;
nodes = (
"178 552 LINE",
"178 839 OFFCURVE",
"291 1048 OFFCURVE",
"529 1048 CURVE SMOOTH",
"801 1048 OFFCURVE",
"886 843 OFFCURVE",
"915 709 CURVE",
"915 329 LINE",
"879 166 OFFCURVE",
"754 34 OFFCURVE",
"527 34 CURVE SMOOTH",
"291 34 OFFCURVE",
"178 243 OFFCURVE",
"178 531 CURVE SMOOTH"
);
}
);
width = 1121;
},
{
anchors = (
{
name = bottom;
position = "{619, 0}";
},
{
name = bottom_dd;
position = "{1159, -407}";
},
{
name = caron;
position = "{1116, 1536}";
},
{
name = cross;
position = "{881, 1306}";
},
{
name = top;
position = "{550, 1611}";
},
{
name = top0315;
position = "{1159, 1611}";
},
{
name = top_dd;
position = "{1159, 1600}";
}
);
layerId = "3A1161A8-2FC1-4350-92D1-D5E808DF9456";
paths = (
{
closed = 1;
nodes = (
"815 210 LINE",
"832 0 LINE",
"1015 0 LINE",
"1015 1536 LINE",
"815 1536 LINE"
);
},
{
closed = 1;
nodes = (
"92 529 LINE",
"92 214 OFFCURVE",
"266 -20 OFFCURVE",
"520 -20 CURVE SMOOTH",
"798 -20 OFFCURVE",
"931 181 OFFCURVE",
"960 510 CURVE",
"960 572 LINE",
"931 901 OFFCURVE",
"798 1102 OFFCURVE",
"522 1102 CURVE SMOOTH",
"264 1102 OFFCURVE",
"92 879 OFFCURVE",
"92 550 CURVE SMOOTH"
);
},
{
closed = 1;
nodes = (
"292 550 LINE",
"292 759 OFFCURVE",
"375 937 OFFCURVE",
"573 937 CURVE SMOOTH",
"750 937 OFFCURVE",
"834 803 OFFCURVE",
"865 655 CURVE",
"865 426 LINE",
"824 277 OFFCURVE",
"750 146 OFFCURVE",
"571 146 CURVE SMOOTH",
"375 146 OFFCURVE",
"292 320 OFFCURVE",
"292 529 CURVE SMOOTH"
);
}
);
width = 1159;
},
{
anchors = (
{
name = bottom;
position = "{572, 0}";
},
{
name = bottom_dd;
position = "{1155, -407}";
},
{
name = caron;
position = "{1183, 1536}";
},
{
name = cross;
position = "{823, 1306}";
},
{
name = top;
position = "{464, 1597}";
},
{
name = top0315;
position = "{1155, 1597}";
},
{
name = top_dd;
position = "{1155, 1600}";
}
);
layerId = "20EE6398-45C7-446F-8F4E-C33CF1AD7937";
paths = (
{
closed = 1;
nodes = (
"702 257 LINE",
"740 0 LINE",
"1064 0 LINE",
"1064 1536 LINE",
"702 1536 LINE"
);
},
{
closed = 1;
nodes = (
"47 528 LINE",
"47 214 OFFCURVE",
"191 -20 OFFCURVE",
"467 -20 CURVE SMOOTH",
"714 -20 OFFCURVE",
"831 241 OFFCURVE",
"874 538 CURVE",
"874 526 LINE",
"832 845 OFFCURVE",
"715 1102 OFFCURVE",
"469 1102 CURVE SMOOTH",
"191 1102 OFFCURVE",
"47 877 OFFCURVE",
"47 549 CURVE SMOOTH"
);
},
{
closed = 1;
nodes = (
"407 549 LINE",
"407 702 OFFCURVE",
"445 812 OFFCURVE",
"562 812 CURVE SMOOTH",
"679 812 OFFCURVE",
"738 733 OFFCURVE",
"731 549 CURVE",
"731 515 LINE",
"740 361 OFFCURVE",
"681 270 OFFCURVE",
"560 270 CURVE SMOOTH",
"440 270 OFFCURVE",
"407 382 OFFCURVE",
"407 528 CURVE SMOOTH"
);
}
);
width = 1154.5;
},
{
anchors = (
{
name = bottom;
position = "{617, 0}";
},
{
name = bottom_dd;
position = "{1156, -407}";
},
{
name = caron;
position = "{1115, 1536}";
},
{
name = cross;
position = "{876, 1306}";
},
{
name = top;
position = "{549, 1612}";
},
{
name = top0315;
position = "{1156, 1612}";
},
{
name = top_dd;
position = "{1156, 1600}";
}
);
layerId = "275CACE8-FD52-4067-B7BC-43A450B7EDC9";
paths = (
{
closed = 1;
nodes = (
"822 210 LINE",
"838 0 LINE",
"1009 0 LINE",
"1009 1536 LINE",
"822 1536 LINE"
);
},
{
closed = 1;
nodes = (
"95 529 LINE",
"95 213 OFFCURVE",
"267 -20 OFFCURVE",
"521 -20 CURVE SMOOTH",
"796 -20 OFFCURVE",
"929 177 OFFCURVE",
"959 491 CURVE",
"959 588 LINE",
"928 905 OFFCURVE",
"795 1102 OFFCURVE",
"523 1102 CURVE SMOOTH",
"265 1102 OFFCURVE",
"95 880 OFFCURVE",
"95 550 CURVE SMOOTH"
);
},
{
closed = 1;
nodes = (
"282 550 LINE",
"282 766 OFFCURVE",
"367 947 OFFCURVE",
"569 947 CURVE SMOOTH",
"755 947 OFFCURVE",
"839 807 OFFCURVE",
"870 660 CURVE",
"870 417 LINE",
"829 267 OFFCURVE",
"750 136 OFFCURVE",
"567 136 CURVE SMOOTH",
"367 136 OFFCURVE",
"282 313 OFFCURVE",
"282 529 CURVE SMOOTH"
);
}
);
width = 1155.58;
}
);
unicode = 0064;
},
{
glyphname = eth;
layers = (
{
layerId = "445B0B85-2678-4800-8A4D-B1A9856CF63B";
paths = (
{
closed = 1;
nodes = (
"338 1527 LINE",
"705 1390 OFFCURVE",
"987 1167 OFFCURVE",
"987 617 CURVE SMOOTH",
"987 535 LINE SMOOTH",
"987 246 OFFCURVE",
"850 38 OFFCURVE",
"633 38 CURVE SMOOTH",
"372 38 OFFCURVE",
"228 251 OFFCURVE",
"228 465 CURVE",
"228 705 OFFCURVE",
"339 895 OFFCURVE",
"601 895 CURVE",
"882 895 OFFCURVE",
"1008 699 OFFCURVE",
"1008 574 CURVE",
"1039 583 LINE",
"1039 819 OFFCURVE",
"824 953 OFFCURVE",
"601 953 CURVE",
"333 953 OFFCURVE",
"173 775 OFFCURVE",
"173 465 CURVE",
"173 194 OFFCURVE",
"361 -20 OFFCURVE",
"629 -20 CURVE SMOOTH",
"869 -20 OFFCURVE",
"1041 206 OFFCURVE",
"1041 535 CURVE",
"1041 615 LINE",
"1041 1128 OFFCURVE",
"816 1409 OFFCURVE",
"358 1577 CURVE"
);
},
{
closed = 1;
nodes = (
"991 1413 LINE",
"962 1461 LINE",
"489 1197 LINE",
"517 1149 LINE"
);
}
);
width = 1183;
},
{
layerId = "3A1161A8-2FC1-4350-92D1-D5E808DF9456";
paths = (
{
closed = 1;
nodes = (
"246 1412 LINE",
"584 1327 OFFCURVE",
"873 1097 OFFCURVE",
"873 637 CURVE SMOOTH",
"873 535 LINE SMOOTH",
"873 310 OFFCURVE",
"770 140 OFFCURVE",
"603 140 CURVE SMOOTH",
"422 140 OFFCURVE",
"321 308 OFFCURVE",
"321 468 CURVE",
"321 686 OFFCURVE",
"432 820 OFFCURVE",
"620 820 CURVE",
"802 820 OFFCURVE",
"893 703 OFFCURVE",
"893 618 CURVE",
"967 616 LINE",
"967 792 OFFCURVE",
"797 980 OFFCURVE",
"571 980 CURVE",
"314 980 OFFCURVE",
"121 776 OFFCURVE",
"121 468 CURVE",
"121 196 OFFCURVE",
"317 -20 OFFCURVE",
"599 -20 CURVE SMOOTH",
"873 -20 OFFCURVE",
"1073 206 OFFCURVE",
"1073 535 CURVE",
"1073 635 LINE",
"1073 1137 OFFCURVE",
"757 1486 OFFCURVE",
"307 1581 CURVE"
);
},
{
closed = 1;
nodes = (
"988 1417 LINE",
"910 1521 LINE",
"366 1147 LINE",
"444 1043 LINE"
);
}
);
width = 1203;
},
{
layerId = "20EE6398-45C7-446F-8F4E-C33CF1AD7937";
paths = (
{
closed = 1;
nodes = (
"218 1309 LINE",
"493 1240 OFFCURVE",
"769 1048 OFFCURVE",
"769 664 CURVE SMOOTH",
"769 557 LINE SMOOTH",
"769 393 OFFCURVE",
"711 270 OFFCURVE",
"581 270 CURVE SMOOTH",
"478 270 OFFCURVE",
"416 347 OFFCURVE",
"416 468 CURVE",
"416 609 OFFCURVE",
"471 692 OFFCURVE",
"591 692 CURVE",
"736 692 OFFCURVE",
"805 627 OFFCURVE",
"805 575 CURVE",
"931 572 LINE",
"906 807 OFFCURVE",
"737 959 OFFCURVE",
"511 959 CURVE",
"210 959 OFFCURVE",
"56 761 OFFCURVE",
"56 468 CURVE",
"56 196 OFFCURVE",
"263 -20 OFFCURVE",
"577 -20 CURVE SMOOTH",
"895 -20 OFFCURVE",
"1131 234 OFFCURVE",
"1131 606 CURVE",
"1131 662 LINE",
"1131 1149 OFFCURVE",
"797 1492 OFFCURVE",
"333 1579 CURVE"
);
},
{
closed = 1;
nodes = (
"989 1379 LINE",
"909 1505 LINE",
"322 1144 LINE",
"404 1019 LINE"
);
}
);
width = 1164.075;
},
{
layerId = "275CACE8-FD52-4067-B7BC-43A450B7EDC9";
paths = (
{
closed = 1;
nodes = (
"254 1422 LINE",
"595 1333 OFFCURVE",
"883 1103 OFFCURVE",
"883 635 CURVE SMOOTH",
"883 535 LINE SMOOTH",
"883 304 OFFCURVE",
"777 131 OFFCURVE",
"606 131 CURVE SMOOTH",
"418 131 OFFCURVE",
"313 303 OFFCURVE",
"313 468 CURVE",
"313 688 OFFCURVE",
"424 827 OFFCURVE",
"618 827 CURVE",
"809 827 OFFCURVE",
"903 703 OFFCURVE",
"903 614 CURVE",
"973 613 LINE",
"973 794 OFFCURVE",
"799 978 OFFCURVE",
"574 978 CURVE",
"316 978 OFFCURVE",
"126 776 OFFCURVE",
"126 468 CURVE",
"126 196 OFFCURVE",
"321 -20 OFFCURVE",
"602 -20 CURVE SMOOTH",
"873 -20 OFFCURVE",
"1070 206 OFFCURVE",
"1070 535 CURVE",
"1070 633 LINE",
"1070 1136 OFFCURVE",
"762 1479 OFFCURVE",
"312 1581 CURVE"
);
},
{
closed = 1;
nodes = (
"988 1417 LINE",
"915 1516 LINE",
"377 1152 LINE",
"451 1053 LINE"
);
}
);
width = 1201.2;
}
);
unicode = 00F0;
},
{
glyphname = e;
layers = (
{
anchors = (
{
name = bottom;
position = "{565, 4}";
},
{
name = bottom_dd;
position = "{1032, -407}";
},
{
name = ogonek;
position = "{832, 58}";
},
{
name = rhotichook;
position = "{926, 654}";
},
{
name = top;
position = "{567, 1291}";
},
{
name = top0315;
position = "{1032, 1291}";
},
{
name = top_dd;
position = "{1032, 1600}";
}
);
layerId = "445B0B85-2678-4800-8A4D-B1A9856CF63B";
paths = (
{
closed = 1;
nodes = (
"561 -20 CURVE",
"734 -20 OFFCURVE",
"848 52 OFFCURVE",
"920 155 CURVE",
"882 182 LINE",
"792 66 OFFCURVE",
"685 33 OFFCURVE",
"561 33 CURVE SMOOTH",
"323 33 OFFCURVE",
"141 248 OFFCURVE",
"141 518 CURVE SMOOTH",
"141 562 LINE SMOOTH",
"141 830 OFFCURVE",
"302 1048 OFFCURVE",
"541 1048 CURVE",
"758 1048 OFFCURVE",
"898 861 OFFCURVE",
"898 644 CURVE",
"898 631 LINE",
"122 631 LINE",
"122 577 LINE",
"952 577 LINE",
"952 640 LINE SMOOTH",
"952 915 OFFCURVE",
"781 1102 OFFCURVE",
"541 1102 CURVE SMOOTH",
"291 1102 OFFCURVE",
"87 878 OFFCURVE",
"87 562 CURVE SMOOTH",
"87 518 LINE SMOOTH",
"87 204 OFFCURVE",
"298 -20 OFFCURVE"
);
}
);
width = 1032;
},
{
anchors = (
{
name = bottom;
position = "{568, 0}";
},
{
name = bottom_dd;
position = "{1092, -407}";
},
{
name = ogonek;
position = "{810, 23}";
},
{
name = rhotichook;
position = "{910, 654}";
},
{
name = top;
position = "{565, 1290}";
},
{
name = top0315;
position = "{1092, 1290}";
},
{
name = top_dd;
position = "{1092, 1600}";
}
);
layerId = "3A1161A8-2FC1-4350-92D1-D5E808DF9456";
paths = (
{
closed = 1;
nodes = (
"593 -20 CURVE",
"812 -20 OFFCURVE",
"936 85 OFFCURVE",
"1006 192 CURVE",
"885 286 LINE",
"820 200 OFFCURVE",
"735 140 OFFCURVE",
"604 140 CURVE SMOOTH",
"406 140 OFFCURVE",
"294 302 OFFCURVE",
"294 502 CURVE SMOOTH",
"294 544 LINE SMOOTH",
"294 803 OFFCURVE",
"407 942 OFFCURVE",
"569 942 CURVE",
"755 942 OFFCURVE",
"808 792 OFFCURVE",
"818 655 CURVE",
"818 641 LINE",
"212 641 LINE",
"212 481 LINE",
"1018 481 LINE",
"1018 566 LINE SMOOTH",
"1018 871 OFFCURVE",
"887 1102 OFFCURVE",
"569 1102 CURVE SMOOTH",
"326 1102 OFFCURVE",
"94 900 OFFCURVE",
"94 544 CURVE SMOOTH",
"94 502 LINE SMOOTH",
"94 198 OFFCURVE",
"287 -20 OFFCURVE"
);
}
);
width = 1092;
},
{
anchors = (
{
name = bottom;
position = "{571, 0}";
},
{
name = bottom_dd;
position = "{1122, -407}";
},
{
name = ogonek;
position = "{886, 35}";
},
{
name = rhotichook;
position = "{921, 654}";
},
{
name = top;
position = "{531, 1291}";
},
{
name = top0315;
position = "{1122, 1291}";
},
{
name = top_dd;
position = "{1122, 1600}";
}
);
hints = (
{
horizontal = 1;
place = "{-2147483648, 0}";
type = Tag;
},
{
horizontal = 1;
place = "{-2147483648, 0}";
type = Tag;
}
);
layerId = "20EE6398-45C7-446F-8F4E-C33CF1AD7937";
paths = (
{
closed = 1;
nodes = (
"624 -20 CURVE",
"834 -20 OFFCURVE",
"988 75 OFFCURVE",
"1055 168 CURVE",
"893 375 LINE",
"831 298 OFFCURVE",
"736 271 OFFCURVE",
"648 271 CURVE SMOOTH",
"504 271 OFFCURVE",
"419 359 OFFCURVE",
"419 504 CURVE SMOOTH",
"419 541 LINE SMOOTH",
"419 680 OFFCURVE",
"443 812 OFFCURVE",
"583 812 CURVE",
"680 812 OFFCURVE",
"734 771 OFFCURVE",
"732 677 CURVE",
"732 648 LINE",
"194 648 LINE",
"194 417 LINE",
"1084 417 LINE",
"1084 568 LINE SMOOTH",
"1084 900 OFFCURVE",
"899 1102 OFFCURVE",
"586 1102 CURVE SMOOTH",
"231 1102 OFFCURVE",
"59 851 OFFCURVE",
"59 541 CURVE SMOOTH",
"59 504 LINE SMOOTH",
"59 226 OFFCURVE",
"263 -20 OFFCURVE"
);
}
);
width = 1122.225;
},
{
anchors = (
{
name = bottom;
position = "{568, 0}";
},
{
name = bottom_dd;
position = "{1087, -407}";
},
{
name = ogonek;
position = "{812, 26}";
},
{
name = rhotichook;
position = "{911, 654}";
},
{
name = top;
position = "{565, 1290}";
},
{
name = top0315;
position = "{1087, 1290}";
},
{
name = top_dd;
position = "{1087, 1600}";
}
);
hints = (
{
horizontal = 1;
place = "{0, 0}";
type = Tag;
},
{
horizontal = 1;
place = "{0, 0}";
type = Tag;
}
);
layerId = "275CACE8-FD52-4067-B7BC-43A450B7EDC9";
paths = (
{
closed = 1;
nodes = (
"590 -20 CURVE",
"805 -20 OFFCURVE",
"928 82 OFFCURVE",
"998 189 CURVE",
"885 277 LINE",
"817 188 OFFCURVE",
"731 130 OFFCURVE",
"600 130 CURVE SMOOTH",
"399 130 OFFCURVE",
"280 297 OFFCURVE",
"280 503 CURVE SMOOTH",
"280 546 LINE SMOOTH",
"280 805 OFFCURVE",
"398 952 OFFCURVE",
"566 952 CURVE",
"755 952 OFFCURVE",
"816 798 OFFCURVE",
"825 654 CURVE",
"825 640 LINE",
"204 640 LINE",
"204 490 LINE",
"1012 490 LINE",
"1012 573 LINE SMOOTH",
"1012 875 OFFCURVE",
"877 1102 OFFCURVE",
"566 1102 CURVE SMOOTH",
"323 1102 OFFCURVE",
"93 898 OFFCURVE",
"93 546 CURVE SMOOTH",
"93 503 LINE SMOOTH",
"93 199 OFFCURVE",
"288 -20 OFFCURVE"
);
}
);
width = 1086.6;
}
);
unicode = 0065;
},
{
glyphname = f;
layers = (
{
anchors = (
{
name = bottom;
position = "{330, 10}";
},
{
name = bottom_dd;
position = "{645, -407}";
},
{
name = top;
position = "{518, 1680}";
},
{
name = top0315;
position = "{645, 1680}";
},
{
name = top_dd;
position = "{645, 1600}";
}
);
guideLines = (
{
position = "{0, 894}";
},
{
position = "{0, 187}";
}
);
layerId = "445B0B85-2678-4800-8A4D-B1A9856CF63B";
paths = (
{
closed = 1;
nodes = (
"308 0 LINE",
"308 1236 LINE",
"308 1405 OFFCURVE",
"396 1503 OFFCURVE",
"538 1503 CURVE SMOOTH",
"592 1503 OFFCURVE",
"619 1498 OFFCURVE",
"657 1488 CURVE",
"665 1540 LINE",
"623 1553 OFFCURVE",
"578 1557 OFFCURVE",
"537 1557 CURVE SMOOTH",
"361 1557 OFFCURVE",
"254 1443 OFFCURVE",
"254 1236 CURVE",
"254 0 LINE"
);
},
{
closed = 1;
nodes = (
"594 1082 LINE",
"66 1082 LINE",
"66 1027 LINE",
"594 1027 LINE"
);
}
);
width = 645;
},
{
anchors = (
{
name = bottom;
position = "{330, 10}";
},
{
name = bottom_dd;
position = "{719, -407}";
},
{
name = top;
position = "{500, 1760}";
},
{
name = top0315;
position = "{719, 1760}";
},
{
name = top_dd;
position = "{719, 1600}";
}
);
guideLines = (
{
position = "{0, 894}";
},
{
position = "{0, 187}";
}
);
layerId = "3A1161A8-2FC1-4350-92D1-D5E808DF9456";
paths = (
{
closed = 1;
nodes = (
"429 0 LINE",
"429 1193 LINE",
"429 1320 OFFCURVE",
"496 1390 OFFCURVE",
"612 1390 CURVE SMOOTH",
"645 1390 OFFCURVE",
"683 1387 OFFCURVE",
"710 1382 CURVE",
"720 1541 LINE",
"679 1551 OFFCURVE",
"635 1557 OFFCURVE",
"593 1557 CURVE SMOOTH",
"367 1557 OFFCURVE",
"229 1428 OFFCURVE",
"229 1193 CURVE",
"229 0 LINE"
);
},
{
closed = 1;
nodes = (
"653 1082 LINE",
"60 1082 LINE",
"60 932 LINE",
"653 932 LINE"
);
}
);
width = 719;
},
{
anchors = (
{
name = bottom;
position = "{330, 10}";
},
{
name = bottom_dd;
position = "{750, -407}";
},
{
name = top;
position = "{430, 1646}";
},
{
name = top0315;
position = "{750, 1646}";
},
{
name = top_dd;
position = "{750, 1600}";
}
);
hints = (
{
horizontal = 1;
place = "{-2147483648, 0}";
type = Tag;
}
);
layerId = "20EE6398-45C7-446F-8F4E-C33CF1AD7937";
paths = (
{
closed = 1;
nodes = (
"524 0 LINE",
"524 1162 LINE",
"524 1230 OFFCURVE",
"576 1268 OFFCURVE",
"670 1268 CURVE SMOOTH",
"705 1268 OFFCURVE",
"728 1265 OFFCURVE",
"751 1259 CURVE",
"749 1535 LINE",
"699 1547 OFFCURVE",
"647 1557 OFFCURVE",
"587 1557 CURVE SMOOTH",
"327 1557 OFFCURVE",
"162 1418 OFFCURVE",
"162 1162 CURVE",
"162 0 LINE"
);
},
{
closed = 1;
nodes = (
"728 1082 LINE",
"8 1082 LINE",
"8 822 LINE",
"728 822 LINE"
);
}
);
width = 750.275;
},
{
anchors = (
{
name = bottom;
position = "{330, 10}";
},
{
name = bottom_dd;
position = "{712, -407}";
},
{
name = top;
position = "{502, 1753}";
},
{
name = top0315;
position = "{712, 1753}";
},
{
name = top_dd;
position = "{712, 1600}";
}
);
hints = (
{
horizontal = 1;
place = "{0, 0}";
type = Tag;
}
);
layerId = "275CACE8-FD52-4067-B7BC-43A450B7EDC9";
paths = (
{
closed = 1;
nodes = (
"418 0 LINE",
"418 1197 LINE",
"418 1328 OFFCURVE",
"487 1400 OFFCURVE",
"605 1400 CURVE SMOOTH",
"640 1400 OFFCURVE",
"677 1397 OFFCURVE",
"705 1392 CURVE",
"715 1541 LINE",
"674 1551 OFFCURVE",
"630 1557 OFFCURVE",
"588 1557 CURVE SMOOTH",
"366 1557 OFFCURVE",
"231 1429 OFFCURVE",
"231 1197 CURVE",
"231 0 LINE"
);
},
{
closed = 1;
nodes = (
"648 1082 LINE",
"61 1082 LINE",
"61 941 LINE",
"648 941 LINE"
);
}
);
width = 712.34;
}
);
unicode = 0066;
userData = {
com.typemytype.robofont.guides = (
{
angle = 0;
isGlobal = 0;
magnetic = 5;
x = 0;
y = 894;
},
{
angle = 0;
isGlobal = 0;
magnetic = 5;
x = 0;
y = 187;
}
);
};
},
{
glyphname = g;
layers = (
{
anchors = (
{
name = bottom;
position = "{554, -447}";
},
{
name = bottom_dd;
position = "{1123, -407}";
},
{
name = top;
position = "{567, 1290}";
},
{
name = top0315;
position = "{1123, 1290}";
},
{
name = top_dd;
position = "{1123, 1600}";
}
);
layerId = "445B0B85-2678-4800-8A4D-B1A9856CF63B";
paths = (
{
closed = 1;
nodes = (
"895 1082 LINE",
"895 844 LINE",
"895 15 LINE SMOOTH",
"895 -228 OFFCURVE",
"774 -383 OFFCURVE",
"539 -383 CURVE SMOOTH",
"405 -383 OFFCURVE",
"309 -324 OFFCURVE",
"225 -218 CURVE",
"187 -254 LINE",
"265 -361 OFFCURVE",
"383 -436 OFFCURVE",
"541 -436 CURVE SMOOTH",
"796 -436 OFFCURVE",
"950 -262 OFFCURVE",
"950 15 CURVE SMOOTH",
"950 1082 LINE"
);
},
{
closed = 1;
nodes = (
"121 531 LINE",
"121 201 OFFCURVE",
"271 -20 OFFCURVE",
"527 -20 CURVE SMOOTH",
"771 -20 OFFCURVE",
"912 133 OFFCURVE",
"946 304 CURVE",
"946 745 LINE",
"899 948 OFFCURVE",
"764 1102 OFFCURVE",
"529 1102 CURVE SMOOTH",
"272 1102 OFFCURVE",
"121 893 OFFCURVE",
"121 552 CURVE SMOOTH"
);
},
{
closed = 1;
nodes = (
"176 552 LINE",
"176 839 OFFCURVE",
"290 1048 OFFCURVE",
"528 1048 CURVE SMOOTH",
"800 1048 OFFCURVE",
"881 843 OFFCURVE",
"910 709 CURVE",
"910 329 LINE",
"874 166 OFFCURVE",
"753 34 OFFCURVE",
"526 34 CURVE SMOOTH",
"290 34 OFFCURVE",
"176 243 OFFCURVE",
"176 531 CURVE SMOOTH"
);
}
);
width = 1123;
},
{
anchors = (
{
name = bottom;
position = "{554, -447}";
},
{
name = bottom_dd;
position = "{1153, -407}";
},
{
name = top;
position = "{555, 1290}";
},
{
name = top0315;
position = "{1153, 1290}";
},
{
name = top_dd;
position = "{1153, 1600}";
}
);
layerId = "3A1161A8-2FC1-4350-92D1-D5E808DF9456";
paths = (
{
closed = 1;
nodes = (
"836 1082 LINE",
"817 844 LINE",
"817 14 LINE SMOOTH",
"817 -170 OFFCURVE",
"706 -266 OFFCURVE",
"538 -266 CURVE SMOOTH",
"444 -266 OFFCURVE",
"341 -232 OFFCURVE",
"250 -121 CURVE",
"147 -238 LINE",
"246 -382 OFFCURVE",
"446 -426 OFFCURVE",
"553 -426 CURVE SMOOTH",
"825 -426 OFFCURVE",
"1017 -264 OFFCURVE",
"1017 24 CURVE SMOOTH",
"1017 1082 LINE"
);
},
{
closed = 1;
nodes = (
"94 529 LINE",
"94 214 OFFCURVE",
"261 -20 OFFCURVE",
"521 -20 CURVE SMOOTH",
"799 -20 OFFCURVE",
"932 181 OFFCURVE",
"962 510 CURVE",
"962 572 LINE",
"932 901 OFFCURVE",
"799 1102 OFFCURVE",
"523 1102 CURVE SMOOTH",
"259 1102 OFFCURVE",
"94 879 OFFCURVE",
"94 550 CURVE SMOOTH"
);
},
{
closed = 1;
nodes = (
"294 550 LINE",
"294 759 OFFCURVE",
"376 937 OFFCURVE",
"574 937 CURVE SMOOTH",
"751 937 OFFCURVE",
"835 803 OFFCURVE",
"866 655 CURVE",
"866 426 LINE",
"825 277 OFFCURVE",
"751 146 OFFCURVE",
"572 146 CURVE SMOOTH",
"376 146 OFFCURVE",
"294 320 OFFCURVE",
"294 529 CURVE SMOOTH"
);
}
);
width = 1153;
},
{
anchors = (
{
name = bottom;
position = "{554, -447}";
},
{
name = bottom_dd;
position = "{1183, -407}";
},
{
name = top;
position = "{553, 1290}";
},
{
name = top0315;
position = "{1183, 1290}";
},
{
name = top_dd;
position = "{1183, 1600}";
}
);
layerId = "20EE6398-45C7-446F-8F4E-C33CF1AD7937";
paths = (
{
closed = 1;
nodes = (
"765 1082 LINE",
"730 822 LINE",
"730 51 LINE SMOOTH",
"730 -75 OFFCURVE",
"656 -148 OFFCURVE",
"517 -148 CURVE SMOOTH",
"407 -148 OFFCURVE",
"325 -98 OFFCURVE",
"274 -46 CURVE",
"124 -269 LINE",
"214 -369 OFFCURVE",
"385 -425 OFFCURVE",
"529 -425 CURVE SMOOTH",
"865 -425 OFFCURVE",
"1092 -257 OFFCURVE",
"1092 47 CURVE SMOOTH",
"1092 1082 LINE"
);
},
{
closed = 1;
nodes = (
"50 528 LINE",
"50 214 OFFCURVE",
"220 -20 OFFCURVE",
"495 -20 CURVE SMOOTH",
"757 -20 OFFCURVE",
"856 241 OFFCURVE",
"902 538 CURVE",
"902 526 LINE",
"857 845 OFFCURVE",
"797 1102 OFFCURVE",
"497 1102 CURVE SMOOTH",
"220 1102 OFFCURVE",
"50 877 OFFCURVE",
"50 549 CURVE SMOOTH"
);
},
{
closed = 1;
nodes = (
"411 549 LINE",
"411 702 OFFCURVE",
"473 812 OFFCURVE",
"590 812 CURVE SMOOTH",
"723 812 OFFCURVE",
"779 733 OFFCURVE",
"772 549 CURVE",
"772 515 LINE",
"781 361 OFFCURVE",
"726 270 OFFCURVE",
"588 270 CURVE SMOOTH",
"468 270 OFFCURVE",
"411 382 OFFCURVE",
"411 528 CURVE SMOOTH"
);
}
);
width = 1183.425;
},
{
anchors = (
{
name = bottom;
position = "{554, -447}";
},
{
name = bottom_dd;
position = "{1150, -407}";
},
{
name = top;
position = "{556, 1290}";
},
{
name = top0315;
position = "{1150, 1290}";
},
{
name = top_dd;
position = "{1150, 1600}";
}
);
layerId = "275CACE8-FD52-4067-B7BC-43A450B7EDC9";
paths = (
{
closed = 1;
nodes = (
"841 1082 LINE",
"824 844 LINE",
"824 14 LINE SMOOTH",
"824 -175 OFFCURVE",
"712 -277 OFFCURVE",
"538 -277 CURVE SMOOTH",
"440 -277 OFFCURVE",
"338 -240 OFFCURVE",
"248 -130 CURVE",
"151 -239 LINE",
"248 -380 OFFCURVE",
"440 -427 OFFCURVE",
"552 -427 CURVE SMOOTH",
"822 -427 OFFCURVE",
"1011 -264 OFFCURVE",
"1011 23 CURVE SMOOTH",
"1011 1082 LINE"
);
},
{
closed = 1;
nodes = (
"96 529 LINE",
"96 213 OFFCURVE",
"262 -20 OFFCURVE",
"522 -20 CURVE SMOOTH",
"796 -20 OFFCURVE",
"930 177 OFFCURVE",
"961 491 CURVE",
"961 588 LINE",
"929 905 OFFCURVE",
"796 1102 OFFCURVE",
"524 1102 CURVE SMOOTH",
"260 1102 OFFCURVE",
"96 880 OFFCURVE",
"96 550 CURVE SMOOTH"
);
},
{
closed = 1;
nodes = (
"283 550 LINE",
"283 766 OFFCURVE",
"368 947 OFFCURVE",
"570 947 CURVE SMOOTH",
"755 947 OFFCURVE",
"839 807 OFFCURVE",
"870 660 CURVE",
"870 417 LINE",
"829 267 OFFCURVE",
"751 136 OFFCURVE",
"568 136 CURVE SMOOTH",
"368 136 OFFCURVE",
"283 313 OFFCURVE",
"283 529 CURVE SMOOTH"
);
}
);
width = 1150.3;
}
);
unicode = 0067;
},
{
glyphname = h;
layers = (
{
anchors = (
{
name = bottom;
position = "{572, 10}";
},
{
name = bottom_dd;
position = "{1121, -407}";
},
{
name = cross;
position = "{330, 1306}";
},
{
name = right;
position = "{955, 0}";
},
{
name = top;
position = "{473, 1611}";
},
{
name = top0315;
position = "{1121, 1611}";
},
{
name = top_dd;
position = "{1121, 1600}";
}
);
guideLines = (
{
position = "{0, 901}";
},
{
position = "{0, 555}";
}
);
layerId = "445B0B85-2678-4800-8A4D-B1A9856CF63B";
paths = (
{
closed = 1;
nodes = (
"226 1536 LINE",
"172 1536 LINE",
"172 0 LINE",
"226 0 LINE"
);
},
{
closed = 1;
nodes = (
"217 634 LINE",
"226 763 OFFCURVE",
"335 1049 OFFCURVE",
"607 1049 CURVE",
"779 1049 OFFCURVE",
"900 975 OFFCURVE",
"900 700 CURVE SMOOTH",
"900 0 LINE",
"954 0 LINE",
"954 700 LINE SMOOTH",
"954 987 OFFCURVE",
"829 1102 OFFCURVE",
"610 1102 CURVE SMOOTH",
"375 1102 OFFCURVE",
"215 904 OFFCURVE",
"188 691 CURVE"
);
}
);
width = 1121;
},
{
anchors = (
{
name = bottom;
position = "{590, 10}";
},
{
name = bottom_dd;
position = "{1129, -407}";
},
{
name = cross;
position = "{281, 1306}";
},
{
name = right;
position = "{996, 0}";
},
{
name = top;
position = "{504, 1611}";
},
{
name = top0315;
position = "{1129, 1611}";
},
{
name = top_dd;
position = "{1129, 1600}";
}
);
guideLines = (
{
position = "{0, 901}";
},
{
position = "{0, 555}";
}
);
layerId = "3A1161A8-2FC1-4350-92D1-D5E808DF9456";
paths = (
{
closed = 1;
nodes = (
"337 1536 LINE",
"137 1536 LINE",
"137 0 LINE",
"337 0 LINE"
);
},
{
closed = 1;
nodes = (
"289 578 LINE",
"289 778 OFFCURVE",
"414 937 OFFCURVE",
"588 937 CURVE SMOOTH",
"725 937 OFFCURVE",
"796 872 OFFCURVE",
"796 712 CURVE SMOOTH",
"796 0 LINE",
"996 0 LINE",
"996 710 LINE SMOOTH",
"996 993 OFFCURVE",
"861 1102 OFFCURVE",
"649 1102 CURVE SMOOTH",
"384 1102 OFFCURVE",
"207 880 OFFCURVE",
"207 576 CURVE"
);
}
);
width = 1129;
},
{
anchors = (
{
name = bottom;
position = "{580, 10}";
},
{
name = bottom_dd;
position = "{1159, -407}";
},
{
name = cross;
position = "{296, 1301}";
},
{
name = right;
position = "{1073, 0}";
},
{
name = top;
position = "{541, 1711}";
},
{
name = top0315;
position = "{1159, 1711}";
},
{
name = top_dd;
position = "{1159, 1600}";
}
);
layerId = "20EE6398-45C7-446F-8F4E-C33CF1AD7937";
paths = (
{
closed = 1;
nodes = (
"441 1536 LINE",
"80 1536 LINE",
"80 0 LINE",
"441 0 LINE"
);
},
{
closed = 1;
nodes = (
"399 574 LINE",
"398 719 OFFCURVE",
"419 812 OFFCURVE",
"568 812 CURVE SMOOTH",
"658 812 OFFCURVE",
"711 783 OFFCURVE",
"711 666 CURVE SMOOTH",
"711 0 LINE",
"1073 0 LINE",
"1073 664 LINE SMOOTH",
"1073 985 OFFCURVE",
"922 1102 OFFCURVE",
"708 1102 CURVE SMOOTH",
"470 1102 OFFCURVE",
"314 878 OFFCURVE",
"316 567 CURVE"
);
}
);
width = 1159;
},
{
anchors = (
{
name = bottom;
position = "{588, 10}";
},
{
name = bottom_dd;
position = "{1128, -407}";
},
{
name = cross;
position = "{285, 1306}";
},
{
name = right;
position = "{992, 0}";
},
{
name = top;
position = "{501, 1611}";
},
{
name = top0315;
position = "{1128, 1611}";
},
{
name = top_dd;
position = "{1128, 1600}";
}
);
layerId = "275CACE8-FD52-4067-B7BC-43A450B7EDC9";
paths = (
{
closed = 1;
nodes = (
"327 1536 LINE",
"140 1536 LINE",
"140 0 LINE",
"327 0 LINE"
);
},
{
closed = 1;
nodes = (
"283 583 LINE",
"283 777 OFFCURVE",
"407 947 OFFCURVE",
"590 947 CURVE SMOOTH",
"730 947 OFFCURVE",
"805 881 OFFCURVE",
"805 711 CURVE SMOOTH",
"805 0 LINE",
"992 0 LINE",
"992 709 LINE SMOOTH",
"992 992 OFFCURVE",
"858 1102 OFFCURVE",
"645 1102 CURVE SMOOTH",
"383 1102 OFFCURVE",
"208 882 OFFCURVE",
"205 586 CURVE"
);
}
);
width = 1128.28;
}
);
unicode = 0068;
userData = {
com.typemytype.robofont.guides = (
{
angle = 0;
isGlobal = 0;
magnetic = 5;
x = 0;
y = 901;
},
{
angle = 0;
isGlobal = 0;
magnetic = 5;
x = 0;
y = 555;
}
);
};
},
{
glyphname = i;
layers = (
{
anchors = (
{
name = bottom;
position = "{210, 10}";
},
{
name = bottom_dd;
position = "{422, -407}";
},
{
name = ogonek;
position = "{238, 0}";
},
{
name = rhotichook;
position = "{212, 654}";
},
{
name = top;
position = "{218, 1600}";
},
{
name = top0315;
position = "{422, 1600}";
},
{
name = top_dd;
position = "{422, 1600}";
}
);
guideLines = (
{
position = "{0, 901}";
},
{
position = "{0, 555}";
}
);
layerId = "445B0B85-2678-4800-8A4D-B1A9856CF63B";
paths = (
{
closed = 1;
nodes = (
"239 1082 LINE",
"185 1082 LINE",
"185 0 LINE",
"239 0 LINE"
);
},
{
closed = 1;
nodes = (
"157 1420 CURVE SMOOTH",
"157 1389 OFFCURVE",
"181 1365 OFFCURVE",
"212 1365 CURVE SMOOTH",
"243 1365 OFFCURVE",
"268 1389 OFFCURVE",
"268 1420 CURVE SMOOTH",
"268 1451 OFFCURVE",
"243 1476 OFFCURVE",
"212 1476 CURVE SMOOTH",
"181 1476 OFFCURVE",
"157 1451 OFFCURVE"
);
}
);
width = 422;
},
{
anchors = (
{
name = bottom;
position = "{253, 10}";
},
{
name = bottom_dd;
position = "{506, -407}";
},
{
name = ogonek;
position = "{336, 0}";
},
{
name = rhotichook;
position = "{284, 654}";
},
{
name = top;
position = "{255, 1600}";
},
{
name = top0315;
position = "{506, 1600}";
},
{
name = top_dd;
position = "{506, 1600}";
}
);
guideLines = (
{
position = "{0, 901}";
},
{
position = "{0, 555}";
}
);
layerId = "3A1161A8-2FC1-4350-92D1-D5E808DF9456";
paths = (
{
closed = 1;
nodes = (
"353 1082 LINE",
"153 1082 LINE",
"153 0 LINE",
"353 0 LINE"
);
},
{
closed = 1;
nodes = (
"140 1365 CURVE SMOOTH",
"140 1304 OFFCURVE",
"179 1256 OFFCURVE",
"255 1256 CURVE",
"331 1256 OFFCURVE",
"371 1304 OFFCURVE",
"371 1365 CURVE",
"371 1427 OFFCURVE",
"331 1476 OFFCURVE",
"255 1476 CURVE",
"179 1476 OFFCURVE",
"140 1427 OFFCURVE"
);
}
);
width = 506;
},
{
anchors = (
{
name = bottom;
position = "{287, 10}";
},
{
name = bottom_dd;
position = "{575, -407}";
},
{
name = ogonek;
position = "{407, 0}";
},
{
name = rhotichook;
position = "{373, 654}";
},
{
name = top;
position = "{285, 1600}";
},
{
name = top0315;
position = "{575, 1600}";
},
{
name = top_dd;
position = "{575, 1600}";
}
);
layerId = "20EE6398-45C7-446F-8F4E-C33CF1AD7937";
paths = (
{
closed = 1;
nodes = (
"468 1082 LINE",
"107 1082 LINE",
"107 0 LINE",
"468 0 LINE"
);
},
{
closed = 1;
nodes = (
"87 1356 CURVE SMOOTH",
"87 1250 OFFCURVE",
"168 1176 OFFCURVE",
"285 1176 CURVE",
"403 1176 OFFCURVE",
"483 1250 OFFCURVE",
"483 1356 CURVE",
"483 1462 OFFCURVE",
"403 1536 OFFCURVE",
"285 1536 CURVE",
"168 1536 OFFCURVE",
"87 1462 OFFCURVE"
);
}
);
width = 574.775;
},
{
anchors = (
{
name = bottom;
position = "{249, 10}";
},
{
name = bottom_dd;
position = "{498, -407}";
},
{
name = ogonek;
position = "{327, 0}";
},
{
name = rhotichook;
position = "{278, 654}";
},
{
name = top;
position = "{252, 1600}";
},
{
name = top0315;
position = "{498, 1600}";
},
{
name = top_dd;
position = "{498, 1600}";
}
);
layerId = "275CACE8-FD52-4067-B7BC-43A450B7EDC9";
paths = (
{
closed = 1;
nodes = (
"343 1082 LINE",
"156 1082 LINE",
"156 0 LINE",
"343 0 LINE"
);
},
{
closed = 1;
nodes = (
"142 1370 CURVE SMOOTH",
"142 1312 OFFCURVE",
"179 1266 OFFCURVE",
"251 1266 CURVE",
"323 1266 OFFCURVE",
"362 1312 OFFCURVE",
"362 1370 CURVE",
"362 1429 OFFCURVE",
"323 1476 OFFCURVE",
"251 1476 CURVE",
"179 1476 OFFCURVE",
"142 1429 OFFCURVE"
);
}
);
width = 498.44;
}
);
unicode = 0069;
userData = {
com.typemytype.robofont.guides = (
{
angle = 0;
isGlobal = 0;
magnetic = 5;
x = 0;
y = 901;
},
{
angle = 0;
isGlobal = 0;
magnetic = 5;
x = 0;
y = 555;
}
);
};
},
{
glyphname = dotlessi;
layers = (
{
anchors = (
{
name = bottom;
position = "{210, 10}";
},
{
name = rhotichook;
position = "{212, 654}";
},
{
name = top;
position = "{209, 1269}";
},
{
name = top0315;
position = "{406, 1269}";
}
);
layerId = "445B0B85-2678-4800-8A4D-B1A9856CF63B";
paths = (
{
closed = 1;
nodes = (
"235 1082 LINE",
"181 1082 LINE",
"181 0 LINE",
"235 0 LINE"
);
}
);
width = 406;
},
{
anchors = (
{
name = bottom;
position = "{253, 10}";
},
{
name = rhotichook;
position = "{284, 654}";
},
{
name = top;
position = "{257, 1290}";
},
{
name = top0315;
position = "{518, 1290}";
}
);
layerId = "3A1161A8-2FC1-4350-92D1-D5E808DF9456";
paths = (
{
closed = 1;
nodes = (
"353 1082 LINE",
"153 1082 LINE",
"153 0 LINE",
"353 0 LINE"
);
}
);
width = 518;
},
{
anchors = (
{
name = bottom;
position = "{287, 10}";
},
{
name = rhotichook;
position = "{373, 654}";
},
{
name = top;
position = "{300, 1266}";
},
{
name = top0315;
position = "{599, 1266}";
}
);
layerId = "20EE6398-45C7-446F-8F4E-C33CF1AD7937";
paths = (
{
closed = 1;
nodes = (
"481 1082 LINE",
"119 1082 LINE",
"119 0 LINE",
"481 0 LINE"
);
}
);
width = 598.675;
},
{
anchors = (
{
name = bottom;
position = "{249, 10}";
},
{
name = rhotichook;
position = "{278, 654}";
},
{
name = top;
position = "{253, 1288}";
},
{
name = top0315;
position = "{508, 1288}";
}
);
layerId = "275CACE8-FD52-4067-B7BC-43A450B7EDC9";
paths = (
{
closed = 1;
nodes = (
"342 1082 LINE",
"156 1082 LINE",
"156 0 LINE",
"342 0 LINE"
);
}
);
width = 507.92;
}
);
unicode = 0131;
},
{
glyphname = j;
layers = (
{
anchors = (
{
name = bottom;
position = "{190, -459}";
},
{
name = bottom_dd;
position = "{445, -407}";
},
{
name = top;
position = "{223, 1600}";
},
{
name = top0315;
position = "{445, 1600}";
},
{
name = top_dd;
position = "{445, 1600}";
}
);
guideLines = (
{
position = "{0, 659}";
},
{
position = "{0, 1005}";
}
);
layerId = "445B0B85-2678-4800-8A4D-B1A9856CF63B";
paths = (
{
closed = 1;
nodes = (
"186 1082 LINE",
"186 -129 LINE",
"186 -290 OFFCURVE",
"103 -383 OFFCURVE",
"-45 -383 CURVE SMOOTH",
"-82 -383 OFFCURVE",
"-119 -373 OFFCURVE",
"-140 -365 CURVE",
"-143 -417 LINE",
"-111 -430 OFFCURVE",
"-79 -437 OFFCURVE",
"-45 -437 CURVE SMOOTH",
"134 -437 OFFCURVE",
"240 -328 OFFCURVE",
"240 -129 CURVE",
"240 1082 LINE"
);
},
{
closed = 1;
nodes = (
"163 1420 CURVE SMOOTH",
"163 1389 OFFCURVE",
"187 1365 OFFCURVE",
"218 1365 CURVE SMOOTH",
"249 1365 OFFCURVE",
"274 1389 OFFCURVE",
"274 1420 CURVE SMOOTH",
"274 1451 OFFCURVE",
"249 1476 OFFCURVE",
"218 1476 CURVE SMOOTH",
"187 1476 OFFCURVE",
"163 1451 OFFCURVE"
);
}
);
width = 445;
},
{
anchors = (
{
name = bottom;
position = "{190, -459}";
},
{
name = bottom_dd;
position = "{495, -407}";
},
{
name = top;
position = "{223, 1600}";
},
{
name = top0315;
position = "{495, 1600}";
},
{
name = top_dd;
position = "{495, 1600}";
}
);
guideLines = (
{
position = "{0, 659}";
},
{
position = "{0, 1005}";
}
);
layerId = "3A1161A8-2FC1-4350-92D1-D5E808DF9456";
paths = (
{
closed = 1;
nodes = (
"142 1082 LINE",
"142 -129 LINE",
"142 -235 OFFCURVE",
"101 -271 OFFCURVE",
"27 -271 CURVE SMOOTH",
"5 -271 OFFCURVE",
"-31 -269 OFFCURVE",
"-57 -263 CURVE",
"-57 -420 LINE",
"-26 -430 OFFCURVE",
"25 -437 OFFCURVE",
"59 -437 CURVE SMOOTH",
"250 -437 OFFCURVE",
"342 -328 OFFCURVE",
"342 -129 CURVE",
"342 1082 LINE"
);
},
{
closed = 1;
nodes = (
"123 1365 CURVE SMOOTH",
"123 1304 OFFCURVE",
"162 1256 OFFCURVE",
"238 1256 CURVE SMOOTH",
"314 1256 OFFCURVE",
"354 1304 OFFCURVE",
"354 1365 CURVE SMOOTH",
"354 1427 OFFCURVE",
"314 1476 OFFCURVE",
"238 1476 CURVE SMOOTH",
"162 1476 OFFCURVE",
"123 1427 OFFCURVE"
);
}
);
width = 495;
},
{
anchors = (
{
name = bottom;
position = "{190, -459}";
},
{
name = bottom_dd;
position = "{562, -407}";
},
{
name = top;
position = "{223, 1600}";
},
{
name = top0315;
position = "{562, 1600}";
},
{
name = top_dd;
position = "{562, 1600}";
}
);
layerId = "20EE6398-45C7-446F-8F4E-C33CF1AD7937";
paths = (
{
closed = 1;
nodes = (
"114 1082 LINE",
"114 -14 LINE",
"114 -101 OFFCURVE",
"67 -144 OFFCURVE",
"-20 -144 CURVE SMOOTH",
"-55 -144 OFFCURVE",
"-81 -140 OFFCURVE",
"-116 -135 CURVE",
"-115 -420 LINE",
"-55 -434 OFFCURVE",
"-10 -437 OFFCURVE",
"50 -437 CURVE SMOOTH",
"313 -437 OFFCURVE",
"476 -288 OFFCURVE",
"476 -14 CURVE",
"476 1082 LINE"
);
},
{
closed = 1;
nodes = (
"89 1356 CURVE SMOOTH",
"89 1250 OFFCURVE",
"170 1176 OFFCURVE",
"287 1176 CURVE SMOOTH",
"405 1176 OFFCURVE",
"485 1250 OFFCURVE",
"485 1356 CURVE SMOOTH",
"485 1462 OFFCURVE",
"405 1536 OFFCURVE",
"287 1536 CURVE SMOOTH",
"170 1536 OFFCURVE",
"89 1462 OFFCURVE"
);
}
);
width = 562.45;
},
{
anchors = (
{
name = bottom;
position = "{190, -459}";
},
{
name = bottom_dd;
position = "{491, -407}";
},
{
name = top;
position = "{223, 1600}";
},
{
name = top0315;
position = "{491, 1600}";
},
{
name = top_dd;
position = "{491, 1600}";
}
);
layerId = "275CACE8-FD52-4067-B7BC-43A450B7EDC9";
paths = (
{
closed = 1;
nodes = (
"146 1082 LINE",
"146 -129 LINE",
"146 -240 OFFCURVE",
"101 -281 OFFCURVE",
"21 -281 CURVE SMOOTH",
"-3 -281 OFFCURVE",
"-39 -278 OFFCURVE",
"-64 -272 CURVE",
"-65 -420 LINE",
"-34 -430 OFFCURVE",
"16 -437 OFFCURVE",
"50 -437 CURVE SMOOTH",
"240 -437 OFFCURVE",
"333 -328 OFFCURVE",
"333 -129 CURVE",
"333 1082 LINE"
);
},
{
closed = 1;
nodes = (
"127 1370 CURVE SMOOTH",
"127 1312 OFFCURVE",
"164 1266 OFFCURVE",
"236 1266 CURVE SMOOTH",
"308 1266 OFFCURVE",
"347 1312 OFFCURVE",
"347 1370 CURVE SMOOTH",
"347 1429 OFFCURVE",
"308 1476 OFFCURVE",
"236 1476 CURVE SMOOTH",
"164 1476 OFFCURVE",
"127 1429 OFFCURVE"
);
}
);
width = 490.5;
}
);
unicode = 006A;
userData = {
com.typemytype.robofont.guides = (
{
angle = 0;
isGlobal = 0;
magnetic = 5;
x = 0;
y = 659;
},
{
angle = 0;
isGlobal = 0;
magnetic = 5;
x = 0;
y = 1005;
}
);
};
},
{
glyphname = k;
layers = (
{
anchors = (
{
name = bottom;
position = "{518, 114}";
},
{
name = bottom_dd;
position = "{969, -407}";
},
{
name = cross;
position = "{342, 1289}";
},
{
name = marktop;
position = "{544, 1612}";
},
{
name = top;
position = "{544, 1612}";
},
{
name = top0315;
position = "{839, 1612}";
},
{
name = top_dd;
position = "{969, 1600}";
}
);
layerId = "445B0B85-2678-4800-8A4D-B1A9856CF63B";
paths = (
{
closed = 1;
nodes = (
"226 1536 LINE",
"172 1536 LINE",
"172 0 LINE",
"226 0 LINE"
);
},
{
closed = 1;
nodes = (
"922 1082 LINE",
"845 1082 LINE",
"353 627 LINE",
"196 479 LINE",
"216 440 LINE",
"383 583 LINE"
);
},
{
closed = 1;
nodes = (
"883 0 LINE",
"953 0 LINE",
"401 650 LINE",
"366 608 LINE"
);
}
);
width = 969;
},
{
anchors = (
{
name = bottom;
position = "{530, 67}";
},
{
name = bottom_dd;
position = "{1046, -407}";
},
{
name = cross;
position = "{240, 1289}";
},
{
name = marktop;
position = "{550, 1611}";
},
{
name = top;
position = "{550, 1611}";
},
{
name = top0315;
position = "{916, 1611}";
},
{
name = top_dd;
position = "{1046, 1600}";
}
);
layerId = "3A1161A8-2FC1-4350-92D1-D5E808DF9456";
paths = (
{
closed = 1;
nodes = (
"338 1536 LINE",
"138 1536 LINE",
"138 0 LINE",
"338 0 LINE"
);
},
{
closed = 1;
nodes = (
"995 1082 LINE",
"753 1082 LINE",
"434 735 LINE",
"241 502 LINE",
"256 291 LINE",
"531 577 LINE"
);
},
{
closed = 1;
nodes = (
"812 0 LINE",
"1046 0 LINE",
"543 684 LINE",
"440 508 LINE"
);
}
);
width = 1046;
},
{
anchors = (
{
name = bottom;
position = "{587, 19}";
},
{
name = bottom_dd;
position = "{1133, -407}";
},
{
name = cross;
position = "{261, 1300}";
},
{
name = marktop;
position = "{721, 1597}";
},
{
name = top;
position = "{721, 1597}";
},
{
name = top0315;
position = "{1003, 1597}";
},
{
name = top_dd;
position = "{1133, 1600}";
}
);
layerId = "20EE6398-45C7-446F-8F4E-C33CF1AD7937";
paths = (
{
closed = 1;
nodes = (
"452 1537 LINE",
"91 1537 LINE",
"91 0 LINE",
"452 0 LINE"
);
},
{
closed = 1;
nodes = (
"1144 1082 LINE",
"713 1082 LINE",
"478 781 LINE",
"269 500 LINE",
"428 272 LINE",
"679 520 LINE"
);
},
{
closed = 1;
nodes = (
"756 0 LINE",
"1168 0 LINE",
"753 669 LINE",
"486 482 LINE"
);
}
);
width = 1132.625;
},
{
anchors = (
{
name = bottom;
position = "{529, 71}";
},
{
name = bottom_dd;
position = "{1039, -407}";
},
{
name = cross;
position = "{249, 1289}";
},
{
name = marktop;
position = "{549, 1611}";
},
{
name = top;
position = "{549, 1611}";
},
{
name = top0315;
position = "{909, 1611}";
},
{
name = top_dd;
position = "{1039, 1600}";
}
);
layerId = "275CACE8-FD52-4067-B7BC-43A450B7EDC9";
paths = (
{
closed = 1;
nodes = (
"328 1536 LINE",
"141 1536 LINE",
"141 0 LINE",
"328 0 LINE"
);
},
{
closed = 1;
nodes = (
"988 1082 LINE",
"761 1082 LINE",
"427 725 LINE",
"237 500 LINE",
"252 304 LINE",
"518 578 LINE"
);
},
{
closed = 1;
nodes = (
"818 0 LINE",
"1038 0 LINE",
"530 681 LINE",
"433 517 LINE"
);
}
);
width = 1039.07;
}
);
unicode = 006B;
},
{
glyphname = l;
layers = (
{
anchors = (
{
name = bottom;
position = "{214, 10}";
},
{
name = bottom_dd;
position = "{422, -407}";
},
{
name = caron;
position = "{417, 1536}";
},
{
name = dot;
position = "{397, 794}";
},
{
name = marktop;
position = "{474, 1503}";
},
{
name = top;
position = "{214, 1673}";
},
{
name = top0315;
position = "{422, 1673}";
},
{
name = top_dd;
position = "{422, 1600}";
}
);
layerId = "445B0B85-2678-4800-8A4D-B1A9856CF63B";
paths = (
{
closed = 1;
nodes = (
"239 1536 LINE",
"185 1536 LINE",
"185 0 LINE",
"239 0 LINE"
);
}
);
width = 422;
},
{
anchors = (
{
name = bottom;
position = "{253, 10}";
},
{
name = bottom_dd;
position = "{506, -407}";
},
{
name = caron;
position = "{483, 1536}";
},
{
name = dot;
position = "{477, 774}";
},
{
name = marktop;
position = "{573, 1543}";
},
{
name = top;
position = "{253, 1699}";
},
{
name = top0315;
position = "{506, 1699}";
},
{
name = top_dd;
position = "{506, 1600}";
}
);
layerId = "3A1161A8-2FC1-4350-92D1-D5E808DF9456";
paths = (
{
closed = 1;
nodes = (
"353 1536 LINE",
"153 1536 LINE",
"153 0 LINE",
"353 0 LINE"
);
}
);
width = 506;
},
{
anchors = (
{
name = bottom;
position = "{287, 10}";
},
{
name = bottom_dd;
position = "{575, -407}";
},
{
name = caron;
position = "{569, 1536}";
},
{
name = dot;
position = "{555, 779}";
},
{
name = marktop;
position = "{721, 1476}";
},
{
name = top;
position = "{287, 1674}";
},
{
name = top0315;
position = "{575, 1674}";
},
{
name = top_dd;
position = "{575, 1600}";
}
);
layerId = "20EE6398-45C7-446F-8F4E-C33CF1AD7937";
paths = (
{
closed = 1;
nodes = (
"468 1536 LINE",
"107 1536 LINE",
"107 0 LINE",
"468 0 LINE"
);
}
);
width = 574.775;
},
{
anchors = (
{
name = bottom;
position = "{249, 10}";
},
{
name = bottom_dd;
position = "{498, -407}";
},
{
name = caron;
position = "{477, 1536}";
},
{
name = dot;
position = "{470, 776}";
},
{
name = marktop;
position = "{564, 1539}";
},
{
name = top;
position = "{249, 1697}";
},
{
name = top0315;
position = "{498, 1697}";
},
{
name = top_dd;
position = "{498, 1600}";
}
);
layerId = "275CACE8-FD52-4067-B7BC-43A450B7EDC9";
paths = (
{
closed = 1;
nodes = (
"343 1536 LINE",
"156 1536 LINE",
"156 0 LINE",
"343 0 LINE"
);
}
);
width = 498.44;
}
);
unicode = 006C;
},
{
glyphname = m;
layers = (
{
anchors = (
{
name = bottom;
position = "{918, 10}";
},
{
name = bottom_dd;
position = "{1836, -407}";
},
{
name = marktop;
position = "{916, 1290}";
},
{
name = top;
position = "{916, 1290}";
},
{
name = top0315;
position = "{1836, 1290}";
},
{
name = top_dd;
position = "{1836, 1600}";
}
);
layerId = "445B0B85-2678-4800-8A4D-B1A9856CF63B";
paths = (
{
closed = 1;
nodes = (
"216 850 LINE",
"216 1082 LINE",
"161 1082 LINE",
"161 0 LINE",
"216 0 LINE"
);
},
{
closed = 1;
nodes = (
"209 634 LINE",
"218 763 OFFCURVE",
"324 1049 OFFCURVE",
"596 1049 CURVE SMOOTH",
"768 1049 OFFCURVE",
"892 979 OFFCURVE",
"892 720 CURVE SMOOTH",
"892 0 LINE",
"946 0 LINE",
"946 720 LINE SMOOTH",
"946 993 OFFCURVE",
"818 1102 OFFCURVE",
"599 1102 CURVE SMOOTH",
"364 1102 OFFCURVE",
"207 904 OFFCURVE",
"180 691 CURVE"
);
},
{
closed = 1;
nodes = (
"946 720 LINE",
"956 836 OFFCURVE",
"1075 1046 OFFCURVE",
"1330 1049 CURVE SMOOTH",
"1502 1051 OFFCURVE",
"1626 975 OFFCURVE",
"1626 700 CURVE SMOOTH",
"1626 0 LINE",
"1680 0 LINE",
"1680 700 LINE SMOOTH",
"1680 987 OFFCURVE",
"1552 1102 OFFCURVE",
"1333 1102 CURVE SMOOTH",
"1098 1102 OFFCURVE",
"936 936 OFFCURVE",
"909 753 CURVE"
);
}
);
width = 1836;
},
{
anchors = (
{
name = bottom;
position = "{895, 10}";
},
{
name = bottom_dd;
position = "{1791, -407}";
},
{
name = marktop;
position = "{910, 1290}";
},
{
name = top;
position = "{910, 1290}";
},
{
name = top0315;
position = "{1791, 1290}";
},
{
name = top_dd;
position = "{1791, 1600}";
}
);
layerId = "3A1161A8-2FC1-4350-92D1-D5E808DF9456";
paths = (
{
closed = 1;
nodes = (
"337 869 LINE",
"326 1082 LINE",
"137 1082 LINE",
"137 0 LINE",
"337 0 LINE"
);
},
{
closed = 1;
nodes = (
"296 578 LINE",
"296 778 OFFCURVE",
"360 937 OFFCURVE",
"571 937 CURVE SMOOTH",
"708 937 OFFCURVE",
"795 872 OFFCURVE",
"795 711 CURVE",
"795 0 LINE",
"995 0 LINE",
"995 721 LINE",
"995 992 OFFCURVE",
"845 1102 OFFCURVE",
"645 1102 CURVE SMOOTH",
"350 1102 OFFCURVE",
"203 880 OFFCURVE",
"203 576 CURVE"
);
},
{
closed = 1;
nodes = (
"993 681 LINE",
"993 824 OFFCURVE",
"1077 937 OFFCURVE",
"1230 937 CURVE SMOOTH",
"1367 937 OFFCURVE",
"1454 887 OFFCURVE",
"1454 714 CURVE SMOOTH",
"1454 0 LINE",
"1654 0 LINE",
"1654 712 LINE SMOOTH",
"1654 984 OFFCURVE",
"1523 1102 OFFCURVE",
"1290 1102 CURVE SMOOTH",
"1009 1102 OFFCURVE",
"859 878 OFFCURVE",
"859 637 CURVE"
);
}
);
width = 1791;
},
{
anchors = (
{
name = bottom;
position = "{906, 10}";
},
{
name = bottom_dd;
position = "{1758, -407}";
},
{
name = marktop;
position = "{902, 1290}";
},
{
name = top;
position = "{902, 1290}";
},
{
name = top0315;
position = "{1758, 1290}";
},
{
name = top_dd;
position = "{1758, 1600}";
}
);
layerId = "20EE6398-45C7-446F-8F4E-C33CF1AD7937";
paths = (
{
closed = 1;
nodes = (
"453 851 LINE",
"430 1082 LINE",
"92 1082 LINE",
"92 0 LINE",
"453 0 LINE"
);
},
{
closed = 1;
nodes = (
"409 574 LINE",
"408 719 OFFCURVE",
"475 812 OFFCURVE",
"581 812 CURVE SMOOTH",
"657 812 OFFCURVE",
"698 795 OFFCURVE",
"698 671 CURVE",
"698 0 LINE",
"1059 0 LINE",
"1059 722 LINE",
"1059 992 OFFCURVE",
"932 1102 OFFCURVE",
"745 1102 CURVE SMOOTH",
"471 1102 OFFCURVE",
"326 878 OFFCURVE",
"328 567 CURVE"
);
},
{
closed = 1;
nodes = (
"1017 552 LINE",
"1017 707 OFFCURVE",
"1071 812 OFFCURVE",
"1188 812 CURVE SMOOTH",
"1261 812 OFFCURVE",
"1304 792 OFFCURVE",
"1304 675 CURVE SMOOTH",
"1304 0 LINE",
"1666 0 LINE",
"1666 675 LINE SMOOTH",
"1666 997 OFFCURVE",
"1525 1102 OFFCURVE",
"1328 1102 CURVE SMOOTH",
"1053 1102 OFFCURVE",
"917 876 OFFCURVE",
"919 554 CURVE"
);
}
);
width = 1758.225;
},
{
anchors = (
{
name = bottom;
position = "{897, 10}";
},
{
name = bottom_dd;
position = "{1795, -407}";
},
{
name = marktop;
position = "{911, 1290}";
},
{
name = top;
position = "{911, 1290}";
},
{
name = top0315;
position = "{1795, 1290}";
},
{
name = top_dd;
position = "{1795, 1600}";
}
);
layerId = "275CACE8-FD52-4067-B7BC-43A450B7EDC9";
paths = (
{
closed = 1;
nodes = (
"326 867 LINE",
"316 1082 LINE",
"139 1082 LINE",
"139 0 LINE",
"326 0 LINE"
);
},
{
closed = 1;
nodes = (
"288 583 LINE",
"289 777 OFFCURVE",
"357 947 OFFCURVE",
"573 947 CURVE SMOOTH",
"713 947 OFFCURVE",
"804 882 OFFCURVE",
"804 712 CURVE",
"804 0 LINE",
"991 0 LINE",
"991 721 LINE",
"991 992 OFFCURVE",
"843 1102 OFFCURVE",
"641 1102 CURVE SMOOTH",
"351 1102 OFFCURVE",
"203 882 OFFCURVE",
"201 586 CURVE"
);
},
{
closed = 1;
nodes = (
"989 685 LINE",
"990 825 OFFCURVE",
"1077 947 OFFCURVE",
"1239 947 CURVE SMOOTH",
"1379 947 OFFCURVE",
"1469 895 OFFCURVE",
"1469 713 CURVE SMOOTH",
"1469 0 LINE",
"1656 0 LINE",
"1656 711 LINE SMOOTH",
"1656 984 OFFCURVE",
"1526 1102 OFFCURVE",
"1294 1102 CURVE SMOOTH",
"1017 1102 OFFCURVE",
"866 883 OFFCURVE",
"864 647 CURVE"
);
}
);
width = 1795.05;
}
);
unicode = 006D;
},
{
glyphname = n;
layers = (
{
anchors = (
{
name = bottom;
position = "{578, 10}";
},
{
name = bottom_dd;
position = "{1121, -407}";
},
{
name = caron;
position = "{0, 1536}";
},
{
name = marktop;
position = "{578, 1290}";
},
{
name = right;
position = "{953, 0}";
},
{
name = top;
position = "{578, 1290}";
},
{
name = top0315;
position = "{1121, 1290}";
},
{
name = top_dd;
position = "{1121, 1600}";
}
);
layerId = "445B0B85-2678-4800-8A4D-B1A9856CF63B";
paths = (
{
closed = 1;
nodes = (
"226 851 LINE",
"226 1082 LINE",
"172 1082 LINE",
"172 0 LINE",
"226 0 LINE"
);
},
{
closed = 1;
nodes = (
"217 634 LINE",
"226 763 OFFCURVE",
"335 1049 OFFCURVE",
"607 1049 CURVE SMOOTH",
"779 1049 OFFCURVE",
"900 975 OFFCURVE",
"900 700 CURVE SMOOTH",
"900 0 LINE",
"954 0 LINE",
"954 700 LINE SMOOTH",
"954 987 OFFCURVE",
"829 1102 OFFCURVE",
"610 1102 CURVE SMOOTH",
"375 1102 OFFCURVE",
"215 904 OFFCURVE",
"188 691 CURVE"
);
}
);
width = 1121;
},
{
anchors = (
{
name = bottom;
position = "{561, 10}";
},
{
name = bottom_dd;
position = "{1132, -407}";
},
{
name = caron;
position = "{-31, 1539}";
},
{
name = marktop;
position = "{572, 1290}";
},
{
name = right;
position = "{995, 0}";
},
{
name = top;
position = "{572, 1290}";
},
{
name = top0315;
position = "{1132, 1290}";
},
{
name = top_dd;
position = "{1132, 1600}";
}
);
layerId = "3A1161A8-2FC1-4350-92D1-D5E808DF9456";
paths = (
{
closed = 1;
nodes = (
"337 851 LINE",
"326 1082 LINE",
"137 1082 LINE",
"137 0 LINE",
"337 0 LINE"
);
},
{
closed = 1;
nodes = (
"289 578 LINE",
"289 778 OFFCURVE",
"414 937 OFFCURVE",
"588 937 CURVE SMOOTH",
"725 937 OFFCURVE",
"796 872 OFFCURVE",
"796 712 CURVE SMOOTH",
"796 0 LINE",
"996 0 LINE",
"996 710 LINE SMOOTH",
"996 993 OFFCURVE",
"861 1102 OFFCURVE",
"649 1102 CURVE SMOOTH",
"384 1102 OFFCURVE",
"207 880 OFFCURVE",
"207 576 CURVE"
);
}
);
width = 1132;
},
{
anchors = (
{
name = bottom;
position = "{579, 10}";
},
{
name = bottom_dd;
position = "{1159, -407}";
},
{
name = caron;
position = "{-108, 1533}";
},
{
name = marktop;
position = "{578, 1290}";
},
{
name = right;
position = "{1077, 0}";
},
{
name = top;
position = "{578, 1290}";
},
{
name = top0315;
position = "{1159, 1290}";
},
{
name = top_dd;
position = "{1159, 1600}";
}
);
layerId = "20EE6398-45C7-446F-8F4E-C33CF1AD7937";
paths = (
{
closed = 1;
nodes = (
"442 851 LINE",
"419 1082 LINE",
"82 1082 LINE",
"82 0 LINE",
"442 0 LINE"
);
},
{
closed = 1;
nodes = (
"400 574 LINE",
"399 719 OFFCURVE",
"441 812 OFFCURVE",
"569 812 CURVE SMOOTH",
"660 812 OFFCURVE",
"711 791 OFFCURVE",
"711 676 CURVE SMOOTH",
"711 0 LINE",
"1073 0 LINE",
"1073 675 LINE SMOOTH",
"1073 996 OFFCURVE",
"933 1102 OFFCURVE",
"734 1102 CURVE SMOOTH",
"483 1102 OFFCURVE",
"315 911 OFFCURVE",
"317 567 CURVE"
);
}
);
width = 1158.55;
},
{
anchors = (
{
name = bottom;
position = "{563, 10}";
},
{
name = bottom_dd;
position = "{1131.01, -407}";
},
{
name = caron;
position = "{-28, 1539}";
},
{
name = marktop;
position = "{573, 1290}";
},
{
name = right;
position = "{991, 0}";
},
{
name = top;
position = "{573, 1290}";
},
{
name = top0315;
position = "{1131.01, 1290}";
},
{
name = top_dd;
position = "{1131.01, 1600}";
}
);
layerId = "275CACE8-FD52-4067-B7BC-43A450B7EDC9";
paths = (
{
closed = 1;
nodes = (
"327 851 LINE",
"317 1082 LINE",
"140 1082 LINE",
"140 0 LINE",
"327 0 LINE"
);
},
{
closed = 1;
nodes = (
"283 583 LINE",
"283 777 OFFCURVE",
"407 947 OFFCURVE",
"590 947 CURVE SMOOTH",
"730 947 OFFCURVE",
"805 881 OFFCURVE",
"805 711 CURVE SMOOTH",
"805 0 LINE",
"992 0 LINE",
"992 709 LINE SMOOTH",
"992 992 OFFCURVE",
"858 1102 OFFCURVE",
"645 1102 CURVE SMOOTH",
"383 1102 OFFCURVE",
"208 882 OFFCURVE",
"205 586 CURVE"
);
}
);
width = 1131.01;
}
);
unicode = 006E;
},
